<svg width="996" height="246" viewBox="0 0 996 246" fill="none" xmlns="http://www.w3.org/2000/svg">
<path d="M683.632 243V238.828H687.86V237.54H683.632V234.348H688.294V233.074H682.26V243H683.632ZM692.223 242.034C691.103 242.034 690.123 241.194 690.123 239.626C690.123 238.072 691.103 237.232 692.223 237.232C693.343 237.232 694.323 238.072 694.323 239.626C694.323 241.194 693.343 242.034 692.223 242.034ZM692.223 236.056C690.207 236.056 688.779 237.582 688.779 239.626C688.779 241.684 690.207 243.21 692.223 243.21C694.239 243.21 695.667 241.684 695.667 239.626C695.667 237.582 694.239 236.056 692.223 236.056ZM698.666 243V232.864H697.35V243H698.666ZM702.221 243V232.864H700.905V243H702.221ZM707.344 242.034C706.224 242.034 705.244 241.194 705.244 239.626C705.244 238.072 706.224 237.232 707.344 237.232C708.464 237.232 709.444 238.072 709.444 239.626C709.444 241.194 708.464 242.034 707.344 242.034ZM707.344 236.056C705.328 236.056 703.9 237.582 703.9 239.626C703.9 241.684 705.328 243.21 707.344 243.21C709.36 243.21 710.788 241.684 710.788 239.626C710.788 237.582 709.36 236.056 707.344 236.056ZM716.129 236.266L714.379 241.334L712.867 236.266H711.425L713.637 243H715.023L716.773 237.876L718.565 243H719.923L722.107 236.266H720.721L719.237 241.334L717.487 236.266H716.129ZM731.374 242.188C731.374 242.468 731.402 242.846 731.43 243H732.69C732.662 242.762 732.62 242.286 732.62 241.754V236.266H731.304V240.326C731.304 241.348 730.772 242.048 729.708 242.048C728.602 242.048 728.182 241.236 728.182 240.312V236.266H726.866V240.508C726.866 242.034 727.818 243.21 729.386 243.21C730.17 243.21 731.01 242.888 731.374 242.188ZM734.236 241.25C734.348 242.02 735.132 243.21 736.98 243.21C738.646 243.21 739.444 242.076 739.444 241.124C739.444 240.13 738.8 239.388 737.582 239.122L736.49 238.884C735.972 238.772 735.72 238.478 735.72 238.072C735.72 237.61 736.168 237.176 736.84 237.176C737.904 237.176 738.184 237.946 738.24 238.296L739.402 237.862C739.262 237.26 738.688 236.056 736.84 236.056C735.524 236.056 734.446 237.036 734.446 238.184C734.446 239.136 735.076 239.85 736.126 240.074L737.274 240.326C737.834 240.452 738.142 240.774 738.142 241.194C738.142 241.67 737.736 242.09 736.994 242.09C736.042 242.09 735.51 241.53 735.426 240.83L734.236 241.25ZM747.58 242.034C746.46 242.034 745.48 241.194 745.48 239.626C745.48 238.072 746.46 237.232 747.58 237.232C748.7 237.232 749.68 238.072 749.68 239.626C749.68 241.194 748.7 242.034 747.58 242.034ZM747.58 236.056C745.564 236.056 744.136 237.582 744.136 239.626C744.136 241.684 745.564 243.21 747.58 243.21C749.596 243.21 751.024 241.684 751.024 239.626C751.024 237.582 749.596 236.056 747.58 236.056ZM754.024 239.108C754.024 238.086 754.556 237.26 755.592 237.26C756.768 237.26 757.16 238.016 757.16 238.954V243H758.476V238.73C758.476 237.232 757.678 236.07 756.068 236.07C755.284 236.07 754.486 236.392 753.996 237.232V236.266H752.708V243H754.024V239.108ZM763.439 241.25C763.551 242.02 764.335 243.21 766.183 243.21C767.849 243.21 768.647 242.076 768.647 241.124C768.647 240.13 768.003 239.388 766.785 239.122L765.693 238.884C765.175 238.772 764.923 238.478 764.923 238.072C764.923 237.61 765.371 237.176 766.043 237.176C767.107 237.176 767.387 237.946 767.443 238.296L768.605 237.862C768.465 237.26 767.891 236.056 766.043 236.056C764.727 236.056 763.649 237.036 763.649 238.184C763.649 239.136 764.279 239.85 765.329 240.074L766.477 240.326C767.037 240.452 767.345 240.774 767.345 241.194C767.345 241.67 766.939 242.09 766.197 242.09C765.245 242.09 764.713 241.53 764.629 240.83L763.439 241.25ZM773.215 242.034C772.095 242.034 771.115 241.194 771.115 239.626C771.115 238.072 772.095 237.232 773.215 237.232C774.335 237.232 775.315 238.072 775.315 239.626C775.315 241.194 774.335 242.034 773.215 242.034ZM773.215 236.056C771.199 236.056 769.771 237.582 769.771 239.626C769.771 241.684 771.199 243.21 773.215 243.21C775.231 243.21 776.659 241.684 776.659 239.626C776.659 237.582 775.231 236.056 773.215 236.056ZM781.171 237.274C782.319 237.274 782.809 238.044 782.977 238.702L784.167 238.198C783.887 237.176 782.963 236.056 781.171 236.056C779.253 236.056 777.783 237.526 777.783 239.626C777.783 241.67 779.225 243.21 781.185 243.21C782.935 243.21 783.901 242.076 784.223 241.11L783.061 240.606C782.907 241.138 782.445 241.992 781.185 241.992C780.093 241.992 779.127 241.166 779.127 239.626C779.127 238.058 780.107 237.274 781.171 237.274ZM787.068 243V236.266H785.766V243H787.068ZM785.472 233.718C785.472 234.236 785.892 234.656 786.41 234.656C786.942 234.656 787.362 234.236 787.362 233.718C787.362 233.186 786.942 232.766 786.41 232.766C785.892 232.766 785.472 233.186 785.472 233.718ZM788.888 241.194C788.888 242.258 789.77 243.21 791.142 243.21C792.346 243.21 793.018 242.566 793.312 242.09C793.312 242.58 793.354 242.832 793.382 243H794.67C794.642 242.832 794.586 242.482 794.586 241.894V238.52C794.586 237.204 793.802 236.056 791.785 236.056C790.33 236.056 789.168 236.952 789.028 238.24L790.288 238.534C790.372 237.75 790.89 237.176 791.814 237.176C792.836 237.176 793.27 237.722 793.27 238.38C793.27 238.618 793.158 238.828 792.752 238.884L790.932 239.15C789.77 239.318 788.888 239.99 788.888 241.194ZM791.324 242.104C790.652 242.104 790.232 241.628 790.232 241.124C790.232 240.522 790.652 240.2 791.212 240.116L793.27 239.808V240.116C793.27 241.586 792.402 242.104 791.324 242.104ZM797.952 243V232.864H796.636V243H797.952Z" fill="white"/>
<path d="M1.722 238.03C1.722 235.678 3.486 233.886 5.726 233.886C7.966 233.886 9.73 235.678 9.73 238.03C9.73 240.382 7.966 242.188 5.726 242.188C3.486 242.188 1.722 240.382 1.722 238.03ZM0.63 238.03C0.63 240.872 2.898 243.21 5.726 243.21C8.568 243.21 10.864 240.872 10.864 238.03C10.864 235.188 8.568 232.864 5.726 232.864C2.898 232.864 0.63 235.188 0.63 238.03ZM5.754 236.084C6.692 236.084 7.098 236.714 7.224 237.246L8.204 236.84C7.98 236.014 7.224 235.09 5.754 235.09C4.186 235.09 2.996 236.294 2.996 238.002C2.996 239.668 4.172 240.928 5.768 240.928C7.196 240.928 7.98 240.004 8.246 239.22L7.294 238.8C7.168 239.234 6.79 239.934 5.768 239.934C4.872 239.934 4.088 239.262 4.088 238.002C4.088 236.728 4.886 236.084 5.754 236.084ZM16.972 237.19C16.958 237.05 16.944 236.91 16.944 236.784C16.944 235.748 17.504 234.922 18.694 234.922C19.842 234.922 20.402 235.692 20.402 236.518C20.402 237.218 20.01 237.862 19.156 238.408L17.644 239.388C16.104 240.382 15.516 241.516 15.488 243H21.844V241.726H17.182C17.308 241.166 17.77 240.788 18.288 240.452L20.08 239.304C21.116 238.646 21.788 237.694 21.788 236.504C21.788 234.992 20.668 233.718 18.722 233.718C16.734 233.718 15.586 235.104 15.586 236.658C15.586 236.77 15.586 236.896 15.6 237.022L16.972 237.19ZM24.4662 238.464C24.4662 237.078 24.7182 236.098 25.2642 235.524C25.6142 235.16 26.0622 234.936 26.7062 234.936C27.3502 234.936 27.7982 235.16 28.1482 235.524C28.6942 236.098 28.9462 237.078 28.9462 238.464C28.9462 239.85 28.6942 240.83 28.1482 241.404C27.7982 241.768 27.3502 241.992 26.7062 241.992C26.0622 241.992 25.6142 241.768 25.2642 241.404C24.7182 240.83 24.4662 239.85 24.4662 238.464ZM23.1082 238.464C23.1082 239.71 23.3182 240.858 23.9202 241.754C24.5082 242.636 25.4182 243.21 26.7062 243.21C27.9942 243.21 28.9042 242.636 29.4922 241.754C30.0942 240.858 30.3042 239.71 30.3042 238.464C30.3042 237.218 30.0942 236.07 29.4922 235.174C28.9042 234.292 27.9942 233.718 26.7062 233.718C25.4182 233.718 24.5082 234.292 23.9202 235.174C23.3182 236.07 23.1082 237.218 23.1082 238.464ZM32.9818 237.19C32.9678 237.05 32.9538 236.91 32.9538 236.784C32.9538 235.748 33.5138 234.922 34.7038 234.922C35.8518 234.922 36.4118 235.692 36.4118 236.518C36.4118 237.218 36.0198 237.862 35.1658 238.408L33.6538 239.388C32.1138 240.382 31.5258 241.516 31.4978 243H37.8538V241.726H33.1918C33.3178 241.166 33.7798 240.788 34.2978 240.452L36.0898 239.304C37.1258 238.646 37.7978 237.694 37.7978 236.504C37.7978 234.992 36.6778 233.718 34.7318 233.718C32.7438 233.718 31.5958 235.104 31.5958 236.658C31.5958 236.77 31.5958 236.896 31.6098 237.022L32.9818 237.19ZM40.476 238.464C40.476 237.078 40.728 236.098 41.274 235.524C41.624 235.16 42.072 234.936 42.716 234.936C43.36 234.936 43.808 235.16 44.158 235.524C44.704 236.098 44.956 237.078 44.956 238.464C44.956 239.85 44.704 240.83 44.158 241.404C43.808 241.768 43.36 241.992 42.716 241.992C42.072 241.992 41.624 241.768 41.274 241.404C40.728 240.83 40.476 239.85 40.476 238.464ZM39.118 238.464C39.118 239.71 39.328 240.858 39.93 241.754C40.518 242.636 41.428 243.21 42.716 243.21C44.004 243.21 44.914 242.636 45.502 241.754C46.104 240.858 46.314 239.71 46.314 238.464C46.314 237.218 46.104 236.07 45.502 235.174C44.914 234.292 44.004 233.718 42.716 233.718C41.428 233.718 40.518 234.292 39.93 235.174C39.328 236.07 39.118 237.218 39.118 238.464ZM53.1496 237.708V234.306H55.1376C56.3276 234.306 57.0556 234.978 57.0556 236.028C57.0556 237.05 56.3276 237.708 55.1376 237.708H53.1496ZM55.3896 238.94C57.2236 238.94 58.4556 237.694 58.4556 236.014C58.4556 234.348 57.2236 233.074 55.3896 233.074H51.7776V243H53.1496V238.94H55.3896ZM59.1473 241.194C59.1473 242.258 60.0293 243.21 61.4013 243.21C62.6053 243.21 63.2773 242.566 63.5713 242.09C63.5713 242.58 63.6133 242.832 63.6413 243H64.9293C64.9013 242.832 64.8453 242.482 64.8453 241.894V238.52C64.8453 237.204 64.0613 236.056 62.0453 236.056C60.5893 236.056 59.4273 236.952 59.2873 238.24L60.5473 238.534C60.6313 237.75 61.1493 237.176 62.0733 237.176C63.0953 237.176 63.5293 237.722 63.5293 238.38C63.5293 238.618 63.4173 238.828 63.0113 238.884L61.1913 239.15C60.0293 239.318 59.1473 239.99 59.1473 241.194ZM61.5833 242.104C60.9113 242.104 60.4913 241.628 60.4913 241.124C60.4913 240.522 60.9113 240.2 61.4713 240.116L63.5293 239.808V240.116C63.5293 241.586 62.6613 242.104 61.5833 242.104ZM69.7234 237.274C70.8714 237.274 71.3614 238.044 71.5294 238.702L72.7194 238.198C72.4394 237.176 71.5154 236.056 69.7234 236.056C67.8054 236.056 66.3354 237.526 66.3354 239.626C66.3354 241.67 67.7774 243.21 69.7374 243.21C71.4874 243.21 72.4534 242.076 72.7754 241.11L71.6134 240.606C71.4594 241.138 70.9974 241.992 69.7374 241.992C68.6454 241.992 67.6794 241.166 67.6794 239.626C67.6794 238.058 68.6594 237.274 69.7234 237.274ZM76.0832 234.138H74.8792V235.23C74.8792 235.818 74.5712 236.266 73.8432 236.266H73.4792V237.456H74.7672V241.152C74.7672 242.37 75.4952 243.07 76.6432 243.07C77.0912 243.07 77.4272 242.986 77.5392 242.944V241.824C77.4272 241.852 77.1892 241.88 77.0212 241.88C76.3352 241.88 76.0832 241.572 76.0832 240.956V237.456H77.5392V236.266H76.0832V234.138ZM82.1114 242.034C80.9914 242.034 80.0114 241.194 80.0114 239.626C80.0114 238.072 80.9914 237.232 82.1114 237.232C83.2314 237.232 84.2114 238.072 84.2114 239.626C84.2114 241.194 83.2314 242.034 82.1114 242.034ZM82.1114 236.056C80.0954 236.056 78.6674 237.582 78.6674 239.626C78.6674 241.684 80.0954 243.21 82.1114 243.21C84.1274 243.21 85.5554 241.684 85.5554 239.626C85.5554 237.582 84.1274 236.056 82.1114 236.056ZM90.9771 236.196C90.9071 236.182 90.7251 236.154 90.5431 236.154C89.8571 236.154 89.0171 236.406 88.5271 237.442V236.266H87.2391V243H88.5551V239.626C88.5551 238.142 89.2971 237.554 90.4031 237.554C90.5851 237.554 90.7811 237.568 90.9771 237.596V236.196ZM91.9598 241.194C91.9598 242.258 92.8418 243.21 94.2138 243.21C95.4178 243.21 96.0898 242.566 96.3838 242.09C96.3838 242.58 96.4258 242.832 96.4538 243H97.7418C97.7138 242.832 97.6578 242.482 97.6578 241.894V238.52C97.6578 237.204 96.8738 236.056 94.8578 236.056C93.4018 236.056 92.2398 236.952 92.0998 238.24L93.3598 238.534C93.4438 237.75 93.9618 237.176 94.8858 237.176C95.9078 237.176 96.3418 237.722 96.3418 238.38C96.3418 238.618 96.2298 238.828 95.8238 238.884L94.0038 239.15C92.8418 239.318 91.9598 239.99 91.9598 241.194ZM94.3958 242.104C93.7238 242.104 93.3038 241.628 93.3038 241.124C93.3038 240.522 93.7238 240.2 94.2838 240.116L96.3418 239.808V240.116C96.3418 241.586 95.4738 242.104 94.3958 242.104ZM104.748 243V233.074H103.348V243H104.748ZM108.448 239.108C108.448 238.086 108.98 237.26 110.016 237.26C111.192 237.26 111.584 238.016 111.584 238.954V243H112.9V238.73C112.9 237.232 112.102 236.07 110.492 236.07C109.708 236.07 108.91 236.392 108.42 237.232V236.266H107.132V243H108.448V239.108ZM117.821 237.274C118.969 237.274 119.459 238.044 119.627 238.702L120.817 238.198C120.537 237.176 119.613 236.056 117.821 236.056C115.903 236.056 114.433 237.526 114.433 239.626C114.433 241.67 115.875 243.21 117.835 243.21C119.585 243.21 120.551 242.076 120.873 241.11L119.711 240.606C119.557 241.138 119.095 241.992 117.835 241.992C116.743 241.992 115.777 241.166 115.777 239.626C115.777 238.058 116.757 237.274 117.821 237.274ZM122.277 242.104C122.277 242.65 122.697 243.07 123.243 243.07C123.789 243.07 124.223 242.65 124.223 242.104C124.223 241.558 123.789 241.124 123.243 241.124C122.697 241.124 122.277 241.558 122.277 242.104ZM136.841 243H138.325L134.377 233.074H132.795L128.847 243H130.317L131.367 240.228H135.763L136.841 243ZM133.551 234.502L135.273 238.954H131.857L133.551 234.502ZM140.905 243V232.864H139.589V243H140.905ZM144.459 243V232.864H143.143V243H144.459ZM153.936 236.196C153.866 236.182 153.684 236.154 153.502 236.154C152.816 236.154 151.976 236.406 151.486 237.442V236.266H150.198V243H151.514V239.626C151.514 238.142 152.256 237.554 153.362 237.554C153.544 237.554 153.74 237.568 153.936 237.596V236.196ZM156.641 243V236.266H155.339V243H156.641ZM155.045 233.718C155.045 234.236 155.465 234.656 155.983 234.656C156.515 234.656 156.935 234.236 156.935 233.718C156.935 233.186 156.515 232.766 155.983 232.766C155.465 232.766 155.045 233.186 155.045 233.718ZM158.39 243.364C158.558 244.806 159.818 245.87 161.498 245.87C164.032 245.87 164.872 244.204 164.872 242.496V236.266H163.57V237.204C163.234 236.532 162.534 236.14 161.498 236.14C159.65 236.14 158.404 237.596 158.404 239.416C158.404 241.32 159.706 242.678 161.498 242.678C162.506 242.678 163.234 242.188 163.556 241.572V242.538C163.556 243.994 162.912 244.722 161.498 244.722C160.476 244.722 159.762 244.008 159.664 243.07L158.39 243.364ZM161.694 241.572C160.504 241.572 159.748 240.732 159.748 239.416C159.748 238.114 160.532 237.26 161.694 237.26C162.828 237.26 163.612 238.114 163.612 239.416C163.612 240.718 162.828 241.572 161.694 241.572ZM168.29 239.038C168.318 238.044 168.85 237.26 169.858 237.26C171.034 237.26 171.426 238.016 171.426 238.954V243H172.742V238.73C172.742 237.232 171.944 236.07 170.334 236.07C169.564 236.07 168.78 236.336 168.29 237.05V232.864H166.974V243H168.29V239.038ZM176.599 234.138H175.395V235.23C175.395 235.818 175.087 236.266 174.359 236.266H173.995V237.456H175.283V241.152C175.283 242.37 176.011 243.07 177.159 243.07C177.607 243.07 177.943 242.986 178.055 242.944V241.824C177.943 241.852 177.705 241.88 177.537 241.88C176.851 241.88 176.599 241.572 176.599 240.956V237.456H178.055V236.266H176.599V234.138ZM179.25 241.25C179.362 242.02 180.146 243.21 181.994 243.21C183.66 243.21 184.458 242.076 184.458 241.124C184.458 240.13 183.814 239.388 182.596 239.122L181.504 238.884C180.986 238.772 180.734 238.478 180.734 238.072C180.734 237.61 181.182 237.176 181.854 237.176C182.918 237.176 183.198 237.946 183.254 238.296L184.416 237.862C184.276 237.26 183.702 236.056 181.854 236.056C180.538 236.056 179.46 237.036 179.46 238.184C179.46 239.136 180.09 239.85 181.14 240.074L182.288 240.326C182.848 240.452 183.156 240.774 183.156 241.194C183.156 241.67 182.75 242.09 182.008 242.09C181.056 242.09 180.524 241.53 180.44 240.83L179.25 241.25ZM193.448 236.196C193.378 236.182 193.196 236.154 193.014 236.154C192.328 236.154 191.488 236.406 190.998 237.442V236.266H189.71V243H191.026V239.626C191.026 238.142 191.768 237.554 192.874 237.554C193.056 237.554 193.252 237.568 193.448 237.596V236.196ZM195.636 238.94C195.692 238.072 196.364 237.218 197.47 237.218C198.66 237.218 199.29 237.974 199.318 238.94H195.636ZM199.514 240.69C199.262 241.446 198.716 242.048 197.624 242.048C196.49 242.048 195.622 241.208 195.594 240.004H200.662C200.676 239.92 200.69 239.752 200.69 239.584C200.69 237.484 199.528 236.056 197.456 236.056C195.762 236.056 194.236 237.498 194.236 239.612C194.236 241.894 195.818 243.21 197.624 243.21C199.192 243.21 200.27 242.272 200.648 241.082L199.514 240.69ZM201.74 241.25C201.852 242.02 202.636 243.21 204.484 243.21C206.15 243.21 206.948 242.076 206.948 241.124C206.948 240.13 206.304 239.388 205.086 239.122L203.994 238.884C203.476 238.772 203.224 238.478 203.224 238.072C203.224 237.61 203.672 237.176 204.344 237.176C205.408 237.176 205.688 237.946 205.744 238.296L206.906 237.862C206.766 237.26 206.192 236.056 204.344 236.056C203.028 236.056 201.95 237.036 201.95 238.184C201.95 239.136 202.58 239.85 203.63 240.074L204.778 240.326C205.338 240.452 205.646 240.774 205.646 241.194C205.646 241.67 205.24 242.09 204.498 242.09C203.546 242.09 203.014 241.53 202.93 240.83L201.74 241.25ZM209.486 238.94C209.542 238.072 210.214 237.218 211.32 237.218C212.51 237.218 213.14 237.974 213.168 238.94H209.486ZM213.364 240.69C213.112 241.446 212.566 242.048 211.474 242.048C210.34 242.048 209.472 241.208 209.444 240.004H214.512C214.526 239.92 214.54 239.752 214.54 239.584C214.54 237.484 213.378 236.056 211.306 236.056C209.612 236.056 208.086 237.498 208.086 239.612C208.086 241.894 209.668 243.21 211.474 243.21C213.042 243.21 214.12 242.272 214.498 241.082L213.364 240.69ZM219.958 236.196C219.888 236.182 219.706 236.154 219.524 236.154C218.838 236.154 217.998 236.406 217.508 237.442V236.266H216.22V243H217.536V239.626C217.536 238.142 218.278 237.554 219.384 237.554C219.566 237.554 219.762 237.568 219.958 237.596V236.196ZM227.333 236.266H225.919L223.987 241.46L222.069 236.266H220.585L223.315 243H224.645L227.333 236.266ZM229.242 238.94C229.298 238.072 229.97 237.218 231.076 237.218C232.266 237.218 232.896 237.974 232.924 238.94H229.242ZM233.12 240.69C232.868 241.446 232.322 242.048 231.23 242.048C230.096 242.048 229.228 241.208 229.2 240.004H234.268C234.282 239.92 234.296 239.752 234.296 239.584C234.296 237.484 233.134 236.056 231.062 236.056C229.368 236.056 227.842 237.498 227.842 239.612C227.842 241.894 229.424 243.21 231.23 243.21C232.798 243.21 233.876 242.272 234.254 241.082L233.12 240.69ZM236.759 239.612C236.759 238.226 237.543 237.246 238.747 237.246C239.951 237.246 240.679 238.198 240.679 239.584C240.679 240.97 239.937 242.02 238.733 242.02C237.473 242.02 236.759 240.998 236.759 239.612ZM240.693 242.09C240.693 242.496 240.735 242.846 240.763 243H242.037C242.023 242.888 241.967 242.398 241.967 241.754V232.864H240.665V237.218C240.441 236.672 239.797 236.084 238.607 236.084C236.703 236.084 235.415 237.708 235.415 239.612C235.415 241.614 236.633 243.182 238.607 243.182C239.657 243.182 240.371 242.622 240.693 241.978V242.09ZM244.066 242.104C244.066 242.65 244.486 243.07 245.032 243.07C245.578 243.07 246.012 242.65 246.012 242.104C246.012 241.558 245.578 241.124 245.032 241.124C244.486 241.124 244.066 241.558 244.066 242.104Z" fill="white"/>
<g clip-path="url(#clip0_0_1)">
<path d="M3.52 8.824V5.576H5.264C6.368 5.576 7.04 6.2 7.04 7.208C7.04 8.184 6.368 8.824 5.264 8.824H3.52ZM5.536 10.728C7.776 10.728 9.264 9.256 9.264 7.192C9.264 5.144 7.776 3.656 5.536 3.656H1.296V15H3.504V10.728H5.536ZM15.7716 7.096C15.6116 7.08 15.4516 7.064 15.2756 7.064C14.6036 7.064 13.5156 7.256 13.0356 8.296V7.128H10.9716V15H13.0996V11.4C13.0996 9.704 14.0436 9.176 15.1316 9.176C15.3236 9.176 15.5316 9.192 15.7716 9.24V7.096ZM21.0464 13.304C20.0064 13.304 19.0464 12.536 19.0464 11.064C19.0464 9.576 20.0064 8.824 21.0464 8.824C22.0864 8.824 23.0464 9.576 23.0464 11.064C23.0464 12.552 22.0864 13.304 21.0464 13.304ZM21.0464 6.888C18.6944 6.888 16.9184 8.632 16.9184 11.064C16.9184 13.48 18.6944 15.24 21.0464 15.24C23.3984 15.24 25.1744 13.48 25.1744 11.064C25.1744 8.632 23.3984 6.888 21.0464 6.888ZM34.6781 3.416H32.5821V7.912C32.3581 7.496 31.7181 6.936 30.3581 6.936C28.1341 6.936 26.5821 8.744 26.5821 11.048C26.5821 13.432 28.1821 15.192 30.4221 15.192C31.4781 15.192 32.2781 14.712 32.6301 14.088C32.6301 14.456 32.6781 14.84 32.7101 15H34.7421C34.7101 14.68 34.6781 14.104 34.6781 13.576V3.416ZM28.7261 11.048C28.7261 9.64 29.5901 8.84 30.6781 8.84C31.7661 8.84 32.6141 9.624 32.6141 11.032C32.6141 12.456 31.7661 13.288 30.6781 13.288C29.5581 13.288 28.7261 12.456 28.7261 11.048ZM42.4274 15H44.4594C44.4274 14.728 44.3794 14.184 44.3794 13.576V7.128H42.2514V11.704C42.2514 12.616 41.7074 13.256 40.7634 13.256C39.7714 13.256 39.3234 12.552 39.3234 11.672V7.128H37.1954V12.104C37.1954 13.816 38.2834 15.208 40.1874 15.208C41.0194 15.208 41.9314 14.888 42.3634 14.152C42.3634 14.472 42.3954 14.84 42.4274 15ZM50.4751 8.856C51.5311 8.856 52.0271 9.528 52.2191 10.184L54.1231 9.544C53.7871 8.216 52.5711 6.888 50.4271 6.888C48.1391 6.888 46.3471 8.632 46.3471 11.064C46.3471 13.48 48.1711 15.24 50.4911 15.24C52.5871 15.24 53.8191 13.896 54.1711 12.584L52.2991 11.96C52.1231 12.568 51.5791 13.288 50.4911 13.288C49.4031 13.288 48.4751 12.488 48.4751 11.064C48.4751 9.64 49.3871 8.856 50.4751 8.856ZM58.68 4.776H56.76V5.88C56.76 6.584 56.376 7.128 55.544 7.128H55.144V9.016H56.568V12.68C56.568 14.2 57.528 15.112 59.064 15.112C59.688 15.112 60.072 15 60.264 14.92V13.16C60.152 13.192 59.864 13.224 59.608 13.224C59 13.224 58.68 13 58.68 12.312V9.016H60.264V7.128H58.68V4.776Z" fill="white"/>
<g clip-path="url(#clip1_0_1)">
<path d="M2.632 56V51.828H6.86V50.54H2.632V47.348H7.294V46.074H1.26V56H2.632ZM9.47275 51.94C9.52875 51.072 10.2008 50.218 11.3068 50.218C12.4968 50.218 13.1268 50.974 13.1548 51.94H9.47275ZM13.3508 53.69C13.0988 54.446 12.5528 55.048 11.4608 55.048C10.3268 55.048 9.45875 54.208 9.43075 53.004H14.4988C14.5128 52.92 14.5268 52.752 14.5268 52.584C14.5268 50.484 13.3648 49.056 11.2928 49.056C9.59875 49.056 8.07275 50.498 8.07275 52.612C8.07275 54.894 9.65475 56.21 11.4608 56.21C13.0288 56.21 14.1068 55.272 14.4848 54.082L13.3508 53.69ZM16.0666 54.194C16.0666 55.258 16.9486 56.21 18.3206 56.21C19.5246 56.21 20.1966 55.566 20.4906 55.09C20.4906 55.58 20.5326 55.832 20.5606 56H21.8486C21.8206 55.832 21.7646 55.482 21.7646 54.894V51.52C21.7646 50.204 20.9806 49.056 18.9646 49.056C17.5086 49.056 16.3466 49.952 16.2066 51.24L17.4666 51.534C17.5506 50.75 18.0686 50.176 18.9926 50.176C20.0146 50.176 20.4486 50.722 20.4486 51.38C20.4486 51.618 20.3366 51.828 19.9306 51.884L18.1106 52.15C16.9486 52.318 16.0666 52.99 16.0666 54.194ZM18.5026 55.104C17.8306 55.104 17.4106 54.628 17.4106 54.124C17.4106 53.522 17.8306 53.2 18.3906 53.116L20.4486 52.808V53.116C20.4486 54.586 19.5806 55.104 18.5026 55.104ZM25.8588 47.138H24.6548V48.23C24.6548 48.818 24.3468 49.266 23.6188 49.266H23.2548V50.456H24.5428V54.152C24.5428 55.37 25.2708 56.07 26.4188 56.07C26.8668 56.07 27.2028 55.986 27.3148 55.944V54.824C27.2028 54.852 26.9648 54.88 26.7968 54.88C26.1108 54.88 25.8588 54.572 25.8588 53.956V50.456H27.3148V49.266H25.8588V47.138ZM33.7893 55.188C33.7893 55.468 33.8173 55.846 33.8453 56H35.1053C35.0773 55.762 35.0353 55.286 35.0353 54.754V49.266H33.7193V53.326C33.7193 54.348 33.1873 55.048 32.1233 55.048C31.0173 55.048 30.5973 54.236 30.5973 53.312V49.266H29.2813V53.508C29.2813 55.034 30.2333 56.21 31.8013 56.21C32.5853 56.21 33.4253 55.888 33.7893 55.188ZM41.299 49.196C41.229 49.182 41.047 49.154 40.865 49.154C40.179 49.154 39.339 49.406 38.849 50.442V49.266H37.561V56H38.877V52.626C38.877 51.142 39.619 50.554 40.725 50.554C40.907 50.554 41.103 50.568 41.299 50.596V49.196ZM43.7673 51.94C43.8233 51.072 44.4953 50.218 45.6013 50.218C46.7913 50.218 47.4213 50.974 47.4493 51.94H43.7673ZM47.6453 53.69C47.3933 54.446 46.8473 55.048 45.7553 55.048C44.6213 55.048 43.7533 54.208 43.7253 53.004H48.7933C48.8073 52.92 48.8213 52.752 48.8213 52.584C48.8213 50.484 47.6593 49.056 45.5873 49.056C43.8933 49.056 42.3673 50.498 42.3673 52.612C42.3673 54.894 43.9493 56.21 45.7553 56.21C47.3233 56.21 48.4013 55.272 48.7793 54.082L47.6453 53.69ZM50.1512 54.25C50.2632 55.02 51.0472 56.21 52.8952 56.21C54.5612 56.21 55.3592 55.076 55.3592 54.124C55.3592 53.13 54.7152 52.388 53.4972 52.122L52.4052 51.884C51.8872 51.772 51.6352 51.478 51.6352 51.072C51.6352 50.61 52.0832 50.176 52.7552 50.176C53.8192 50.176 54.0992 50.946 54.1552 51.296L55.3172 50.862C55.1772 50.26 54.6032 49.056 52.7552 49.056C51.4392 49.056 50.3612 50.036 50.3612 51.184C50.3612 52.136 50.9912 52.85 52.0412 53.074L53.1892 53.326C53.7492 53.452 54.0572 53.774 54.0572 54.194C54.0572 54.67 53.6512 55.09 52.9092 55.09C51.9572 55.09 51.4252 54.53 51.3412 53.83L50.1512 54.25Z" fill="white"/>
<path d="M2.632 78.708V75.306H4.62C5.81 75.306 6.538 75.978 6.538 77.028C6.538 78.05 5.81 78.708 4.62 78.708H2.632ZM4.872 79.94C6.706 79.94 7.938 78.694 7.938 77.014C7.938 75.348 6.706 74.074 4.872 74.074H1.26V84H2.632V79.94H4.872ZM13.2864 77.196C13.2164 77.182 13.0344 77.154 12.8524 77.154C12.1664 77.154 11.3264 77.406 10.8364 78.442V77.266H9.54844V84H10.8644V80.626C10.8644 79.142 11.6064 78.554 12.7124 78.554C12.8944 78.554 13.0904 78.568 13.2864 78.596V77.196ZM16.2711 84V77.266H14.9691V84H16.2711ZM14.6751 74.718C14.6751 75.236 15.0951 75.656 15.6131 75.656C16.1451 75.656 16.5651 75.236 16.5651 74.718C16.5651 74.186 16.1451 73.766 15.6131 73.766C15.0951 73.766 14.6751 74.186 14.6751 74.718ZM21.6181 78.274C22.7661 78.274 23.2561 79.044 23.4241 79.702L24.6141 79.198C24.3341 78.176 23.4101 77.056 21.6181 77.056C19.7001 77.056 18.2301 78.526 18.2301 80.626C18.2301 82.67 19.6721 84.21 21.6321 84.21C23.3821 84.21 24.3481 83.076 24.6701 82.11L23.5081 81.606C23.3541 82.138 22.8921 82.992 21.6321 82.992C20.5401 82.992 19.5741 82.166 19.5741 80.626C19.5741 79.058 20.5541 78.274 21.6181 78.274ZM27.7959 84V77.266H26.4939V84H27.7959ZM26.1999 74.718C26.1999 75.236 26.6199 75.656 27.1379 75.656C27.6699 75.656 28.0899 75.236 28.0899 74.718C28.0899 74.186 27.6699 73.766 27.1379 73.766C26.6199 73.766 26.1999 74.186 26.1999 74.718ZM31.6309 80.108C31.6309 79.086 32.1629 78.26 33.1989 78.26C34.3749 78.26 34.7669 79.016 34.7669 79.954V84H36.0829V79.73C36.0829 78.232 35.2849 77.07 33.6749 77.07C32.8909 77.07 32.0929 77.392 31.6029 78.232V77.266H30.3149V84H31.6309V80.108ZM37.9663 84.364C38.1343 85.806 39.3943 86.87 41.0743 86.87C43.6083 86.87 44.4483 85.204 44.4483 83.496V77.266H43.1463V78.204C42.8103 77.532 42.1103 77.14 41.0743 77.14C39.2263 77.14 37.9803 78.596 37.9803 80.416C37.9803 82.32 39.2823 83.678 41.0743 83.678C42.0823 83.678 42.8103 83.188 43.1323 82.572V83.538C43.1323 84.994 42.4883 85.722 41.0743 85.722C40.0523 85.722 39.3383 85.008 39.2403 84.07L37.9663 84.364ZM41.2703 82.572C40.0803 82.572 39.3243 81.732 39.3243 80.416C39.3243 79.114 40.1083 78.26 41.2703 78.26C42.4043 78.26 43.1883 79.114 43.1883 80.416C43.1883 81.718 42.4043 82.572 41.2703 82.572Z" fill="white"/>
<path d="M2.66 112V102.074H1.26V112H2.66ZM6.63983 108.108C6.63983 107.086 7.17183 106.26 8.20783 106.26C9.38383 106.26 9.77583 107.016 9.77583 107.954V112H11.0918V107.73C11.0918 106.232 10.2938 105.07 8.68383 105.07C7.89983 105.07 7.10183 105.392 6.61183 106.232V105.266H5.32383V112H6.63983V108.108ZM15.2292 103.138H14.0252V104.23C14.0252 104.818 13.7172 105.266 12.9892 105.266H12.6252V106.456H13.9132V110.152C13.9132 111.37 14.6412 112.07 15.7892 112.07C16.2372 112.07 16.5732 111.986 16.6852 111.944V110.824C16.5732 110.852 16.3352 110.88 16.1672 110.88C15.4812 110.88 15.2292 110.572 15.2292 109.956V106.456H16.6852V105.266H15.2292V103.138ZM19.5074 107.94C19.5634 107.072 20.2354 106.218 21.3414 106.218C22.5314 106.218 23.1614 106.974 23.1894 107.94H19.5074ZM23.3854 109.69C23.1334 110.446 22.5874 111.048 21.4954 111.048C20.3614 111.048 19.4934 110.208 19.4654 109.004H24.5334C24.5474 108.92 24.5614 108.752 24.5614 108.584C24.5614 106.484 23.3994 105.056 21.3274 105.056C19.6334 105.056 18.1074 106.498 18.1074 108.612C18.1074 110.894 19.6894 112.21 21.4954 112.21C23.0634 112.21 24.1414 111.272 24.5194 110.082L23.3854 109.69ZM26.0313 112.364C26.1993 113.806 27.4593 114.87 29.1393 114.87C31.6733 114.87 32.5133 113.204 32.5133 111.496V105.266H31.2113V106.204C30.8753 105.532 30.1753 105.14 29.1393 105.14C27.2913 105.14 26.0453 106.596 26.0453 108.416C26.0453 110.32 27.3473 111.678 29.1393 111.678C30.1473 111.678 30.8753 111.188 31.1973 110.572V111.538C31.1973 112.994 30.5533 113.722 29.1393 113.722C28.1173 113.722 27.4033 113.008 27.3053 112.07L26.0313 112.364ZM29.3353 110.572C28.1453 110.572 27.3893 109.732 27.3893 108.416C27.3893 107.114 28.1733 106.26 29.3353 106.26C30.4693 106.26 31.2533 107.114 31.2533 108.416C31.2533 109.718 30.4693 110.572 29.3353 110.572ZM38.633 105.196C38.563 105.182 38.381 105.154 38.199 105.154C37.513 105.154 36.673 105.406 36.183 106.442V105.266H34.895V112H36.211V108.626C36.211 107.142 36.953 106.554 38.059 106.554C38.241 106.554 38.437 106.568 38.633 106.596V105.196ZM39.8956 110.194C39.8956 111.258 40.7776 112.21 42.1496 112.21C43.3536 112.21 44.0256 111.566 44.3196 111.09C44.3196 111.58 44.3616 111.832 44.3896 112H45.6776C45.6496 111.832 45.5936 111.482 45.5936 110.894V107.52C45.5936 106.204 44.8096 105.056 42.7936 105.056C41.3376 105.056 40.1756 105.952 40.0356 107.24L41.2956 107.534C41.3796 106.75 41.8976 106.176 42.8216 106.176C43.8436 106.176 44.2776 106.722 44.2776 107.38C44.2776 107.618 44.1656 107.828 43.7596 107.884L41.9396 108.15C40.7776 108.318 39.8956 108.99 39.8956 110.194ZM42.3316 111.104C41.6596 111.104 41.2396 110.628 41.2396 110.124C41.2396 109.522 41.6596 109.2 42.2196 109.116L44.2776 108.808V109.116C44.2776 110.586 43.4096 111.104 42.3316 111.104ZM49.6877 103.138H48.4837V104.23C48.4837 104.818 48.1757 105.266 47.4477 105.266H47.0837V106.456H48.3717V110.152C48.3717 111.37 49.0997 112.07 50.2477 112.07C50.6957 112.07 51.0317 111.986 51.1437 111.944V110.824C51.0317 110.852 50.7937 110.88 50.6257 110.88C49.9397 110.88 49.6877 110.572 49.6877 109.956V106.456H51.1437V105.266H49.6877V103.138ZM54.4823 112V105.266H53.1803V112H54.4823ZM52.8863 102.718C52.8863 103.236 53.3063 103.656 53.8243 103.656C54.3563 103.656 54.7763 103.236 54.7763 102.718C54.7763 102.186 54.3563 101.766 53.8243 101.766C53.3063 101.766 52.8863 102.186 52.8863 102.718ZM59.8853 111.034C58.7653 111.034 57.7853 110.194 57.7853 108.626C57.7853 107.072 58.7653 106.232 59.8853 106.232C61.0053 106.232 61.9853 107.072 61.9853 108.626C61.9853 110.194 61.0053 111.034 59.8853 111.034ZM59.8853 105.056C57.8693 105.056 56.4413 106.582 56.4413 108.626C56.4413 110.684 57.8693 112.21 59.8853 112.21C61.9013 112.21 63.3293 110.684 63.3293 108.626C63.3293 106.582 61.9013 105.056 59.8853 105.056ZM66.6091 108.108C66.6091 107.086 67.1411 106.26 68.1771 106.26C69.353 106.26 69.7451 107.016 69.7451 107.954V112H71.0611V107.73C71.0611 106.232 70.2631 105.07 68.6531 105.07C67.869 105.07 67.0711 105.392 66.5811 106.232V105.266H65.2931V112H66.6091V108.108ZM72.8044 110.25C72.9164 111.02 73.7004 112.21 75.5484 112.21C77.2144 112.21 78.0124 111.076 78.0124 110.124C78.0124 109.13 77.3684 108.388 76.1504 108.122L75.0584 107.884C74.5404 107.772 74.2884 107.478 74.2884 107.072C74.2884 106.61 74.7364 106.176 75.4084 106.176C76.4724 106.176 76.7524 106.946 76.8084 107.296L77.9704 106.862C77.8304 106.26 77.2564 105.056 75.4084 105.056C74.0924 105.056 73.0144 106.036 73.0144 107.184C73.0144 108.136 73.6444 108.85 74.6944 109.074L75.8424 109.326C76.4024 109.452 76.7104 109.774 76.7104 110.194C76.7104 110.67 76.3044 111.09 75.5624 111.09C74.6104 111.09 74.0784 110.53 73.9944 109.83L72.8044 110.25Z" fill="white"/>
<path d="M2.632 134.708V131.306H4.62C5.81 131.306 6.538 131.978 6.538 133.028C6.538 134.05 5.81 134.708 4.62 134.708H2.632ZM4.872 135.94C6.706 135.94 7.938 134.694 7.938 133.014C7.938 131.348 6.706 130.074 4.872 130.074H1.26V140H2.632V135.94H4.872ZM13.2864 133.196C13.2164 133.182 13.0344 133.154 12.8524 133.154C12.1664 133.154 11.3264 133.406 10.8364 134.442V133.266H9.54844V140H10.8644V136.626C10.8644 135.142 11.6064 134.554 12.7124 134.554C12.8944 134.554 13.0904 134.568 13.2864 134.596V133.196ZM17.7847 139.034C16.6647 139.034 15.6847 138.194 15.6847 136.626C15.6847 135.072 16.6647 134.232 17.7847 134.232C18.9047 134.232 19.8847 135.072 19.8847 136.626C19.8847 138.194 18.9047 139.034 17.7847 139.034ZM17.7847 133.056C15.7687 133.056 14.3407 134.582 14.3407 136.626C14.3407 138.684 15.7687 140.21 17.7847 140.21C19.8007 140.21 21.2287 138.684 21.2287 136.626C21.2287 134.582 19.8007 133.056 17.7847 133.056ZM23.9764 136.612C23.9764 135.226 24.7604 134.246 25.9644 134.246C27.1684 134.246 27.8964 135.198 27.8964 136.584C27.8964 137.97 27.1544 139.02 25.9504 139.02C24.6904 139.02 23.9764 137.998 23.9764 136.612ZM27.9104 139.09C27.9104 139.496 27.9524 139.846 27.9804 140H29.2544C29.2404 139.888 29.1844 139.398 29.1844 138.754V129.864H27.8824V134.218C27.6584 133.672 27.0144 133.084 25.8244 133.084C23.9204 133.084 22.6324 134.708 22.6324 136.612C22.6324 138.614 23.8504 140.182 25.8244 140.182C26.8744 140.182 27.5884 139.622 27.9104 138.978V139.09ZM36.0725 139.188C36.0725 139.468 36.1005 139.846 36.1285 140H37.3885C37.3605 139.762 37.3185 139.286 37.3185 138.754V133.266H36.0025V137.326C36.0025 138.348 35.4705 139.048 34.4065 139.048C33.3005 139.048 32.8805 138.236 32.8805 137.312V133.266H31.5645V137.508C31.5645 139.034 32.5165 140.21 34.0845 140.21C34.8685 140.21 35.7085 139.888 36.0725 139.188ZM42.6039 134.274C43.7519 134.274 44.2419 135.044 44.4099 135.702L45.5999 135.198C45.3199 134.176 44.3959 133.056 42.6039 133.056C40.6859 133.056 39.2159 134.526 39.2159 136.626C39.2159 138.67 40.6579 140.21 42.6179 140.21C44.3679 140.21 45.3339 139.076 45.6559 138.11L44.4939 137.606C44.3399 138.138 43.8779 138.992 42.6179 138.992C41.5259 138.992 40.5599 138.166 40.5599 136.626C40.5599 135.058 41.5399 134.274 42.6039 134.274ZM49.2437 131.138H48.0397V132.23C48.0397 132.818 47.7317 133.266 47.0037 133.266H46.6397V134.456H47.9277V138.152C47.9277 139.37 48.6557 140.07 49.8037 140.07C50.2517 140.07 50.5877 139.986 50.6997 139.944V138.824C50.5877 138.852 50.3497 138.88 50.1817 138.88C49.4957 138.88 49.2437 138.572 49.2437 137.956V134.456H50.6997V133.266H49.2437V131.138Z" fill="white"/>
</g>
</g>
<g clip-path="url(#clip2_0_1)">
<path d="M213.432 15.24C216.616 15.24 218.248 13.128 218.68 11.384L216.616 10.76C216.312 11.816 215.368 13.08 213.432 13.08C211.608 13.08 209.912 11.752 209.912 9.336C209.912 6.76 211.704 5.544 213.4 5.544C215.368 5.544 216.248 6.744 216.52 7.832L218.6 7.176C218.152 5.336 216.536 3.416 213.4 3.416C210.36 3.416 207.624 5.72 207.624 9.336C207.624 12.952 210.264 15.24 213.432 15.24ZM223.945 13.304C222.905 13.304 221.945 12.536 221.945 11.064C221.945 9.576 222.905 8.824 223.945 8.824C224.985 8.824 225.945 9.576 225.945 11.064C225.945 12.552 224.985 13.304 223.945 13.304ZM223.945 6.888C221.593 6.888 219.817 8.632 219.817 11.064C219.817 13.48 221.593 15.24 223.945 15.24C226.297 15.24 228.073 13.48 228.073 11.064C228.073 8.632 226.297 6.888 223.945 6.888ZM232.201 15V10.392C232.201 9.528 232.745 8.84 233.673 8.84C234.633 8.84 235.065 9.48 235.065 10.328V15H237.177V10.392C237.177 9.544 237.721 8.84 238.633 8.84C239.609 8.84 240.025 9.48 240.025 10.328V15H242.089V9.896C242.089 7.784 240.697 6.904 239.241 6.904C238.201 6.904 237.369 7.256 236.745 8.216C236.345 7.368 235.481 6.904 234.409 6.904C233.545 6.904 232.537 7.32 232.105 8.088V7.128H230.073V15H232.201ZM246.693 18.04V14.232C247.077 14.76 247.877 15.192 248.965 15.192C251.189 15.192 252.677 13.432 252.677 11.048C252.677 8.712 251.349 6.952 249.045 6.952C247.861 6.952 246.981 7.48 246.629 8.088V7.128H244.565V18.04H246.693ZM250.581 11.064C250.581 12.472 249.717 13.288 248.629 13.288C247.541 13.288 246.661 12.456 246.661 11.064C246.661 9.672 247.541 8.856 248.629 8.856C249.717 8.856 250.581 9.672 250.581 11.064ZM254.202 12.856C254.202 14.088 255.226 15.224 256.906 15.224C258.074 15.224 258.826 14.68 259.226 14.056C259.226 14.36 259.258 14.792 259.306 15H261.258C261.21 14.728 261.162 14.168 261.162 13.752V9.88C261.162 8.296 260.234 6.888 257.738 6.888C255.626 6.888 254.49 8.248 254.362 9.48L256.25 9.88C256.314 9.192 256.826 8.6 257.754 8.6C258.65 8.6 259.082 9.064 259.082 9.624C259.082 9.896 258.938 10.12 258.49 10.184L256.554 10.472C255.242 10.664 254.202 11.448 254.202 12.856ZM257.354 13.64C256.666 13.64 256.33 13.192 256.33 12.728C256.33 12.12 256.762 11.816 257.306 11.736L259.082 11.464V11.816C259.082 13.208 258.25 13.64 257.354 13.64ZM265.755 10.472C265.755 9.56 266.299 8.84 267.227 8.84C268.251 8.84 268.683 9.528 268.683 10.408V15H270.811V10.04C270.811 8.312 269.915 6.92 267.963 6.92C267.115 6.92 266.171 7.288 265.691 8.104V7.128H263.627V15H265.755V10.472ZM275.87 18.104L280.814 7.128H278.542L276.606 11.736L274.51 7.128H272.126L275.47 14.008L273.614 18.104H275.87Z" fill="white"/>
<g clip-path="url(#clip3_0_1)">
<path d="M215.134 56H216.618L212.67 46.074H211.088L207.14 56H208.61L209.66 53.228H214.056L215.134 56ZM211.844 47.502L213.566 51.954H210.15L211.844 47.502ZM219.464 56V55.02C219.884 55.748 220.654 56.182 221.648 56.182C223.65 56.182 224.784 54.6 224.784 52.598C224.784 50.638 223.734 49.07 221.69 49.07C220.57 49.07 219.786 49.616 219.464 50.218V45.864H218.162V56H219.464ZM223.44 52.598C223.44 54.054 222.656 55.006 221.452 55.006C220.29 55.006 219.45 54.054 219.45 52.598C219.45 51.142 220.29 50.232 221.452 50.232C222.67 50.232 223.44 51.142 223.44 52.598ZM229.625 55.034C228.505 55.034 227.525 54.194 227.525 52.626C227.525 51.072 228.505 50.232 229.625 50.232C230.745 50.232 231.725 51.072 231.725 52.626C231.725 54.194 230.745 55.034 229.625 55.034ZM229.625 49.056C227.609 49.056 226.181 50.582 226.181 52.626C226.181 54.684 227.609 56.21 229.625 56.21C231.641 56.21 233.069 54.684 233.069 52.626C233.069 50.582 231.641 49.056 229.625 49.056ZM239.402 55.188C239.402 55.468 239.43 55.846 239.458 56H240.718C240.69 55.762 240.648 55.286 240.648 54.754V49.266H239.332V53.326C239.332 54.348 238.8 55.048 237.736 55.048C236.63 55.048 236.21 54.236 236.21 53.312V49.266H234.894V53.508C234.894 55.034 235.846 56.21 237.414 56.21C238.198 56.21 239.038 55.888 239.402 55.188ZM244.938 47.138H243.734V48.23C243.734 48.818 243.426 49.266 242.698 49.266H242.334V50.456H243.622V54.152C243.622 55.37 244.35 56.07 245.498 56.07C245.946 56.07 246.282 55.986 246.394 55.944V54.824C246.282 54.852 246.044 54.88 245.876 54.88C245.19 54.88 244.938 54.572 244.938 53.956V50.456H246.394V49.266H244.938V47.138ZM256.648 55.188C256.648 55.468 256.676 55.846 256.704 56H257.964C257.936 55.762 257.894 55.286 257.894 54.754V49.266H256.578V53.326C256.578 54.348 256.046 55.048 254.982 55.048C253.876 55.048 253.456 54.236 253.456 53.312V49.266H252.14V53.508C252.14 55.034 253.092 56.21 254.66 56.21C255.444 56.21 256.284 55.888 256.648 55.188ZM259.79 54.25C259.902 55.02 260.686 56.21 262.534 56.21C264.2 56.21 264.998 55.076 264.998 54.124C264.998 53.13 264.354 52.388 263.136 52.122L262.044 51.884C261.526 51.772 261.274 51.478 261.274 51.072C261.274 50.61 261.722 50.176 262.394 50.176C263.458 50.176 263.738 50.946 263.794 51.296L264.956 50.862C264.816 50.26 264.242 49.056 262.394 49.056C261.078 49.056 260 50.036 260 51.184C260 52.136 260.63 52.85 261.68 53.074L262.828 53.326C263.388 53.452 263.696 53.774 263.696 54.194C263.696 54.67 263.29 55.09 262.548 55.09C261.596 55.09 261.064 54.53 260.98 53.83L259.79 54.25Z" fill="white"/>
<path d="M212.558 84.21C214.84 84.21 216.408 82.88 216.94 81.018L215.722 80.57C215.316 81.928 214.252 82.95 212.558 82.95C210.752 82.95 209.03 81.62 209.03 79.03C209.03 76.44 210.752 75.124 212.558 75.124C214.182 75.124 215.274 75.964 215.652 77.462L216.926 77.014C216.422 75.096 214.826 73.864 212.558 73.864C210.094 73.864 207.63 75.712 207.63 79.03C207.63 82.348 209.996 84.21 212.558 84.21ZM221.511 83.034C220.391 83.034 219.411 82.194 219.411 80.626C219.411 79.072 220.391 78.232 221.511 78.232C222.631 78.232 223.611 79.072 223.611 80.626C223.611 82.194 222.631 83.034 221.511 83.034ZM221.511 77.056C219.495 77.056 218.067 78.582 218.067 80.626C218.067 82.684 219.495 84.21 221.511 84.21C223.527 84.21 224.955 82.684 224.955 80.626C224.955 78.582 223.527 77.056 221.511 77.056ZM228.234 80.108C228.234 79.086 228.766 78.26 229.802 78.26C230.978 78.26 231.37 79.016 231.37 79.954V84H232.686V79.73C232.686 78.232 231.888 77.07 230.278 77.07C229.494 77.07 228.696 77.392 228.206 78.232V77.266H226.918V84H228.234V80.108ZM236.824 75.138H235.62V76.23C235.62 76.818 235.312 77.266 234.584 77.266H234.22V78.456H235.508V82.152C235.508 83.37 236.236 84.07 237.384 84.07C237.832 84.07 238.168 83.986 238.28 83.944V82.824C238.168 82.852 237.93 82.88 237.762 82.88C237.076 82.88 236.824 82.572 236.824 81.956V78.456H238.28V77.266H236.824V75.138ZM239.896 82.194C239.896 83.258 240.778 84.21 242.15 84.21C243.354 84.21 244.026 83.566 244.32 83.09C244.32 83.58 244.362 83.832 244.39 84H245.678C245.65 83.832 245.594 83.482 245.594 82.894V79.52C245.594 78.204 244.81 77.056 242.794 77.056C241.338 77.056 240.176 77.952 240.036 79.24L241.296 79.534C241.38 78.75 241.898 78.176 242.822 78.176C243.844 78.176 244.278 78.722 244.278 79.38C244.278 79.618 244.166 79.828 243.76 79.884L241.94 80.15C240.778 80.318 239.896 80.99 239.896 82.194ZM242.332 83.104C241.66 83.104 241.24 82.628 241.24 82.124C241.24 81.522 241.66 81.2 242.22 81.116L244.278 80.808V81.116C244.278 82.586 243.41 83.104 242.332 83.104ZM250.752 78.274C251.9 78.274 252.39 79.044 252.558 79.702L253.748 79.198C253.468 78.176 252.544 77.056 250.752 77.056C248.834 77.056 247.364 78.526 247.364 80.626C247.364 82.67 248.806 84.21 250.766 84.21C252.516 84.21 253.482 83.076 253.804 82.11L252.642 81.606C252.488 82.138 252.026 82.992 250.766 82.992C249.674 82.992 248.708 82.166 248.708 80.626C248.708 79.058 249.688 78.274 250.752 78.274ZM257.392 75.138H256.188V76.23C256.188 76.818 255.88 77.266 255.152 77.266H254.788V78.456H256.076V82.152C256.076 83.37 256.804 84.07 257.952 84.07C258.4 84.07 258.736 83.986 258.848 83.944V82.824C258.736 82.852 258.498 82.88 258.33 82.88C257.644 82.88 257.392 82.572 257.392 81.956V78.456H258.848V77.266H257.392V75.138ZM269.103 83.188C269.103 83.468 269.131 83.846 269.159 84H270.419C270.391 83.762 270.349 83.286 270.349 82.754V77.266H269.033V81.326C269.033 82.348 268.501 83.048 267.437 83.048C266.331 83.048 265.911 82.236 265.911 81.312V77.266H264.595V81.508C264.595 83.034 265.547 84.21 267.115 84.21C267.899 84.21 268.739 83.888 269.103 83.188ZM272.244 82.25C272.356 83.02 273.14 84.21 274.988 84.21C276.654 84.21 277.452 83.076 277.452 82.124C277.452 81.13 276.808 80.388 275.59 80.122L274.498 79.884C273.98 79.772 273.728 79.478 273.728 79.072C273.728 78.61 274.176 78.176 274.848 78.176C275.912 78.176 276.192 78.946 276.248 79.296L277.41 78.862C277.27 78.26 276.696 77.056 274.848 77.056C273.532 77.056 272.454 78.036 272.454 79.184C272.454 80.136 273.084 80.85 274.134 81.074L275.282 81.326C275.842 81.452 276.15 81.774 276.15 82.194C276.15 82.67 275.744 83.09 275.002 83.09C274.05 83.09 273.518 82.53 273.434 81.83L272.244 82.25Z" fill="white"/>
<path d="M214.588 104.328C214.364 103.25 213.468 101.864 211.228 101.864C209.394 101.864 207.952 103.264 207.952 104.818C207.952 106.302 208.96 107.226 210.374 107.534L211.788 107.842C212.782 108.052 213.272 108.668 213.272 109.382C213.272 110.25 212.6 110.964 211.228 110.964C209.73 110.964 208.946 109.942 208.848 108.836L207.532 109.256C207.714 110.67 208.848 112.21 211.242 112.21C213.356 112.21 214.672 110.81 214.672 109.27C214.672 107.884 213.748 106.848 212.096 106.484L210.612 106.162C209.772 105.98 209.338 105.434 209.338 104.72C209.338 103.796 210.136 103.068 211.256 103.068C212.642 103.068 213.244 104.048 213.356 104.762L214.588 104.328ZM220.781 111.188C220.781 111.468 220.809 111.846 220.837 112H222.097C222.069 111.762 222.027 111.286 222.027 110.754V105.266H220.711V109.326C220.711 110.348 220.179 111.048 219.115 111.048C218.009 111.048 217.589 110.236 217.589 109.312V105.266H216.273V109.508C216.273 111.034 217.225 112.21 218.793 112.21C219.577 112.21 220.417 111.888 220.781 111.188ZM225.855 112V111.02C226.275 111.748 227.045 112.182 228.039 112.182C230.041 112.182 231.175 110.6 231.175 108.598C231.175 106.638 230.125 105.07 228.081 105.07C226.961 105.07 226.177 105.616 225.855 106.218V101.864H224.553V112H225.855ZM229.831 108.598C229.831 110.054 229.047 111.006 227.843 111.006C226.681 111.006 225.841 110.054 225.841 108.598C225.841 107.142 226.681 106.232 227.843 106.232C229.061 106.232 229.831 107.142 229.831 108.598ZM234.434 112V107.94C234.434 106.932 235.064 106.232 236.002 106.232C237.01 106.232 237.43 106.904 237.43 107.772V112H238.746V107.926C238.746 106.96 239.376 106.232 240.3 106.232C241.294 106.232 241.728 106.89 241.728 107.772V112H243.03V107.632C243.03 105.868 241.882 105.07 240.706 105.07C239.852 105.07 238.984 105.378 238.452 106.344C238.088 105.476 237.276 105.07 236.436 105.07C235.652 105.07 234.812 105.42 234.392 106.162V105.266H233.132V112H234.434ZM246.718 112V105.266H245.416V112H246.718ZM245.122 102.718C245.122 103.236 245.542 103.656 246.06 103.656C246.592 103.656 247.012 103.236 247.012 102.718C247.012 102.186 246.592 101.766 246.06 101.766C245.542 101.766 245.122 102.186 245.122 102.718ZM251.001 103.138H249.797V104.23C249.797 104.818 249.489 105.266 248.761 105.266H248.397V106.456H249.685V110.152C249.685 111.37 250.413 112.07 251.561 112.07C252.009 112.07 252.345 111.986 252.457 111.944V110.824C252.345 110.852 252.107 110.88 251.939 110.88C251.253 110.88 251.001 110.572 251.001 109.956V106.456H252.457V105.266H251.001V103.138ZM257.853 110.194C257.853 111.258 258.735 112.21 260.107 112.21C261.311 112.21 261.983 111.566 262.277 111.09C262.277 111.58 262.319 111.832 262.347 112H263.635C263.607 111.832 263.551 111.482 263.551 110.894V107.52C263.551 106.204 262.767 105.056 260.751 105.056C259.295 105.056 258.133 105.952 257.993 107.24L259.253 107.534C259.337 106.75 259.855 106.176 260.779 106.176C261.801 106.176 262.235 106.722 262.235 107.38C262.235 107.618 262.123 107.828 261.717 107.884L259.897 108.15C258.735 108.318 257.853 108.99 257.853 110.194ZM260.289 111.104C259.617 111.104 259.197 110.628 259.197 110.124C259.197 109.522 259.617 109.2 260.177 109.116L262.235 108.808V109.116C262.235 110.586 261.367 111.104 260.289 111.104ZM271.425 103.138H270.221V104.23C270.221 104.818 269.913 105.266 269.185 105.266H268.821V106.456H270.109V110.152C270.109 111.37 270.837 112.07 271.985 112.07C272.433 112.07 272.769 111.986 272.881 111.944V110.824C272.769 110.852 272.531 110.88 272.363 110.88C271.677 110.88 271.425 110.572 271.425 109.956V106.456H272.881V105.266H271.425V103.138ZM276.22 112V105.266H274.918V112H276.22ZM274.624 102.718C274.624 103.236 275.044 103.656 275.562 103.656C276.094 103.656 276.514 103.236 276.514 102.718C276.514 102.186 276.094 101.766 275.562 101.766C275.044 101.766 274.624 102.186 274.624 102.718ZM281.567 106.274C282.715 106.274 283.205 107.044 283.373 107.702L284.563 107.198C284.283 106.176 283.359 105.056 281.567 105.056C279.649 105.056 278.179 106.526 278.179 108.626C278.179 110.67 279.621 112.21 281.581 112.21C283.331 112.21 284.297 111.076 284.619 110.11L283.457 109.606C283.303 110.138 282.841 110.992 281.581 110.992C280.489 110.992 279.523 110.166 279.523 108.626C279.523 107.058 280.503 106.274 281.567 106.274ZM292.477 105.266H290.657L287.745 108.248V101.864H286.443V112H287.745V109.97L288.683 109.032L290.881 112H292.533L289.607 108.108L292.477 105.266ZM294.577 107.94C294.633 107.072 295.305 106.218 296.411 106.218C297.601 106.218 298.231 106.974 298.259 107.94H294.577ZM298.455 109.69C298.203 110.446 297.657 111.048 296.565 111.048C295.431 111.048 294.563 110.208 294.535 109.004H299.603C299.617 108.92 299.631 108.752 299.631 108.584C299.631 106.484 298.469 105.056 296.397 105.056C294.703 105.056 293.177 106.498 293.177 108.612C293.177 110.894 294.759 112.21 296.565 112.21C298.133 112.21 299.211 111.272 299.589 110.082L298.455 109.69ZM303.355 103.138H302.151V104.23C302.151 104.818 301.843 105.266 301.115 105.266H300.751V106.456H302.039V110.152C302.039 111.37 302.767 112.07 303.915 112.07C304.363 112.07 304.699 111.986 304.811 111.944V110.824C304.699 110.852 304.461 110.88 304.293 110.88C303.607 110.88 303.355 110.572 303.355 109.956V106.456H304.811V105.266H303.355V103.138Z" fill="white"/>
<path d="M209.632 134.708V131.306H211.62C212.81 131.306 213.538 131.978 213.538 133.028C213.538 134.05 212.81 134.708 211.62 134.708H209.632ZM211.872 135.94C213.706 135.94 214.938 134.694 214.938 133.014C214.938 131.348 213.706 130.074 211.872 130.074H208.26V140H209.632V135.94H211.872ZM220.286 133.196C220.216 133.182 220.034 133.154 219.852 133.154C219.166 133.154 218.326 133.406 217.836 134.442V133.266H216.548V140H217.864V136.626C217.864 135.142 218.606 134.554 219.712 134.554C219.894 134.554 220.09 134.568 220.286 134.596V133.196ZM223.271 140V133.266H221.969V140H223.271ZM221.675 130.718C221.675 131.236 222.095 131.656 222.613 131.656C223.145 131.656 223.565 131.236 223.565 130.718C223.565 130.186 223.145 129.766 222.613 129.766C222.095 129.766 221.675 130.186 221.675 130.718ZM231.558 133.266H230.144L228.212 138.46L226.294 133.266H224.81L227.54 140H228.87L231.558 133.266ZM232.609 138.194C232.609 139.258 233.491 140.21 234.863 140.21C236.067 140.21 236.739 139.566 237.033 139.09C237.033 139.58 237.075 139.832 237.103 140H238.391C238.363 139.832 238.307 139.482 238.307 138.894V135.52C238.307 134.204 237.523 133.056 235.507 133.056C234.051 133.056 232.889 133.952 232.749 135.24L234.009 135.534C234.093 134.75 234.611 134.176 235.535 134.176C236.557 134.176 236.991 134.722 236.991 135.38C236.991 135.618 236.879 135.828 236.473 135.884L234.653 136.15C233.491 136.318 232.609 136.99 232.609 138.194ZM235.045 139.104C234.373 139.104 233.953 138.628 233.953 138.124C233.953 137.522 234.373 137.2 234.933 137.116L236.991 136.808V137.116C236.991 138.586 236.123 139.104 235.045 139.104ZM243.465 134.274C244.613 134.274 245.103 135.044 245.271 135.702L246.461 135.198C246.181 134.176 245.257 133.056 243.465 133.056C241.547 133.056 240.077 134.526 240.077 136.626C240.077 138.67 241.519 140.21 243.479 140.21C245.229 140.21 246.195 139.076 246.517 138.11L245.355 137.606C245.201 138.138 244.739 138.992 243.479 138.992C242.387 138.992 241.421 138.166 241.421 136.626C241.421 135.058 242.401 134.274 243.465 134.274ZM249.953 142.814L254.335 133.266H252.921L250.905 137.914L248.805 133.266H247.293L250.191 139.258L248.511 142.814H249.953ZM260.963 142.66V139.09C261.327 139.692 262.111 140.182 263.147 140.182C265.121 140.182 266.283 138.628 266.283 136.626C266.283 134.666 265.205 133.112 263.189 133.112C262.097 133.112 261.299 133.644 260.935 134.316V133.266H259.661V142.66H260.963ZM264.939 136.626C264.939 138.012 264.169 139.006 262.951 139.006C261.747 139.006 260.949 138.012 260.949 136.626C260.949 135.282 261.747 134.274 262.951 134.274C264.183 134.274 264.939 135.282 264.939 136.626ZM271.124 139.034C270.004 139.034 269.024 138.194 269.024 136.626C269.024 135.072 270.004 134.232 271.124 134.232C272.244 134.232 273.224 135.072 273.224 136.626C273.224 138.194 272.244 139.034 271.124 139.034ZM271.124 133.056C269.108 133.056 267.68 134.582 267.68 136.626C267.68 138.684 269.108 140.21 271.124 140.21C273.14 140.21 274.568 138.684 274.568 136.626C274.568 134.582 273.14 133.056 271.124 133.056ZM277.847 140V129.864H276.531V140H277.847ZM281.668 140V133.266H280.366V140H281.668ZM280.072 130.718C280.072 131.236 280.492 131.656 281.01 131.656C281.542 131.656 281.962 131.236 281.962 130.718C281.962 130.186 281.542 129.766 281.01 129.766C280.492 129.766 280.072 130.186 280.072 130.718ZM287.015 134.274C288.163 134.274 288.653 135.044 288.821 135.702L290.011 135.198C289.731 134.176 288.807 133.056 287.015 133.056C285.097 133.056 283.627 134.526 283.627 136.626C283.627 138.67 285.069 140.21 287.029 140.21C288.779 140.21 289.745 139.076 290.067 138.11L288.905 137.606C288.751 138.138 288.289 138.992 287.029 138.992C285.937 138.992 284.971 138.166 284.971 136.626C284.971 135.058 285.951 134.274 287.015 134.274ZM293.502 142.814L297.884 133.266H296.47L294.454 137.914L292.354 133.266H290.842L293.74 139.258L292.06 142.814H293.502Z" fill="white"/>
<path d="M215.148 159.348V158.074H207.14V159.348H210.458V168H211.83V159.348H215.148ZM216.213 163.94C216.269 163.072 216.941 162.218 218.047 162.218C219.237 162.218 219.867 162.974 219.895 163.94H216.213ZM220.091 165.69C219.839 166.446 219.293 167.048 218.201 167.048C217.067 167.048 216.199 166.208 216.171 165.004H221.239C221.253 164.92 221.267 164.752 221.267 164.584C221.267 162.484 220.105 161.056 218.033 161.056C216.339 161.056 214.813 162.498 214.813 164.612C214.813 166.894 216.395 168.21 218.201 168.21C219.769 168.21 220.847 167.272 221.225 166.082L220.091 165.69ZM226.965 161.196C226.895 161.182 226.713 161.154 226.531 161.154C225.845 161.154 225.005 161.406 224.515 162.442V161.266H223.227V168H224.543V164.626C224.543 163.142 225.285 162.554 226.391 162.554C226.573 162.554 226.769 162.568 226.965 162.596V161.196ZM229.95 168V163.94C229.95 162.932 230.58 162.232 231.518 162.232C232.526 162.232 232.946 162.904 232.946 163.772V168H234.262V163.926C234.262 162.96 234.892 162.232 235.816 162.232C236.81 162.232 237.244 162.89 237.244 163.772V168H238.546V163.632C238.546 161.868 237.398 161.07 236.222 161.07C235.368 161.07 234.5 161.378 233.968 162.344C233.604 161.476 232.792 161.07 231.952 161.07C231.168 161.07 230.328 161.42 229.908 162.162V161.266H228.648V168H229.95ZM240.301 166.25C240.413 167.02 241.197 168.21 243.045 168.21C244.711 168.21 245.509 167.076 245.509 166.124C245.509 165.13 244.865 164.388 243.647 164.122L242.555 163.884C242.037 163.772 241.785 163.478 241.785 163.072C241.785 162.61 242.233 162.176 242.905 162.176C243.969 162.176 244.249 162.946 244.305 163.296L245.467 162.862C245.327 162.26 244.753 161.056 242.905 161.056C241.589 161.056 240.511 162.036 240.511 163.184C240.511 164.136 241.141 164.85 242.191 165.074L243.339 165.326C243.899 165.452 244.207 165.774 244.207 166.194C244.207 166.67 243.801 167.09 243.059 167.09C242.107 167.09 241.575 166.53 241.491 165.83L240.301 166.25ZM257.537 168H259.399L257.145 165.676L258.489 164.122V162.316L256.277 164.78L254.429 162.862L254.933 162.484C255.633 161.966 256.333 161.266 256.333 160.286C256.333 158.802 255.199 157.864 253.701 157.864C252.469 157.864 251.139 158.732 251.139 160.342C251.139 161.308 251.867 162.064 252.329 162.554L252.511 162.75L252.371 162.862C251.321 163.646 250.621 164.346 250.621 165.634C250.621 166.908 251.615 168.168 253.491 168.168C254.597 168.168 255.465 167.594 256.277 166.684L257.537 168ZM253.505 166.908C252.595 166.908 252.035 166.194 252.035 165.522C252.035 164.836 252.399 164.388 252.875 164.024L253.379 163.646L255.395 165.76L255.353 165.816C254.807 166.418 254.261 166.908 253.505 166.908ZM252.497 160.258C252.497 159.474 253.141 159.04 253.715 159.04C254.443 159.04 254.975 159.586 254.975 160.244C254.975 160.664 254.821 161.042 254.233 161.476L253.561 161.98L253.253 161.644C252.931 161.308 252.497 160.818 252.497 160.258ZM266.85 162.274C267.998 162.274 268.488 163.044 268.656 163.702L269.846 163.198C269.566 162.176 268.642 161.056 266.85 161.056C264.932 161.056 263.462 162.526 263.462 164.626C263.462 166.67 264.904 168.21 266.864 168.21C268.614 168.21 269.58 167.076 269.902 166.11L268.74 165.606C268.586 166.138 268.124 166.992 266.864 166.992C265.772 166.992 264.806 166.166 264.806 164.626C264.806 163.058 265.786 162.274 266.85 162.274ZM274.542 167.034C273.422 167.034 272.442 166.194 272.442 164.626C272.442 163.072 273.422 162.232 274.542 162.232C275.662 162.232 276.642 163.072 276.642 164.626C276.642 166.194 275.662 167.034 274.542 167.034ZM274.542 161.056C272.526 161.056 271.098 162.582 271.098 164.626C271.098 166.684 272.526 168.21 274.542 168.21C276.558 168.21 277.986 166.684 277.986 164.626C277.986 162.582 276.558 161.056 274.542 161.056ZM281.265 164.108C281.265 163.086 281.797 162.26 282.833 162.26C284.009 162.26 284.401 163.016 284.401 163.954V168H285.717V163.73C285.717 162.232 284.919 161.07 283.309 161.07C282.525 161.07 281.727 161.392 281.237 162.232V161.266H279.949V168H281.265V164.108ZM288.875 164.612C288.875 163.226 289.659 162.246 290.863 162.246C292.067 162.246 292.795 163.198 292.795 164.584C292.795 165.97 292.053 167.02 290.849 167.02C289.589 167.02 288.875 165.998 288.875 164.612ZM292.809 167.09C292.809 167.496 292.851 167.846 292.879 168H294.153C294.139 167.888 294.083 167.398 294.083 166.754V157.864H292.781V162.218C292.557 161.672 291.913 161.084 290.723 161.084C288.819 161.084 287.531 162.708 287.531 164.612C287.531 166.614 288.749 168.182 290.723 168.182C291.773 168.182 292.487 167.622 292.809 166.978V167.09ZM297.903 168V161.266H296.601V168H297.903ZM296.307 158.718C296.307 159.236 296.727 159.656 297.245 159.656C297.777 159.656 298.197 159.236 298.197 158.718C298.197 158.186 297.777 157.766 297.245 157.766C296.727 157.766 296.307 158.186 296.307 158.718ZM302.186 159.138H300.982V160.23C300.982 160.818 300.674 161.266 299.946 161.266H299.582V162.456H300.87V166.152C300.87 167.37 301.598 168.07 302.746 168.07C303.194 168.07 303.53 167.986 303.642 167.944V166.824C303.53 166.852 303.292 166.88 303.124 166.88C302.438 166.88 302.186 166.572 302.186 165.956V162.456H303.642V161.266H302.186V159.138ZM306.981 168V161.266H305.679V168H306.981ZM305.385 158.718C305.385 159.236 305.805 159.656 306.323 159.656C306.855 159.656 307.275 159.236 307.275 158.718C307.275 158.186 306.855 157.766 306.323 157.766C305.805 157.766 305.385 158.186 305.385 158.718ZM312.384 167.034C311.264 167.034 310.284 166.194 310.284 164.626C310.284 163.072 311.264 162.232 312.384 162.232C313.504 162.232 314.484 163.072 314.484 164.626C314.484 166.194 313.504 167.034 312.384 167.034ZM312.384 161.056C310.368 161.056 308.94 162.582 308.94 164.626C308.94 166.684 310.368 168.21 312.384 168.21C314.4 168.21 315.828 166.684 315.828 164.626C315.828 162.582 314.4 161.056 312.384 161.056ZM319.107 164.108C319.107 163.086 319.639 162.26 320.675 162.26C321.851 162.26 322.243 163.016 322.243 163.954V168H323.559V163.73C323.559 162.232 322.761 161.07 321.151 161.07C320.367 161.07 319.569 161.392 319.079 162.232V161.266H317.791V168H319.107V164.108ZM325.303 166.25C325.415 167.02 326.199 168.21 328.047 168.21C329.713 168.21 330.511 167.076 330.511 166.124C330.511 165.13 329.867 164.388 328.649 164.122L327.557 163.884C327.039 163.772 326.787 163.478 326.787 163.072C326.787 162.61 327.235 162.176 327.907 162.176C328.971 162.176 329.251 162.946 329.307 163.296L330.469 162.862C330.329 162.26 329.755 161.056 327.907 161.056C326.591 161.056 325.513 162.036 325.513 163.184C325.513 164.136 326.143 164.85 327.193 165.074L328.341 165.326C328.901 165.452 329.209 165.774 329.209 166.194C329.209 166.67 328.803 167.09 328.061 167.09C327.109 167.09 326.577 166.53 326.493 165.83L325.303 166.25Z" fill="white"/>
</g>
</g>
<g clip-path="url(#clip4_0_1)">
<path d="M465.536 15.256C467.968 15.256 469.904 13.768 469.904 10.984V3.656H467.696V10.824C467.696 12.312 466.88 13.096 465.536 13.096C464.224 13.096 463.392 12.312 463.392 10.824V3.656H461.184V10.984C461.184 13.768 463.12 15.256 465.536 15.256ZM471.831 12.808C471.927 13.704 472.743 15.24 475.111 15.24C477.175 15.24 478.167 13.928 478.167 12.648C478.167 11.496 477.383 10.552 475.831 10.232L474.711 9.992C474.279 9.912 473.991 9.672 473.991 9.288C473.991 8.84 474.439 8.504 474.999 8.504C475.895 8.504 476.231 9.096 476.295 9.56L478.071 9.16C477.975 8.312 477.223 6.888 474.983 6.888C473.287 6.888 472.039 8.056 472.039 9.464C472.039 10.568 472.727 11.48 474.247 11.816L475.287 12.056C475.895 12.184 476.135 12.472 476.135 12.824C476.135 13.24 475.799 13.608 475.095 13.608C474.167 13.608 473.703 13.032 473.655 12.408L471.831 12.808ZM481.719 10.168C481.767 9.448 482.375 8.616 483.479 8.616C484.695 8.616 485.207 9.384 485.239 10.168H481.719ZM485.447 12.216C485.191 12.92 484.647 13.416 483.655 13.416C482.599 13.416 481.719 12.664 481.671 11.624H487.303C487.303 11.592 487.335 11.272 487.335 10.968C487.335 8.44 485.879 6.888 483.447 6.888C481.431 6.888 479.575 8.52 479.575 11.032C479.575 13.688 481.479 15.24 483.639 15.24C485.575 15.24 486.823 14.104 487.223 12.744L485.447 12.216ZM494.13 7.096C493.97 7.08 493.81 7.064 493.634 7.064C492.962 7.064 491.874 7.256 491.394 8.296V7.128H489.33V15H491.458V11.4C491.458 9.704 492.402 9.176 493.49 9.176C493.682 9.176 493.89 9.192 494.13 9.24V7.096ZM495.322 12.808C495.418 13.704 496.234 15.24 498.602 15.24C500.666 15.24 501.658 13.928 501.658 12.648C501.658 11.496 500.874 10.552 499.322 10.232L498.202 9.992C497.77 9.912 497.482 9.672 497.482 9.288C497.482 8.84 497.93 8.504 498.49 8.504C499.386 8.504 499.722 9.096 499.786 9.56L501.562 9.16C501.466 8.312 500.714 6.888 498.474 6.888C496.778 6.888 495.53 8.056 495.53 9.464C495.53 10.568 496.218 11.48 497.738 11.816L498.778 12.056C499.386 12.184 499.626 12.472 499.626 12.824C499.626 13.24 499.29 13.608 498.586 13.608C497.658 13.608 497.194 13.032 497.146 12.408L495.322 12.808Z" fill="white"/>
<g clip-path="url(#clip5_0_1)">
<path d="M467.322 56V54.712H462.632V46.074H461.26V56H467.322ZM471.886 55.034C470.766 55.034 469.786 54.194 469.786 52.626C469.786 51.072 470.766 50.232 471.886 50.232C473.006 50.232 473.986 51.072 473.986 52.626C473.986 54.194 473.006 55.034 471.886 55.034ZM471.886 49.056C469.87 49.056 468.442 50.582 468.442 52.626C468.442 54.684 469.87 56.21 471.886 56.21C473.902 56.21 475.33 54.684 475.33 52.626C475.33 50.582 473.902 49.056 471.886 49.056ZM476.803 56.364C476.971 57.806 478.231 58.87 479.911 58.87C482.445 58.87 483.285 57.204 483.285 55.496V49.266H481.983V50.204C481.647 49.532 480.947 49.14 479.911 49.14C478.063 49.14 476.817 50.596 476.817 52.416C476.817 54.32 478.119 55.678 479.911 55.678C480.919 55.678 481.647 55.188 481.969 54.572V55.538C481.969 56.994 481.325 57.722 479.911 57.722C478.889 57.722 478.175 57.008 478.077 56.07L476.803 56.364ZM480.107 54.572C478.917 54.572 478.161 53.732 478.161 52.416C478.161 51.114 478.945 50.26 480.107 50.26C481.241 50.26 482.025 51.114 482.025 52.416C482.025 53.718 481.241 54.572 480.107 54.572ZM486.969 56V49.266H485.667V56H486.969ZM485.373 46.718C485.373 47.236 485.793 47.656 486.311 47.656C486.843 47.656 487.263 47.236 487.263 46.718C487.263 46.186 486.843 45.766 486.311 45.766C485.793 45.766 485.373 46.186 485.373 46.718ZM490.804 52.108C490.804 51.086 491.336 50.26 492.372 50.26C493.548 50.26 493.94 51.016 493.94 51.954V56H495.256V51.73C495.256 50.232 494.458 49.07 492.848 49.07C492.064 49.07 491.266 49.392 490.776 50.232V49.266H489.488V56H490.804V52.108Z" fill="white"/>
<path d="M469.856 84V79.142H465.11V80.374H468.554C468.498 81.396 467.7 82.964 465.488 82.964C463.71 82.964 462.03 81.662 462.03 79.03C462.03 76.398 463.766 75.124 465.544 75.124C467.084 75.124 468.246 75.964 468.694 77.392L469.94 76.86C469.366 75.068 467.7 73.864 465.544 73.864C463.094 73.864 460.63 75.67 460.63 79.03C460.63 82.39 462.954 84.21 465.446 84.21C467.112 84.21 468.19 83.384 468.624 82.6L468.75 84H469.856ZM472.959 79.94C473.015 79.072 473.687 78.218 474.793 78.218C475.983 78.218 476.613 78.974 476.641 79.94H472.959ZM476.837 81.69C476.585 82.446 476.039 83.048 474.947 83.048C473.813 83.048 472.945 82.208 472.917 81.004H477.985C477.999 80.92 478.013 80.752 478.013 80.584C478.013 78.484 476.851 77.056 474.779 77.056C473.085 77.056 471.559 78.498 471.559 80.612C471.559 82.894 473.141 84.21 474.947 84.21C476.515 84.21 477.593 83.272 477.971 82.082L476.837 81.69ZM481.737 75.138H480.533V76.23C480.533 76.818 480.225 77.266 479.497 77.266H479.133V78.456H480.421V82.152C480.421 83.37 481.149 84.07 482.297 84.07C482.745 84.07 483.081 83.986 483.193 83.944V82.824C483.081 82.852 482.843 82.88 482.675 82.88C481.989 82.88 481.737 82.572 481.737 81.956V78.456H483.193V77.266H481.737V75.138ZM488.59 82.194C488.59 83.258 489.472 84.21 490.844 84.21C492.048 84.21 492.72 83.566 493.014 83.09C493.014 83.58 493.056 83.832 493.084 84H494.372C494.344 83.832 494.288 83.482 494.288 82.894V79.52C494.288 78.204 493.504 77.056 491.488 77.056C490.032 77.056 488.87 77.952 488.73 79.24L489.99 79.534C490.074 78.75 490.592 78.176 491.516 78.176C492.538 78.176 492.972 78.722 492.972 79.38C492.972 79.618 492.86 79.828 492.454 79.884L490.634 80.15C489.472 80.318 488.59 80.99 488.59 82.194ZM491.026 83.104C490.354 83.104 489.934 82.628 489.934 82.124C489.934 81.522 490.354 81.2 490.914 81.116L492.972 80.808V81.116C492.972 82.586 492.104 83.104 491.026 83.104ZM501.182 80.612C501.182 79.226 501.966 78.246 503.17 78.246C504.374 78.246 505.102 79.198 505.102 80.584C505.102 81.97 504.36 83.02 503.156 83.02C501.896 83.02 501.182 81.998 501.182 80.612ZM505.116 83.09C505.116 83.496 505.158 83.846 505.186 84H506.46C506.446 83.888 506.39 83.398 506.39 82.754V73.864H505.088V78.218C504.864 77.672 504.22 77.084 503.03 77.084C501.126 77.084 499.838 78.708 499.838 80.612C499.838 82.614 501.056 84.182 503.03 84.182C504.08 84.182 504.794 83.622 505.116 82.978V83.09ZM509.762 79.94C509.818 79.072 510.49 78.218 511.596 78.218C512.786 78.218 513.416 78.974 513.444 79.94H509.762ZM513.64 81.69C513.388 82.446 512.842 83.048 511.75 83.048C510.616 83.048 509.748 82.208 509.72 81.004H514.788C514.802 80.92 514.816 80.752 514.816 80.584C514.816 78.484 513.654 77.056 511.582 77.056C509.888 77.056 508.362 78.498 508.362 80.612C508.362 82.894 509.944 84.21 511.75 84.21C513.318 84.21 514.396 83.272 514.774 82.082L513.64 81.69ZM518.078 84V79.94C518.078 78.932 518.708 78.232 519.646 78.232C520.654 78.232 521.074 78.904 521.074 79.772V84H522.39V79.926C522.39 78.96 523.02 78.232 523.944 78.232C524.938 78.232 525.372 78.89 525.372 79.772V84H526.674V79.632C526.674 77.868 525.526 77.07 524.35 77.07C523.496 77.07 522.628 77.378 522.096 78.344C521.732 77.476 520.92 77.07 520.08 77.07C519.296 77.07 518.456 77.42 518.036 78.162V77.266H516.776V84H518.078ZM531.944 83.034C530.824 83.034 529.844 82.194 529.844 80.626C529.844 79.072 530.824 78.232 531.944 78.232C533.064 78.232 534.044 79.072 534.044 80.626C534.044 82.194 533.064 83.034 531.944 83.034ZM531.944 77.056C529.928 77.056 528.5 78.582 528.5 80.626C528.5 82.684 529.928 84.21 531.944 84.21C533.96 84.21 535.388 82.684 535.388 80.626C535.388 78.582 533.96 77.056 531.944 77.056Z" fill="white"/>
<path d="M468.148 103.348V102.074H460.14V103.348H463.458V112H464.83V103.348H468.148ZM468.076 110.194C468.076 111.258 468.958 112.21 470.33 112.21C471.534 112.21 472.206 111.566 472.5 111.09C472.5 111.58 472.542 111.832 472.57 112H473.858C473.83 111.832 473.774 111.482 473.774 110.894V107.52C473.774 106.204 472.99 105.056 470.974 105.056C469.518 105.056 468.356 105.952 468.216 107.24L469.476 107.534C469.56 106.75 470.078 106.176 471.002 106.176C472.024 106.176 472.458 106.722 472.458 107.38C472.458 107.618 472.346 107.828 471.94 107.884L470.12 108.15C468.958 108.318 468.076 108.99 468.076 110.194ZM470.512 111.104C469.84 111.104 469.42 110.628 469.42 110.124C469.42 109.522 469.84 109.2 470.4 109.116L472.458 108.808V109.116C472.458 110.586 471.59 111.104 470.512 111.104ZM477.42 112V101.864H476.104V112H477.42ZM485.973 105.266H484.153L481.241 108.248V101.864H479.939V112H481.241V109.97L482.179 109.032L484.377 112H486.029L483.103 108.108L485.973 105.266ZM493.118 103.138H491.914V104.23C491.914 104.818 491.606 105.266 490.878 105.266H490.514V106.456H491.802V110.152C491.802 111.37 492.53 112.07 493.678 112.07C494.126 112.07 494.462 111.986 494.574 111.944V110.824C494.462 110.852 494.224 110.88 494.056 110.88C493.37 110.88 493.118 110.572 493.118 109.956V106.456H494.574V105.266H493.118V103.138ZM499.426 111.034C498.306 111.034 497.326 110.194 497.326 108.626C497.326 107.072 498.306 106.232 499.426 106.232C500.546 106.232 501.526 107.072 501.526 108.626C501.526 110.194 500.546 111.034 499.426 111.034ZM499.426 105.056C497.41 105.056 495.982 106.582 495.982 108.626C495.982 110.684 497.41 112.21 499.426 112.21C501.442 112.21 502.87 110.684 502.87 108.626C502.87 106.582 501.442 105.056 499.426 105.056ZM513.052 111.188C513.052 111.468 513.08 111.846 513.108 112H514.368C514.34 111.762 514.298 111.286 514.298 110.754V105.266H512.982V109.326C512.982 110.348 512.45 111.048 511.386 111.048C510.28 111.048 509.86 110.236 509.86 109.312V105.266H508.544V109.508C508.544 111.034 509.496 112.21 511.064 112.21C511.848 112.21 512.688 111.888 513.052 111.188ZM516.194 110.25C516.306 111.02 517.09 112.21 518.938 112.21C520.604 112.21 521.402 111.076 521.402 110.124C521.402 109.13 520.758 108.388 519.54 108.122L518.448 107.884C517.93 107.772 517.678 107.478 517.678 107.072C517.678 106.61 518.126 106.176 518.798 106.176C519.862 106.176 520.142 106.946 520.198 107.296L521.36 106.862C521.22 106.26 520.646 105.056 518.798 105.056C517.482 105.056 516.404 106.036 516.404 107.184C516.404 108.136 517.034 108.85 518.084 109.074L519.232 109.326C519.792 109.452 520.1 109.774 520.1 110.194C520.1 110.67 519.694 111.09 518.952 111.09C518 111.09 517.468 110.53 517.384 109.83L516.194 110.25Z" fill="white"/>
<path d="M462.632 134.708V131.306H464.62C465.81 131.306 466.538 131.978 466.538 133.028C466.538 134.05 465.81 134.708 464.62 134.708H462.632ZM464.872 135.94C466.706 135.94 467.938 134.694 467.938 133.014C467.938 131.348 466.706 130.074 464.872 130.074H461.26V140H462.632V135.94H464.872ZM473.286 133.196C473.216 133.182 473.034 133.154 472.852 133.154C472.166 133.154 471.326 133.406 470.836 134.442V133.266H469.548V140H470.864V136.626C470.864 135.142 471.606 134.554 472.712 134.554C472.894 134.554 473.09 134.568 473.286 134.596V133.196ZM476.271 140V133.266H474.969V140H476.271ZM474.675 130.718C474.675 131.236 475.095 131.656 475.613 131.656C476.145 131.656 476.565 131.236 476.565 130.718C476.565 130.186 476.145 129.766 475.613 129.766C475.095 129.766 474.675 130.186 474.675 130.718ZM484.558 133.266H483.144L481.212 138.46L479.294 133.266H477.81L480.54 140H481.87L484.558 133.266ZM485.609 138.194C485.609 139.258 486.491 140.21 487.863 140.21C489.067 140.21 489.739 139.566 490.033 139.09C490.033 139.58 490.075 139.832 490.103 140H491.391C491.363 139.832 491.307 139.482 491.307 138.894V135.52C491.307 134.204 490.523 133.056 488.507 133.056C487.051 133.056 485.889 133.952 485.749 135.24L487.009 135.534C487.093 134.75 487.611 134.176 488.535 134.176C489.557 134.176 489.991 134.722 489.991 135.38C489.991 135.618 489.879 135.828 489.473 135.884L487.653 136.15C486.491 136.318 485.609 136.99 485.609 138.194ZM488.045 139.104C487.373 139.104 486.953 138.628 486.953 138.124C486.953 137.522 487.373 137.2 487.933 137.116L489.991 136.808V137.116C489.991 138.586 489.123 139.104 488.045 139.104ZM496.465 134.274C497.613 134.274 498.103 135.044 498.271 135.702L499.461 135.198C499.181 134.176 498.257 133.056 496.465 133.056C494.547 133.056 493.077 134.526 493.077 136.626C493.077 138.67 494.519 140.21 496.479 140.21C498.229 140.21 499.195 139.076 499.517 138.11L498.355 137.606C498.201 138.138 497.739 138.992 496.479 138.992C495.387 138.992 494.421 138.166 494.421 136.626C494.421 135.058 495.401 134.274 496.465 134.274ZM502.953 142.814L507.335 133.266H505.921L503.905 137.914L501.805 133.266H500.293L503.191 139.258L501.511 142.814H502.953ZM513.963 142.66V139.09C514.327 139.692 515.111 140.182 516.147 140.182C518.121 140.182 519.283 138.628 519.283 136.626C519.283 134.666 518.205 133.112 516.189 133.112C515.097 133.112 514.299 133.644 513.935 134.316V133.266H512.661V142.66H513.963ZM517.939 136.626C517.939 138.012 517.169 139.006 515.951 139.006C514.747 139.006 513.949 138.012 513.949 136.626C513.949 135.282 514.747 134.274 515.951 134.274C517.183 134.274 517.939 135.282 517.939 136.626ZM524.124 139.034C523.004 139.034 522.024 138.194 522.024 136.626C522.024 135.072 523.004 134.232 524.124 134.232C525.244 134.232 526.224 135.072 526.224 136.626C526.224 138.194 525.244 139.034 524.124 139.034ZM524.124 133.056C522.108 133.056 520.68 134.582 520.68 136.626C520.68 138.684 522.108 140.21 524.124 140.21C526.14 140.21 527.568 138.684 527.568 136.626C527.568 134.582 526.14 133.056 524.124 133.056ZM530.847 140V129.864H529.531V140H530.847ZM534.668 140V133.266H533.366V140H534.668ZM533.072 130.718C533.072 131.236 533.492 131.656 534.01 131.656C534.542 131.656 534.962 131.236 534.962 130.718C534.962 130.186 534.542 129.766 534.01 129.766C533.492 129.766 533.072 130.186 533.072 130.718ZM540.015 134.274C541.163 134.274 541.653 135.044 541.821 135.702L543.011 135.198C542.731 134.176 541.807 133.056 540.015 133.056C538.097 133.056 536.627 134.526 536.627 136.626C536.627 138.67 538.069 140.21 540.029 140.21C541.779 140.21 542.745 139.076 543.067 138.11L541.905 137.606C541.751 138.138 541.289 138.992 540.029 138.992C538.937 138.992 537.971 138.166 537.971 136.626C537.971 135.058 538.951 134.274 540.015 134.274ZM546.502 142.814L550.884 133.266H549.47L547.454 137.914L545.354 133.266H543.842L546.74 139.258L545.06 142.814H546.502Z" fill="white"/>
<path d="M468.148 159.348V158.074H460.14V159.348H463.458V168H464.83V159.348H468.148ZM469.213 163.94C469.269 163.072 469.941 162.218 471.047 162.218C472.237 162.218 472.867 162.974 472.895 163.94H469.213ZM473.091 165.69C472.839 166.446 472.293 167.048 471.201 167.048C470.067 167.048 469.199 166.208 469.171 165.004H474.239C474.253 164.92 474.267 164.752 474.267 164.584C474.267 162.484 473.105 161.056 471.033 161.056C469.339 161.056 467.813 162.498 467.813 164.612C467.813 166.894 469.395 168.21 471.201 168.21C472.769 168.21 473.847 167.272 474.225 166.082L473.091 165.69ZM479.965 161.196C479.895 161.182 479.713 161.154 479.531 161.154C478.845 161.154 478.005 161.406 477.515 162.442V161.266H476.227V168H477.543V164.626C477.543 163.142 478.285 162.554 479.391 162.554C479.573 162.554 479.769 162.568 479.965 162.596V161.196ZM482.95 168V163.94C482.95 162.932 483.58 162.232 484.518 162.232C485.526 162.232 485.946 162.904 485.946 163.772V168H487.262V163.926C487.262 162.96 487.892 162.232 488.816 162.232C489.81 162.232 490.244 162.89 490.244 163.772V168H491.546V163.632C491.546 161.868 490.398 161.07 489.222 161.07C488.368 161.07 487.5 161.378 486.968 162.344C486.604 161.476 485.792 161.07 484.952 161.07C484.168 161.07 483.328 161.42 482.908 162.162V161.266H481.648V168H482.95ZM493.301 166.25C493.413 167.02 494.197 168.21 496.045 168.21C497.711 168.21 498.509 167.076 498.509 166.124C498.509 165.13 497.865 164.388 496.647 164.122L495.555 163.884C495.037 163.772 494.785 163.478 494.785 163.072C494.785 162.61 495.233 162.176 495.905 162.176C496.969 162.176 497.249 162.946 497.305 163.296L498.467 162.862C498.327 162.26 497.753 161.056 495.905 161.056C494.589 161.056 493.511 162.036 493.511 163.184C493.511 164.136 494.141 164.85 495.191 165.074L496.339 165.326C496.899 165.452 497.207 165.774 497.207 166.194C497.207 166.67 496.801 167.09 496.059 167.09C495.107 167.09 494.575 166.53 494.491 165.83L493.301 166.25ZM510.537 168H512.399L510.145 165.676L511.489 164.122V162.316L509.277 164.78L507.429 162.862L507.933 162.484C508.633 161.966 509.333 161.266 509.333 160.286C509.333 158.802 508.199 157.864 506.701 157.864C505.469 157.864 504.139 158.732 504.139 160.342C504.139 161.308 504.867 162.064 505.329 162.554L505.511 162.75L505.371 162.862C504.321 163.646 503.621 164.346 503.621 165.634C503.621 166.908 504.615 168.168 506.491 168.168C507.597 168.168 508.465 167.594 509.277 166.684L510.537 168ZM506.505 166.908C505.595 166.908 505.035 166.194 505.035 165.522C505.035 164.836 505.399 164.388 505.875 164.024L506.379 163.646L508.395 165.76L508.353 165.816C507.807 166.418 507.261 166.908 506.505 166.908ZM505.497 160.258C505.497 159.474 506.141 159.04 506.715 159.04C507.443 159.04 507.975 159.586 507.975 160.244C507.975 160.664 507.821 161.042 507.233 161.476L506.561 161.98L506.253 161.644C505.931 161.308 505.497 160.818 505.497 160.258ZM519.85 162.274C520.998 162.274 521.488 163.044 521.656 163.702L522.846 163.198C522.566 162.176 521.642 161.056 519.85 161.056C517.932 161.056 516.462 162.526 516.462 164.626C516.462 166.67 517.904 168.21 519.864 168.21C521.614 168.21 522.58 167.076 522.902 166.11L521.74 165.606C521.586 166.138 521.124 166.992 519.864 166.992C518.772 166.992 517.806 166.166 517.806 164.626C517.806 163.058 518.786 162.274 519.85 162.274ZM527.542 167.034C526.422 167.034 525.442 166.194 525.442 164.626C525.442 163.072 526.422 162.232 527.542 162.232C528.662 162.232 529.642 163.072 529.642 164.626C529.642 166.194 528.662 167.034 527.542 167.034ZM527.542 161.056C525.526 161.056 524.098 162.582 524.098 164.626C524.098 166.684 525.526 168.21 527.542 168.21C529.558 168.21 530.986 166.684 530.986 164.626C530.986 162.582 529.558 161.056 527.542 161.056ZM534.265 164.108C534.265 163.086 534.797 162.26 535.833 162.26C537.009 162.26 537.401 163.016 537.401 163.954V168H538.717V163.73C538.717 162.232 537.919 161.07 536.309 161.07C535.525 161.07 534.727 161.392 534.237 162.232V161.266H532.949V168H534.265V164.108ZM541.875 164.612C541.875 163.226 542.659 162.246 543.863 162.246C545.067 162.246 545.795 163.198 545.795 164.584C545.795 165.97 545.053 167.02 543.849 167.02C542.589 167.02 541.875 165.998 541.875 164.612ZM545.809 167.09C545.809 167.496 545.851 167.846 545.879 168H547.153C547.139 167.888 547.083 167.398 547.083 166.754V157.864H545.781V162.218C545.557 161.672 544.913 161.084 543.723 161.084C541.819 161.084 540.531 162.708 540.531 164.612C540.531 166.614 541.749 168.182 543.723 168.182C544.773 168.182 545.487 167.622 545.809 166.978V167.09ZM550.903 168V161.266H549.601V168H550.903ZM549.307 158.718C549.307 159.236 549.727 159.656 550.245 159.656C550.777 159.656 551.197 159.236 551.197 158.718C551.197 158.186 550.777 157.766 550.245 157.766C549.727 157.766 549.307 158.186 549.307 158.718ZM555.186 159.138H553.982V160.23C553.982 160.818 553.674 161.266 552.946 161.266H552.582V162.456H553.87V166.152C553.87 167.37 554.598 168.07 555.746 168.07C556.194 168.07 556.53 167.986 556.642 167.944V166.824C556.53 166.852 556.292 166.88 556.124 166.88C555.438 166.88 555.186 166.572 555.186 165.956V162.456H556.642V161.266H555.186V159.138ZM559.981 168V161.266H558.679V168H559.981ZM558.385 158.718C558.385 159.236 558.805 159.656 559.323 159.656C559.855 159.656 560.275 159.236 560.275 158.718C560.275 158.186 559.855 157.766 559.323 157.766C558.805 157.766 558.385 158.186 558.385 158.718ZM565.384 167.034C564.264 167.034 563.284 166.194 563.284 164.626C563.284 163.072 564.264 162.232 565.384 162.232C566.504 162.232 567.484 163.072 567.484 164.626C567.484 166.194 566.504 167.034 565.384 167.034ZM565.384 161.056C563.368 161.056 561.94 162.582 561.94 164.626C561.94 166.684 563.368 168.21 565.384 168.21C567.4 168.21 568.828 166.684 568.828 164.626C568.828 162.582 567.4 161.056 565.384 161.056ZM572.107 164.108C572.107 163.086 572.639 162.26 573.675 162.26C574.851 162.26 575.243 163.016 575.243 163.954V168H576.559V163.73C576.559 162.232 575.761 161.07 574.151 161.07C573.367 161.07 572.569 161.392 572.079 162.232V161.266H570.791V168H572.107V164.108ZM578.303 166.25C578.415 167.02 579.199 168.21 581.047 168.21C582.713 168.21 583.511 167.076 583.511 166.124C583.511 165.13 582.867 164.388 581.649 164.122L580.557 163.884C580.039 163.772 579.787 163.478 579.787 163.072C579.787 162.61 580.235 162.176 580.907 162.176C581.971 162.176 582.251 162.946 582.307 163.296L583.469 162.862C583.329 162.26 582.755 161.056 580.907 161.056C579.591 161.056 578.513 162.036 578.513 163.184C578.513 164.136 579.143 164.85 580.193 165.074L581.341 165.326C581.901 165.452 582.209 165.774 582.209 166.194C582.209 166.67 581.803 167.09 581.061 167.09C580.109 167.09 579.577 166.53 579.493 165.83L578.303 166.25Z" fill="white"/>
</g>
</g>
<g clip-path="url(#clip6_0_1)">
<path d="M724.568 15V9.096H718.904V11.016H722.488C722.36 11.816 721.544 13.224 719.448 13.224C717.544 13.224 715.864 11.896 715.864 9.336C715.864 6.648 717.72 5.48 719.432 5.48C721.272 5.48 722.216 6.648 722.504 7.656L724.616 6.904C724.056 5.16 722.408 3.416 719.432 3.416C716.36 3.416 713.624 5.672 713.624 9.336C713.624 13 716.232 15.24 719.288 15.24C721 15.24 722.12 14.472 722.632 13.704L722.776 15H724.568ZM732.077 15H734.109C734.077 14.728 734.029 14.184 734.029 13.576V7.128H731.901V11.704C731.901 12.616 731.357 13.256 730.413 13.256C729.421 13.256 728.973 12.552 728.973 11.672V7.128H726.845V12.104C726.845 13.816 727.933 15.208 729.837 15.208C730.669 15.208 731.581 14.888 732.013 14.152C732.013 14.472 732.045 14.84 732.077 15ZM738.748 15V7.128H736.62V15H738.748ZM736.364 4.552C736.364 5.256 736.956 5.848 737.676 5.848C738.412 5.848 738.988 5.256 738.988 4.552C738.988 3.816 738.412 3.224 737.676 3.224C736.956 3.224 736.364 3.816 736.364 4.552ZM748.85 3.416H746.754V7.912C746.53 7.496 745.89 6.936 744.53 6.936C742.306 6.936 740.754 8.744 740.754 11.048C740.754 13.432 742.354 15.192 744.594 15.192C745.65 15.192 746.45 14.712 746.802 14.088C746.802 14.456 746.85 14.84 746.882 15H748.914C748.882 14.68 748.85 14.104 748.85 13.576V3.416ZM742.898 11.048C742.898 9.64 743.762 8.84 744.85 8.84C745.938 8.84 746.786 9.624 746.786 11.032C746.786 12.456 745.938 13.288 744.85 13.288C743.73 13.288 742.898 12.456 742.898 11.048ZM753.03 10.168C753.078 9.448 753.686 8.616 754.79 8.616C756.006 8.616 756.518 9.384 756.55 10.168H753.03ZM756.758 12.216C756.502 12.92 755.958 13.416 754.966 13.416C753.91 13.416 753.03 12.664 752.982 11.624H758.614C758.614 11.592 758.646 11.272 758.646 10.968C758.646 8.44 757.19 6.888 754.758 6.888C752.742 6.888 750.886 8.52 750.886 11.032C750.886 13.688 752.79 15.24 754.95 15.24C756.886 15.24 758.134 14.104 758.534 12.744L756.758 12.216ZM759.97 12.808C760.066 13.704 760.882 15.24 763.25 15.24C765.314 15.24 766.306 13.928 766.306 12.648C766.306 11.496 765.522 10.552 763.97 10.232L762.85 9.992C762.418 9.912 762.13 9.672 762.13 9.288C762.13 8.84 762.578 8.504 763.138 8.504C764.034 8.504 764.37 9.096 764.434 9.56L766.21 9.16C766.114 8.312 765.362 6.888 763.122 6.888C761.426 6.888 760.178 8.056 760.178 9.464C760.178 10.568 760.866 11.48 762.386 11.816L763.426 12.056C764.034 12.184 764.274 12.472 764.274 12.824C764.274 13.24 763.938 13.608 763.234 13.608C762.306 13.608 761.842 13.032 761.794 12.408L759.97 12.808Z" fill="white"/>
<g clip-path="url(#clip7_0_1)">
<path d="M724.984 56V46.074H723.15L719.622 54.152L716.122 46.074H714.26V56H715.618V48.272L718.978 56H720.238L723.626 48.272V56H724.984ZM734.116 48.328C733.892 47.25 732.996 45.864 730.756 45.864C728.922 45.864 727.48 47.264 727.48 48.818C727.48 50.302 728.488 51.226 729.902 51.534L731.316 51.842C732.31 52.052 732.8 52.668 732.8 53.382C732.8 54.25 732.128 54.964 730.756 54.964C729.258 54.964 728.474 53.942 728.376 52.836L727.06 53.256C727.242 54.67 728.376 56.21 730.77 56.21C732.884 56.21 734.2 54.81 734.2 53.27C734.2 51.884 733.276 50.848 731.624 50.484L730.14 50.162C729.3 49.98 728.866 49.434 728.866 48.72C728.866 47.796 729.664 47.068 730.784 47.068C732.17 47.068 732.772 48.048 732.884 48.762L734.116 48.328ZM737.739 50.708V47.306H739.727C740.917 47.306 741.645 47.978 741.645 49.028C741.645 50.05 740.917 50.708 739.727 50.708H737.739ZM739.979 51.94C741.813 51.94 743.045 50.694 743.045 49.014C743.045 47.348 741.813 46.074 739.979 46.074H736.367V56H737.739V51.94H739.979Z" fill="white"/>
<path d="M724.984 84V74.074H723.15L719.622 82.152L716.122 74.074H714.26V84H715.618V76.272L718.978 84H720.238L723.626 76.272V84H724.984ZM734.116 76.328C733.892 75.25 732.996 73.864 730.756 73.864C728.922 73.864 727.48 75.264 727.48 76.818C727.48 78.302 728.488 79.226 729.902 79.534L731.316 79.842C732.31 80.052 732.8 80.668 732.8 81.382C732.8 82.25 732.128 82.964 730.756 82.964C729.258 82.964 728.474 81.942 728.376 80.836L727.06 81.256C727.242 82.67 728.376 84.21 730.77 84.21C732.884 84.21 734.2 82.81 734.2 81.27C734.2 79.884 733.276 78.848 731.624 78.484L730.14 78.162C729.3 77.98 728.866 77.434 728.866 76.72C728.866 75.796 729.664 75.068 730.784 75.068C732.17 75.068 732.772 76.048 732.884 76.762L734.116 76.328ZM737.739 78.708V75.306H739.727C740.917 75.306 741.645 75.978 741.645 77.028C741.645 78.05 740.917 78.708 739.727 78.708H737.739ZM739.979 79.94C741.813 79.94 743.045 78.694 743.045 77.014C743.045 75.348 741.813 74.074 739.979 74.074H736.367V84H737.739V79.94H739.979ZM755.108 76.328C754.884 75.25 753.988 73.864 751.748 73.864C749.914 73.864 748.472 75.264 748.472 76.818C748.472 78.302 749.48 79.226 750.894 79.534L752.308 79.842C753.302 80.052 753.792 80.668 753.792 81.382C753.792 82.25 753.12 82.964 751.748 82.964C750.25 82.964 749.466 81.942 749.368 80.836L748.052 81.256C748.234 82.67 749.368 84.21 751.762 84.21C753.876 84.21 755.192 82.81 755.192 81.27C755.192 79.884 754.268 78.848 752.616 78.484L751.132 78.162C750.292 77.98 749.858 77.434 749.858 76.72C749.858 75.796 750.656 75.068 751.776 75.068C753.162 75.068 753.764 76.048 753.876 76.762L755.108 76.328ZM756.731 82.194C756.731 83.258 757.613 84.21 758.985 84.21C760.189 84.21 760.861 83.566 761.155 83.09C761.155 83.58 761.197 83.832 761.225 84H762.513C762.485 83.832 762.429 83.482 762.429 82.894V79.52C762.429 78.204 761.645 77.056 759.629 77.056C758.173 77.056 757.011 77.952 756.871 79.24L758.131 79.534C758.215 78.75 758.733 78.176 759.657 78.176C760.679 78.176 761.113 78.722 761.113 79.38C761.113 79.618 761.001 79.828 760.595 79.884L758.775 80.15C757.613 80.318 756.731 80.99 756.731 82.194ZM759.167 83.104C758.495 83.104 758.075 82.628 758.075 82.124C758.075 81.522 758.495 81.2 759.055 81.116L761.113 80.808V81.116C761.113 82.586 760.245 83.104 759.167 83.104ZM766.075 84V73.864H764.759V84H766.075ZM769.448 79.94C769.504 79.072 770.176 78.218 771.282 78.218C772.472 78.218 773.102 78.974 773.13 79.94H769.448ZM773.326 81.69C773.074 82.446 772.528 83.048 771.436 83.048C770.302 83.048 769.434 82.208 769.406 81.004H774.474C774.488 80.92 774.502 80.752 774.502 80.584C774.502 78.484 773.34 77.056 771.268 77.056C769.574 77.056 768.048 78.498 768.048 80.612C768.048 82.894 769.63 84.21 771.436 84.21C773.004 84.21 774.082 83.272 774.46 82.082L773.326 81.69ZM775.832 82.25C775.944 83.02 776.728 84.21 778.576 84.21C780.242 84.21 781.04 83.076 781.04 82.124C781.04 81.13 780.396 80.388 779.178 80.122L778.086 79.884C777.568 79.772 777.316 79.478 777.316 79.072C777.316 78.61 777.764 78.176 778.436 78.176C779.5 78.176 779.78 78.946 779.836 79.296L780.998 78.862C780.858 78.26 780.284 77.056 778.436 77.056C777.12 77.056 776.042 78.036 776.042 79.184C776.042 80.136 776.672 80.85 777.722 81.074L778.87 81.326C779.43 81.452 779.738 81.774 779.738 82.194C779.738 82.67 779.332 83.09 778.59 83.09C777.638 83.09 777.106 82.53 777.022 81.83L775.832 82.25Z" fill="white"/>
</g>
</g>
<g clip-path="url(#clip8_0_1)">
<path d="M916.432 15.24C919.616 15.24 921.248 13.128 921.68 11.384L919.616 10.76C919.312 11.816 918.368 13.08 916.432 13.08C914.608 13.08 912.912 11.752 912.912 9.336C912.912 6.76 914.704 5.544 916.4 5.544C918.368 5.544 919.248 6.744 919.52 7.832L921.6 7.176C921.152 5.336 919.536 3.416 916.4 3.416C913.36 3.416 910.624 5.72 910.624 9.336C910.624 12.952 913.264 15.24 916.432 15.24ZM926.945 13.304C925.905 13.304 924.945 12.536 924.945 11.064C924.945 9.576 925.905 8.824 926.945 8.824C927.985 8.824 928.945 9.576 928.945 11.064C928.945 12.552 927.985 13.304 926.945 13.304ZM926.945 6.888C924.593 6.888 922.817 8.632 922.817 11.064C922.817 13.48 924.593 15.24 926.945 15.24C929.297 15.24 931.073 13.48 931.073 11.064C931.073 8.632 929.297 6.888 926.945 6.888ZM935.201 10.472C935.201 9.56 935.745 8.84 936.673 8.84C937.697 8.84 938.129 9.528 938.129 10.408V15H940.257V10.04C940.257 8.312 939.361 6.92 937.409 6.92C936.561 6.92 935.617 7.288 935.137 8.104V7.128H933.073V15H935.201V10.472ZM945.361 4.776H943.441V5.88C943.441 6.584 943.057 7.128 942.225 7.128H941.825V9.016H943.249V12.68C943.249 14.2 944.209 15.112 945.745 15.112C946.369 15.112 946.753 15 946.945 14.92V13.16C946.833 13.192 946.545 13.224 946.289 13.224C945.681 13.224 945.361 13 945.361 12.312V9.016H946.945V7.128H945.361V4.776ZM948.639 12.856C948.639 14.088 949.663 15.224 951.343 15.224C952.511 15.224 953.263 14.68 953.663 14.056C953.663 14.36 953.695 14.792 953.743 15H955.695C955.647 14.728 955.599 14.168 955.599 13.752V9.88C955.599 8.296 954.671 6.888 952.175 6.888C950.063 6.888 948.927 8.248 948.799 9.48L950.687 9.88C950.751 9.192 951.263 8.6 952.191 8.6C953.087 8.6 953.519 9.064 953.519 9.624C953.519 9.896 953.375 10.12 952.927 10.184L950.991 10.472C949.679 10.664 948.639 11.448 948.639 12.856ZM951.791 13.64C951.103 13.64 950.767 13.192 950.767 12.728C950.767 12.12 951.199 11.816 951.743 11.736L953.519 11.464V11.816C953.519 13.208 952.687 13.64 951.791 13.64ZM961.569 8.856C962.625 8.856 963.121 9.528 963.313 10.184L965.217 9.544C964.881 8.216 963.665 6.888 961.521 6.888C959.233 6.888 957.441 8.632 957.441 11.064C957.441 13.48 959.265 15.24 961.585 15.24C963.681 15.24 964.913 13.896 965.265 12.584L963.393 11.96C963.217 12.568 962.673 13.288 961.585 13.288C960.497 13.288 959.569 12.488 959.569 11.064C959.569 9.64 960.481 8.856 961.569 8.856ZM969.774 4.776H967.854V5.88C967.854 6.584 967.47 7.128 966.638 7.128H966.238V9.016H967.662V12.68C967.662 14.2 968.622 15.112 970.158 15.112C970.782 15.112 971.166 15 971.358 14.92V13.16C971.246 13.192 970.958 13.224 970.702 13.224C970.094 13.224 969.774 13 969.774 12.312V9.016H971.358V7.128H969.774V4.776ZM982.112 15.256C984.544 15.256 986.48 13.768 986.48 10.984V3.656H984.272V10.824C984.272 12.312 983.456 13.096 982.112 13.096C980.8 13.096 979.968 12.312 979.968 10.824V3.656H977.76V10.984C977.76 13.768 979.696 15.256 982.112 15.256ZM988.406 12.808C988.502 13.704 989.318 15.24 991.686 15.24C993.75 15.24 994.742 13.928 994.742 12.648C994.742 11.496 993.958 10.552 992.406 10.232L991.286 9.992C990.854 9.912 990.566 9.672 990.566 9.288C990.566 8.84 991.014 8.504 991.574 8.504C992.47 8.504 992.806 9.096 992.87 9.56L994.646 9.16C994.55 8.312 993.798 6.888 991.558 6.888C989.862 6.888 988.614 8.056 988.614 9.464C988.614 10.568 989.302 11.48 990.822 11.816L991.862 12.056C992.47 12.184 992.71 12.472 992.71 12.824C992.71 13.24 992.374 13.608 991.67 13.608C990.742 13.608 990.278 13.032 990.23 12.408L988.406 12.808Z" fill="white"/>
<g clip-path="url(#clip9_0_1)">
<path d="M918.134 56H919.618L915.67 46.074H914.088L910.14 56H911.61L912.66 53.228H917.056L918.134 56ZM914.844 47.502L916.566 51.954H913.15L914.844 47.502ZM921.809 52.612C921.809 51.226 922.593 50.246 923.797 50.246C925.001 50.246 925.729 51.198 925.729 52.584C925.729 53.97 924.987 55.02 923.783 55.02C922.523 55.02 921.809 53.998 921.809 52.612ZM925.743 55.09C925.743 55.496 925.785 55.846 925.813 56H927.087C927.073 55.888 927.017 55.398 927.017 54.754V45.864H925.715V50.218C925.491 49.672 924.847 49.084 923.657 49.084C921.753 49.084 920.465 50.708 920.465 52.612C920.465 54.614 921.683 56.182 923.657 56.182C924.707 56.182 925.421 55.622 925.743 54.978V55.09ZM930.319 52.612C930.319 51.226 931.103 50.246 932.307 50.246C933.511 50.246 934.239 51.198 934.239 52.584C934.239 53.97 933.497 55.02 932.293 55.02C931.033 55.02 930.319 53.998 930.319 52.612ZM934.253 55.09C934.253 55.496 934.295 55.846 934.323 56H935.597C935.583 55.888 935.527 55.398 935.527 54.754V45.864H934.225V50.218C934.001 49.672 933.357 49.084 932.167 49.084C930.263 49.084 928.975 50.708 928.975 52.612C928.975 54.614 930.193 56.182 932.167 56.182C933.217 56.182 933.931 55.622 934.253 54.978V55.09ZM941.784 49.196C941.714 49.182 941.532 49.154 941.35 49.154C940.664 49.154 939.824 49.406 939.334 50.442V49.266H938.046V56H939.362V52.626C939.362 51.142 940.104 50.554 941.21 50.554C941.392 50.554 941.588 50.568 941.784 50.596V49.196ZM944.252 51.94C944.308 51.072 944.98 50.218 946.086 50.218C947.276 50.218 947.906 50.974 947.934 51.94H944.252ZM948.13 53.69C947.878 54.446 947.332 55.048 946.24 55.048C945.106 55.048 944.238 54.208 944.21 53.004H949.278C949.292 52.92 949.306 52.752 949.306 52.584C949.306 50.484 948.144 49.056 946.072 49.056C944.378 49.056 942.852 50.498 942.852 52.612C942.852 54.894 944.434 56.21 946.24 56.21C947.808 56.21 948.886 55.272 949.264 54.082L948.13 53.69ZM950.636 54.25C950.748 55.02 951.532 56.21 953.38 56.21C955.046 56.21 955.844 55.076 955.844 54.124C955.844 53.13 955.2 52.388 953.982 52.122L952.89 51.884C952.372 51.772 952.12 51.478 952.12 51.072C952.12 50.61 952.568 50.176 953.24 50.176C954.304 50.176 954.584 50.946 954.64 51.296L955.802 50.862C955.662 50.26 955.088 49.056 953.24 49.056C951.924 49.056 950.846 50.036 950.846 51.184C950.846 52.136 951.476 52.85 952.526 53.074L953.674 53.326C954.234 53.452 954.542 53.774 954.542 54.194C954.542 54.67 954.136 55.09 953.394 55.09C952.442 55.09 951.91 54.53 951.826 53.83L950.636 54.25ZM957.246 54.25C957.358 55.02 958.142 56.21 959.99 56.21C961.656 56.21 962.454 55.076 962.454 54.124C962.454 53.13 961.81 52.388 960.592 52.122L959.5 51.884C958.982 51.772 958.73 51.478 958.73 51.072C958.73 50.61 959.178 50.176 959.85 50.176C960.914 50.176 961.194 50.946 961.25 51.296L962.412 50.862C962.272 50.26 961.698 49.056 959.85 49.056C958.534 49.056 957.456 50.036 957.456 51.184C957.456 52.136 958.086 52.85 959.136 53.074L960.284 53.326C960.844 53.452 961.152 53.774 961.152 54.194C961.152 54.67 960.746 55.09 960.004 55.09C959.052 55.09 958.52 54.53 958.436 53.83L957.246 54.25Z" fill="white"/>
</g>
</g>
<defs>
<clipPath id="clip0_0_1">
<rect width="79" height="144" fill="white"/>
</clipPath>
<clipPath id="clip1_0_1">
<rect width="79" height="102" fill="white" transform="translate(0 42)"/>
</clipPath>
<clipPath id="clip2_0_1">
<rect width="125" height="172" fill="white" transform="translate(207)"/>
</clipPath>
<clipPath id="clip3_0_1">
<rect width="125" height="130" fill="white" transform="translate(207 42)"/>
</clipPath>
<clipPath id="clip4_0_1">
<rect width="125" height="172" fill="white" transform="translate(460)"/>
</clipPath>
<clipPath id="clip5_0_1">
<rect width="125" height="130" fill="white" transform="translate(460 42)"/>
</clipPath>
<clipPath id="clip6_0_1">
<rect width="69" height="88" fill="white" transform="translate(713)"/>
</clipPath>
<clipPath id="clip7_0_1">
<rect width="69" height="46" fill="white" transform="translate(713 42)"/>
</clipPath>
<clipPath id="clip8_0_1">
<rect width="86" height="60" fill="white" transform="translate(910)"/>
</clipPath>
<clipPath id="clip9_0_1">
<rect width="54" height="18" fill="white" transform="translate(910 42)"/>
</clipPath>
</defs>
</svg>
