<svg width="789" height="282" viewBox="0 0 789 282" fill="none" xmlns="http://www.w3.org/2000/svg">
<g clip-path="url(#clip0_1_239)">
<path d="M126.318 50V36.752H139.518V30.656H126.27V22.256H141.15V15.968H119.646V50H126.318ZM152.409 50V26.384H146.025V50H152.409ZM145.257 18.656C145.257 20.768 147.033 22.544 149.193 22.544C151.401 22.544 153.129 20.768 153.129 18.656C153.129 16.448 151.401 14.672 149.193 14.672C147.033 14.672 145.257 16.448 145.257 18.656ZM165.628 36.416C165.628 33.68 167.26 31.52 170.044 31.52C173.116 31.52 174.412 33.584 174.412 36.224V50H180.796V35.12C180.796 29.936 178.108 25.76 172.252 25.76C169.708 25.76 166.876 26.864 165.436 29.312V26.384H159.244V50H165.628V36.416ZM209.787 15.248H203.499V28.736C202.827 27.488 200.907 25.808 196.827 25.808C190.155 25.808 185.499 31.232 185.499 38.144C185.499 45.296 190.299 50.576 197.019 50.576C200.187 50.576 202.587 49.136 203.643 47.264C203.643 48.368 203.787 49.52 203.883 50H209.979C209.883 49.04 209.787 47.312 209.787 45.728V15.248ZM191.931 38.144C191.931 33.92 194.523 31.52 197.787 31.52C201.051 31.52 203.595 33.872 203.595 38.096C203.595 42.368 201.051 44.864 197.787 44.864C194.427 44.864 191.931 42.368 191.931 38.144ZM236.444 19.328H230.684V22.64C230.684 24.752 229.532 26.384 227.036 26.384H225.836V32.048H230.108V43.04C230.108 47.6 232.988 50.336 237.596 50.336C239.468 50.336 240.62 50 241.196 49.76V44.48C240.86 44.576 239.996 44.672 239.228 44.672C237.404 44.672 236.444 44 236.444 41.936V32.048H241.196V26.384H236.444V19.328ZM251.831 36.128C251.975 33.536 253.559 31.52 256.247 31.52C259.319 31.52 260.615 33.584 260.615 36.224V50H266.999V35.12C266.999 29.936 264.215 25.76 258.215 25.76C255.959 25.76 253.367 26.528 251.831 28.352V15.248H245.447V50H251.831V36.128ZM278.134 35.504C278.278 33.344 280.102 30.848 283.414 30.848C287.062 30.848 288.598 33.152 288.694 35.504H278.134ZM289.318 41.648C288.55 43.76 286.918 45.248 283.942 45.248C280.774 45.248 278.134 42.992 277.99 39.872H294.886C294.886 39.776 294.982 38.816 294.982 37.904C294.982 30.32 290.614 25.664 283.318 25.664C277.27 25.664 271.702 30.56 271.702 38.096C271.702 46.064 277.414 50.72 283.894 50.72C289.702 50.72 293.446 47.312 294.646 43.232L289.318 41.648ZM326.269 26.288C325.789 26.24 325.309 26.192 324.781 26.192C322.765 26.192 319.501 26.768 318.061 29.888V26.384H311.869V50H318.253V39.2C318.253 34.112 321.085 32.528 324.349 32.528C324.925 32.528 325.549 32.576 326.269 32.72V26.288ZM337.144 50V26.384H330.76V50H337.144ZM329.992 18.656C329.992 20.768 331.768 22.544 333.928 22.544C336.136 22.544 337.864 20.768 337.864 18.656C337.864 16.448 336.136 14.672 333.928 14.672C331.768 14.672 329.992 16.448 329.992 18.656ZM342.298 51.296C342.97 55.808 347.29 59.84 353.77 59.84C362.65 59.84 366.154 53.936 366.154 47.456V26.384H360.01V29.168C359.194 27.584 357.034 25.952 353.29 25.952C346.81 25.952 342.298 31.232 342.298 37.472C342.298 44.096 347.002 48.944 353.29 48.944C356.698 48.944 358.906 47.456 359.866 45.92V47.648C359.866 52.208 357.61 54.224 353.578 54.224C350.554 54.224 348.49 52.352 348.058 49.76L342.298 51.296ZM354.394 43.472C351.082 43.472 348.73 41.168 348.73 37.472C348.73 33.824 351.226 31.52 354.394 31.52C357.466 31.52 359.962 33.824 359.962 37.472C359.962 41.12 357.658 43.472 354.394 43.472ZM379.003 36.128C379.147 33.536 380.731 31.52 383.419 31.52C386.491 31.52 387.787 33.584 387.787 36.224V50H394.171V35.12C394.171 29.936 391.387 25.76 385.387 25.76C383.131 25.76 380.539 26.528 379.003 28.352V15.248H372.619V50H379.003V36.128ZM408.522 19.328H402.762V22.64C402.762 24.752 401.61 26.384 399.114 26.384H397.914V32.048H402.186V43.04C402.186 47.6 405.066 50.336 409.674 50.336C411.546 50.336 412.698 50 413.274 49.76V44.48C412.938 44.576 412.074 44.672 411.306 44.672C409.482 44.672 408.522 44 408.522 41.936V32.048H413.274V26.384H408.522V19.328ZM436.8 59.12V47.696C437.952 49.28 440.352 50.576 443.616 50.576C450.288 50.576 454.752 45.296 454.752 38.144C454.752 31.136 450.768 25.856 443.856 25.856C440.304 25.856 437.664 27.44 436.608 29.264V26.384H430.416V59.12H436.8ZM448.464 38.192C448.464 42.416 445.872 44.864 442.608 44.864C439.344 44.864 436.704 42.368 436.704 38.192C436.704 34.016 439.344 31.568 442.608 31.568C445.872 31.568 448.464 34.016 448.464 38.192ZM458.366 43.568C458.366 47.264 461.438 50.672 466.478 50.672C469.982 50.672 472.238 49.04 473.438 47.168C473.438 48.08 473.534 49.376 473.678 50H479.534C479.39 49.184 479.246 47.504 479.246 46.256V34.64C479.246 29.888 476.462 25.664 468.974 25.664C462.638 25.664 459.23 29.744 458.846 33.44L464.51 34.64C464.702 32.576 466.238 30.8 469.022 30.8C471.71 30.8 473.006 32.192 473.006 33.872C473.006 34.688 472.574 35.36 471.23 35.552L465.422 36.416C461.486 36.992 458.366 39.344 458.366 43.568ZM467.822 45.92C465.758 45.92 464.75 44.576 464.75 43.184C464.75 41.36 466.046 40.448 467.678 40.208L473.006 39.392V40.448C473.006 44.624 470.51 45.92 467.822 45.92ZM500.081 26.288C499.601 26.24 499.121 26.192 498.593 26.192C496.577 26.192 493.313 26.768 491.873 29.888V26.384H485.681V50H492.065V39.2C492.065 34.112 494.897 32.528 498.161 32.528C498.737 32.528 499.361 32.576 500.081 32.72V26.288ZM513.382 19.328H507.622V22.64C507.622 24.752 506.47 26.384 503.974 26.384H502.774V32.048H507.046V43.04C507.046 47.6 509.926 50.336 514.534 50.336C516.406 50.336 517.558 50 518.134 49.76V44.48C517.798 44.576 516.934 44.672 516.166 44.672C514.342 44.672 513.382 44 513.382 41.936V32.048H518.134V26.384H513.382V19.328ZM529.612 36.416C529.612 33.68 531.244 31.52 534.028 31.52C537.1 31.52 538.396 33.584 538.396 36.224V50H544.78V35.12C544.78 29.936 542.092 25.76 536.236 25.76C533.692 25.76 530.86 26.864 529.42 29.312V26.384H523.228V50H529.612V36.416ZM555.916 35.504C556.06 33.344 557.884 30.848 561.196 30.848C564.844 30.848 566.38 33.152 566.476 35.504H555.916ZM567.1 41.648C566.332 43.76 564.7 45.248 561.724 45.248C558.556 45.248 555.916 42.992 555.772 39.872H572.668C572.668 39.776 572.764 38.816 572.764 37.904C572.764 30.32 568.396 25.664 561.1 25.664C555.052 25.664 549.484 30.56 549.484 38.096C549.484 46.064 555.196 50.72 561.676 50.72C567.484 50.72 571.228 47.312 572.428 43.232L567.1 41.648ZM592.191 26.288C591.711 26.24 591.231 26.192 590.703 26.192C588.687 26.192 585.423 26.768 583.983 29.888V26.384H577.791V50H584.175V39.2C584.175 34.112 587.007 32.528 590.271 32.528C590.847 32.528 591.471 32.576 592.191 32.72V26.288ZM594.806 43.424C595.094 46.112 597.542 50.72 604.646 50.72C610.838 50.72 613.814 46.784 613.814 42.944C613.814 39.488 611.462 36.656 606.806 35.696L603.446 34.976C602.15 34.736 601.286 34.016 601.286 32.864C601.286 31.52 602.63 30.512 604.31 30.512C606.998 30.512 608.006 32.288 608.198 33.68L613.526 32.48C613.238 29.936 610.982 25.664 604.262 25.664C599.174 25.664 595.43 29.168 595.43 33.392C595.43 36.704 597.494 39.44 602.054 40.448L605.174 41.168C606.998 41.552 607.718 42.416 607.718 43.472C607.718 44.72 606.71 45.824 604.598 45.824C601.814 45.824 600.422 44.096 600.278 42.224L594.806 43.424ZM638.678 19.328H632.918V22.64C632.918 24.752 631.766 26.384 629.27 26.384H628.07V32.048H632.342V43.04C632.342 47.6 635.222 50.336 639.83 50.336C641.702 50.336 642.854 50 643.43 49.76V44.48C643.094 44.576 642.23 44.672 641.462 44.672C639.638 44.672 638.678 44 638.678 41.936V32.048H643.43V26.384H638.678V19.328ZM659.227 44.912C656.107 44.912 653.227 42.608 653.227 38.192C653.227 33.728 656.107 31.472 659.227 31.472C662.347 31.472 665.227 33.728 665.227 38.192C665.227 42.656 662.347 44.912 659.227 44.912ZM659.227 25.664C652.171 25.664 646.843 30.896 646.843 38.192C646.843 45.44 652.171 50.72 659.227 50.72C666.283 50.72 671.611 45.44 671.611 38.192C671.611 30.896 666.283 25.664 659.227 25.664ZM122.422 85.528C123.478 85.528 124.102 85.672 124.438 85.768V80.392C123.91 80.152 122.614 79.912 121.27 79.912C116.038 79.912 112.678 83.368 112.678 88.696V91.384H108.742V96.856H112.678V115H119.11V96.856H124.438V91.384H119.11V88.792C119.11 86.152 120.982 85.528 122.422 85.528ZM143.95 115H150.046C149.95 114.184 149.806 112.552 149.806 110.728V91.384H143.422V105.112C143.422 107.848 141.79 109.768 138.958 109.768C135.982 109.768 134.638 107.656 134.638 105.016V91.384H128.254V106.312C128.254 111.448 131.518 115.624 137.23 115.624C139.726 115.624 142.462 114.664 143.758 112.456C143.758 113.416 143.854 114.52 143.95 115ZM161.181 100.504C161.325 98.344 163.149 95.848 166.461 95.848C170.109 95.848 171.645 98.152 171.741 100.504H161.181ZM172.365 106.648C171.597 108.76 169.965 110.248 166.989 110.248C163.821 110.248 161.181 107.992 161.037 104.872H177.933C177.933 104.776 178.029 103.816 178.029 102.904C178.029 95.32 173.661 90.664 166.365 90.664C160.317 90.664 154.749 95.56 154.749 103.096C154.749 111.064 160.461 115.72 166.941 115.72C172.749 115.72 176.493 112.312 177.693 108.232L172.365 106.648ZM189.44 115V80.248H183.056V115H189.44ZM216.295 124.312L231.127 91.384H224.311L218.503 105.208L212.215 91.384H205.063L215.095 112.024L209.527 124.312H216.295ZM244.477 109.912C241.357 109.912 238.477 107.608 238.477 103.192C238.477 98.728 241.357 96.472 244.477 96.472C247.597 96.472 250.477 98.728 250.477 103.192C250.477 107.656 247.597 109.912 244.477 109.912ZM244.477 90.664C237.421 90.664 232.093 95.896 232.093 103.192C232.093 110.44 237.421 115.72 244.477 115.72C251.533 115.72 256.861 110.44 256.861 103.192C256.861 95.896 251.533 90.664 244.477 90.664ZM277.262 115H283.358C283.262 114.184 283.118 112.552 283.118 110.728V91.384H276.734V105.112C276.734 107.848 275.102 109.768 272.27 109.768C269.294 109.768 267.95 107.656 267.95 105.016V91.384H261.566V106.312C261.566 111.448 264.83 115.624 270.542 115.624C273.038 115.624 275.774 114.664 277.07 112.456C277.07 113.416 277.166 114.52 277.262 115ZM304.331 91.288C303.851 91.24 303.371 91.192 302.843 91.192C300.827 91.192 297.563 91.768 296.123 94.888V91.384H289.931V115H296.315V104.2C296.315 99.112 299.147 97.528 302.411 97.528C302.987 97.528 303.611 97.576 304.331 97.72V91.288ZM326.733 115V112.12C327.981 114.136 330.477 115.576 333.741 115.576C340.461 115.576 344.877 110.248 344.877 103.096C344.877 96.088 340.893 90.76 333.981 90.76C330.477 90.76 327.885 92.296 326.829 93.976V80.248H320.541V115H326.733ZM338.493 103.144C338.493 107.464 335.901 109.864 332.637 109.864C329.421 109.864 326.733 107.416 326.733 103.144C326.733 98.824 329.421 96.472 332.637 96.472C335.901 96.472 338.493 98.824 338.493 103.144ZM365.294 115H371.39C371.294 114.184 371.15 112.552 371.15 110.728V91.384H364.766V105.112C364.766 107.848 363.134 109.768 360.302 109.768C357.326 109.768 355.982 107.656 355.982 105.016V91.384H349.598V106.312C349.598 111.448 352.862 115.624 358.574 115.624C361.07 115.624 363.806 114.664 365.102 112.456C365.102 113.416 365.198 114.52 365.294 115ZM375.947 108.424C376.235 111.112 378.683 115.72 385.787 115.72C391.979 115.72 394.955 111.784 394.955 107.944C394.955 104.488 392.603 101.656 387.947 100.696L384.587 99.976C383.291 99.736 382.427 99.016 382.427 97.864C382.427 96.52 383.771 95.512 385.451 95.512C388.139 95.512 389.147 97.288 389.339 98.68L394.667 97.48C394.379 94.936 392.123 90.664 385.403 90.664C380.315 90.664 376.571 94.168 376.571 98.392C376.571 101.704 378.635 104.44 383.195 105.448L386.315 106.168C388.139 106.552 388.859 107.416 388.859 108.472C388.859 109.72 387.851 110.824 385.739 110.824C382.955 110.824 381.563 109.096 381.419 107.224L375.947 108.424ZM406.472 115V91.384H400.088V115H406.472ZM399.32 83.656C399.32 85.768 401.096 87.544 403.256 87.544C405.464 87.544 407.192 85.768 407.192 83.656C407.192 81.448 405.464 79.672 403.256 79.672C401.096 79.672 399.32 81.448 399.32 83.656ZM419.69 101.416C419.69 98.68 421.322 96.52 424.106 96.52C427.178 96.52 428.474 98.584 428.474 101.224V115H434.858V100.12C434.858 94.936 432.17 90.76 426.314 90.76C423.77 90.76 420.938 91.864 419.498 94.312V91.384H413.306V115H419.69V101.416ZM445.994 100.504C446.138 98.344 447.962 95.848 451.274 95.848C454.922 95.848 456.458 98.152 456.554 100.504H445.994ZM457.178 106.648C456.41 108.76 454.778 110.248 451.802 110.248C448.634 110.248 445.994 107.992 445.85 104.872H462.746C462.746 104.776 462.842 103.816 462.842 102.904C462.842 95.32 458.474 90.664 451.178 90.664C445.13 90.664 439.562 95.56 439.562 103.096C439.562 111.064 445.274 115.72 451.754 115.72C457.562 115.72 461.306 112.312 462.506 108.232L457.178 106.648ZM465.853 108.424C466.141 111.112 468.589 115.72 475.693 115.72C481.885 115.72 484.861 111.784 484.861 107.944C484.861 104.488 482.509 101.656 477.853 100.696L474.493 99.976C473.197 99.736 472.333 99.016 472.333 97.864C472.333 96.52 473.677 95.512 475.357 95.512C478.045 95.512 479.053 97.288 479.245 98.68L484.573 97.48C484.285 94.936 482.029 90.664 475.309 90.664C470.221 90.664 466.477 94.168 466.477 98.392C466.477 101.704 468.541 104.44 473.101 105.448L476.221 106.168C478.045 106.552 478.765 107.416 478.765 108.472C478.765 109.72 477.757 110.824 475.645 110.824C472.861 110.824 471.469 109.096 471.325 107.224L465.853 108.424ZM487.978 108.424C488.266 111.112 490.714 115.72 497.818 115.72C504.01 115.72 506.986 111.784 506.986 107.944C506.986 104.488 504.634 101.656 499.978 100.696L496.618 99.976C495.322 99.736 494.458 99.016 494.458 97.864C494.458 96.52 495.802 95.512 497.482 95.512C500.17 95.512 501.178 97.288 501.37 98.68L506.698 97.48C506.41 94.936 504.154 90.664 497.434 90.664C492.346 90.664 488.602 94.168 488.602 98.392C488.602 101.704 490.666 104.44 495.226 105.448L498.346 106.168C500.17 106.552 500.89 107.416 500.89 108.472C500.89 109.72 499.882 110.824 497.77 110.824C494.986 110.824 493.594 109.096 493.45 107.224L487.978 108.424ZM522.298 116.296C522.97 120.808 527.29 124.84 533.77 124.84C542.65 124.84 546.154 118.936 546.154 112.456V91.384H540.01V94.168C539.194 92.584 537.034 90.952 533.29 90.952C526.81 90.952 522.298 96.232 522.298 102.472C522.298 109.096 527.002 113.944 533.29 113.944C536.698 113.944 538.906 112.456 539.866 110.92V112.648C539.866 117.208 537.61 119.224 533.578 119.224C530.554 119.224 528.49 117.352 528.058 114.76L522.298 116.296ZM534.394 108.472C531.082 108.472 528.73 106.168 528.73 102.472C528.73 98.824 531.226 96.52 534.394 96.52C537.466 96.52 539.962 98.824 539.962 102.472C539.962 106.12 537.658 108.472 534.394 108.472ZM567.019 91.288C566.539 91.24 566.059 91.192 565.531 91.192C563.515 91.192 560.251 91.768 558.811 94.888V91.384H552.619V115H559.003V104.2C559.003 99.112 561.835 97.528 565.099 97.528C565.675 97.528 566.299 97.576 567.019 97.72V91.288ZM581.883 109.912C578.763 109.912 575.883 107.608 575.883 103.192C575.883 98.728 578.763 96.472 581.883 96.472C585.003 96.472 587.883 98.728 587.883 103.192C587.883 107.656 585.003 109.912 581.883 109.912ZM581.883 90.664C574.827 90.664 569.499 95.896 569.499 103.192C569.499 110.44 574.827 115.72 581.883 115.72C588.939 115.72 594.267 110.44 594.267 103.192C594.267 95.896 588.939 90.664 581.883 90.664ZM612.089 91.384L606.953 106.552L602.585 91.384H595.865L603.401 115H609.881L615.305 98.872L620.825 115H627.209L634.601 91.384H628.265L623.897 106.6L618.809 91.384H612.089ZM647.303 84.328H641.543V87.64C641.543 89.752 640.391 91.384 637.895 91.384H636.695V97.048H640.967V108.04C640.967 112.6 643.847 115.336 648.455 115.336C650.327 115.336 651.479 115 652.055 114.76V109.48C651.719 109.576 650.855 109.672 650.087 109.672C648.263 109.672 647.303 109 647.303 106.936V97.048H652.055V91.384H647.303V84.328ZM662.69 101.128C662.834 98.536 664.418 96.52 667.106 96.52C670.178 96.52 671.474 98.584 671.474 101.224V115H677.858V100.12C677.858 94.936 675.074 90.76 669.074 90.76C666.818 90.76 664.226 91.528 662.69 93.352V80.248H656.306V115H662.69V101.128Z" fill="white"/>
<path d="M99.0544 154.624C99.0544 156.8 100.366 158.24 102.59 158.24C104.702 158.24 105.998 156.592 105.998 154.608V146.656H104.43V154.72C104.43 156.032 103.726 156.784 102.574 156.784C101.438 156.784 100.622 156.112 100.622 154.608V153.536L99.0544 153.888V154.624ZM111.779 156.896C110.499 156.896 109.379 155.936 109.379 154.144C109.379 152.368 110.499 151.408 111.779 151.408C113.059 151.408 114.179 152.368 114.179 154.144C114.179 155.936 113.059 156.896 111.779 156.896ZM111.779 150.064C109.475 150.064 107.843 151.808 107.843 154.144C107.843 156.496 109.475 158.24 111.779 158.24C114.083 158.24 115.715 156.496 115.715 154.144C115.715 151.808 114.083 150.064 111.779 150.064ZM119.127 158V150.304H117.639V158H119.127ZM117.303 147.392C117.303 147.984 117.783 148.464 118.375 148.464C118.983 148.464 119.463 147.984 119.463 147.392C119.463 146.784 118.983 146.304 118.375 146.304C117.783 146.304 117.303 146.784 117.303 147.392ZM123.19 153.552C123.19 152.384 123.798 151.44 124.982 151.44C126.326 151.44 126.774 152.304 126.774 153.376V158H128.278V153.12C128.278 151.408 127.366 150.08 125.526 150.08C124.63 150.08 123.718 150.448 123.158 151.408V150.304H121.686V158H123.19V153.552ZM134.191 155.936C134.191 157.152 135.199 158.24 136.767 158.24C138.143 158.24 138.911 157.504 139.247 156.96C139.247 157.52 139.295 157.808 139.327 158H140.799C140.767 157.808 140.703 157.408 140.703 156.736V152.88C140.703 151.376 139.807 150.064 137.503 150.064C135.839 150.064 134.511 151.088 134.351 152.56L135.791 152.896C135.887 152 136.479 151.344 137.535 151.344C138.703 151.344 139.199 151.968 139.199 152.72C139.199 152.992 139.071 153.232 138.607 153.296L136.527 153.6C135.199 153.792 134.191 154.56 134.191 155.936ZM136.975 156.976C136.207 156.976 135.727 156.432 135.727 155.856C135.727 155.168 136.207 154.8 136.847 154.704L139.199 154.352V154.704C139.199 156.384 138.207 156.976 136.975 156.976ZM153.638 150.304H152.022L149.814 156.24L147.622 150.304H145.926L149.046 158H150.566L153.638 150.304ZM156.565 158V150.304H155.077V158H156.565ZM154.741 147.392C154.741 147.984 155.221 148.464 155.813 148.464C156.421 148.464 156.901 147.984 156.901 147.392C156.901 146.784 156.421 146.304 155.813 146.304C155.221 146.304 154.741 146.784 154.741 147.392ZM160.612 158V156.88C161.092 157.712 161.972 158.208 163.108 158.208C165.396 158.208 166.692 156.4 166.692 154.112C166.692 151.872 165.492 150.08 163.156 150.08C161.876 150.08 160.98 150.704 160.612 151.392V146.416H159.124V158H160.612ZM165.156 154.112C165.156 155.776 164.26 156.864 162.884 156.864C161.556 156.864 160.596 155.776 160.596 154.112C160.596 152.448 161.556 151.408 162.884 151.408C164.276 151.408 165.156 152.448 165.156 154.112ZM172.88 150.224C172.8 150.208 172.592 150.176 172.384 150.176C171.6 150.176 170.64 150.464 170.08 151.648V150.304H168.608V158H170.112V154.144C170.112 152.448 170.96 151.776 172.224 151.776C172.432 151.776 172.656 151.792 172.88 151.824V150.224ZM174.003 155.936C174.003 157.152 175.011 158.24 176.579 158.24C177.955 158.24 178.723 157.504 179.059 156.96C179.059 157.52 179.107 157.808 179.139 158H180.611C180.579 157.808 180.515 157.408 180.515 156.736V152.88C180.515 151.376 179.619 150.064 177.315 150.064C175.651 150.064 174.323 151.088 174.163 152.56L175.603 152.896C175.699 152 176.291 151.344 177.347 151.344C178.515 151.344 179.011 151.968 179.011 152.72C179.011 152.992 178.883 153.232 178.419 153.296L176.339 153.6C175.011 153.792 174.003 154.56 174.003 155.936ZM176.787 156.976C176.019 156.976 175.539 156.432 175.539 155.856C175.539 155.168 176.019 154.8 176.659 154.704L179.011 154.352V154.704C179.011 156.384 178.019 156.976 176.787 156.976ZM184.362 153.552C184.362 152.384 184.97 151.44 186.154 151.44C187.498 151.44 187.946 152.304 187.946 153.376V158H189.45V153.12C189.45 151.408 188.538 150.08 186.698 150.08C185.802 150.08 184.89 150.448 184.33 151.408V150.304H182.858V158H184.362V153.552ZM193.859 147.872H192.483V149.12C192.483 149.792 192.131 150.304 191.299 150.304H190.883V151.664H192.355V155.888C192.355 157.28 193.187 158.08 194.499 158.08C195.011 158.08 195.395 157.984 195.523 157.936V156.656C195.395 156.688 195.123 156.72 194.931 156.72C194.147 156.72 193.859 156.368 193.859 155.664V151.664H195.523V150.304H193.859V147.872ZM204.762 151.456C206.074 151.456 206.634 152.336 206.826 153.088L208.186 152.512C207.866 151.344 206.81 150.064 204.762 150.064C202.57 150.064 200.89 151.744 200.89 154.144C200.89 156.48 202.538 158.24 204.778 158.24C206.778 158.24 207.882 156.944 208.25 155.84L206.922 155.264C206.746 155.872 206.218 156.848 204.778 156.848C203.53 156.848 202.426 155.904 202.426 154.144C202.426 152.352 203.546 151.456 204.762 151.456ZM213.232 156.896C211.952 156.896 210.832 155.936 210.832 154.144C210.832 152.368 211.952 151.408 213.232 151.408C214.512 151.408 215.632 152.368 215.632 154.144C215.632 155.936 214.512 156.896 213.232 156.896ZM213.232 150.064C210.928 150.064 209.296 151.808 209.296 154.144C209.296 156.496 210.928 158.24 213.232 158.24C215.536 158.24 217.168 156.496 217.168 154.144C217.168 151.808 215.536 150.064 213.232 150.064ZM220.581 158V153.36C220.581 152.208 221.301 151.408 222.373 151.408C223.525 151.408 224.005 152.176 224.005 153.168V158H225.509V153.344C225.509 152.24 226.229 151.408 227.285 151.408C228.421 151.408 228.917 152.16 228.917 153.168V158H230.405V153.008C230.405 150.992 229.093 150.08 227.749 150.08C226.773 150.08 225.781 150.432 225.173 151.536C224.757 150.544 223.829 150.08 222.869 150.08C221.973 150.08 221.013 150.48 220.533 151.328V150.304H219.093V158H220.581ZM234.299 158V153.36C234.299 152.208 235.019 151.408 236.091 151.408C237.243 151.408 237.723 152.176 237.723 153.168V158H239.227V153.344C239.227 152.24 239.947 151.408 241.003 151.408C242.139 151.408 242.635 152.16 242.635 153.168V158H244.123V153.008C244.123 150.992 242.811 150.08 241.467 150.08C240.491 150.08 239.499 150.432 238.891 151.536C238.475 150.544 237.547 150.08 236.587 150.08C235.691 150.08 234.731 150.48 234.251 151.328V150.304H232.811V158H234.299ZM251.446 157.072C251.446 157.392 251.478 157.824 251.51 158H252.95C252.918 157.728 252.87 157.184 252.87 156.576V150.304H251.366V154.944C251.366 156.112 250.758 156.912 249.542 156.912C248.278 156.912 247.798 155.984 247.798 154.928V150.304H246.294V155.152C246.294 156.896 247.382 158.24 249.174 158.24C250.07 158.24 251.03 157.872 251.446 157.072ZM256.94 153.552C256.94 152.384 257.548 151.44 258.732 151.44C260.076 151.44 260.524 152.304 260.524 153.376V158H262.028V153.12C262.028 151.408 261.116 150.08 259.276 150.08C258.38 150.08 257.468 150.448 256.908 151.408V150.304H255.436V158H256.94V153.552ZM265.909 158V150.304H264.421V158H265.909ZM264.085 147.392C264.085 147.984 264.565 148.464 265.157 148.464C265.765 148.464 266.245 147.984 266.245 147.392C266.245 146.784 265.765 146.304 265.157 146.304C264.565 146.304 264.085 146.784 264.085 147.392ZM270.484 147.872H269.108V149.12C269.108 149.792 268.756 150.304 267.924 150.304H267.508V151.664H268.98V155.888C268.98 157.28 269.812 158.08 271.124 158.08C271.636 158.08 272.02 157.984 272.148 157.936V156.656C272.02 156.688 271.748 156.72 271.556 156.72C270.772 156.72 270.484 156.368 270.484 155.664V151.664H272.148V150.304H270.484V147.872ZM276.153 161.216L281.161 150.304H279.545L277.241 155.616L274.841 150.304H273.113L276.425 157.152L274.505 161.216H276.153ZM289.904 156.896C288.624 156.896 287.504 155.936 287.504 154.144C287.504 152.368 288.624 151.408 289.904 151.408C291.184 151.408 292.304 152.368 292.304 154.144C292.304 155.936 291.184 156.896 289.904 156.896ZM289.904 150.064C287.6 150.064 285.968 151.808 285.968 154.144C285.968 156.496 287.6 158.24 289.904 158.24C292.208 158.24 293.84 156.496 293.84 154.144C293.84 151.808 292.208 150.064 289.904 150.064ZM299.636 151.664V150.304H297.78V149.088C297.78 148.032 298.468 147.776 298.996 147.776C299.38 147.776 299.572 147.84 299.652 147.872V146.528C299.588 146.48 299.268 146.368 298.756 146.368C297.364 146.368 296.228 147.296 296.228 149.008V150.304H294.804V151.664H296.228V158H297.78V151.664H299.636ZM317.665 158V146.656H315.569L311.537 155.888L307.537 146.656H305.409V158H306.961V149.168L310.801 158H312.241L316.113 149.168V158H317.665ZM327.781 149.232C327.525 148 326.501 146.416 323.941 146.416C321.845 146.416 320.197 148.016 320.197 149.792C320.197 151.488 321.349 152.544 322.965 152.896L324.581 153.248C325.717 153.488 326.277 154.192 326.277 155.008C326.277 156 325.509 156.816 323.941 156.816C322.229 156.816 321.333 155.648 321.221 154.384L319.717 154.864C319.925 156.48 321.221 158.24 323.957 158.24C326.373 158.24 327.877 156.64 327.877 154.88C327.877 153.296 326.821 152.112 324.933 151.696L323.237 151.328C322.277 151.12 321.781 150.496 321.781 149.68C321.781 148.624 322.693 147.792 323.973 147.792C325.557 147.792 326.245 148.912 326.373 149.728L327.781 149.232ZM331.602 151.952V148.064H333.874C335.234 148.064 336.066 148.832 336.066 150.032C336.066 151.2 335.234 151.952 333.874 151.952H331.602ZM334.162 153.36C336.258 153.36 337.666 151.936 337.666 150.016C337.666 148.112 336.258 146.656 334.162 146.656H330.034V158H331.602V153.36H334.162ZM338.294 156C338.422 156.88 339.318 158.24 341.43 158.24C343.334 158.24 344.246 156.944 344.246 155.856C344.246 154.72 343.51 153.872 342.118 153.568L340.87 153.296C340.278 153.168 339.99 152.832 339.99 152.368C339.99 151.84 340.502 151.344 341.27 151.344C342.486 151.344 342.806 152.224 342.87 152.624L344.198 152.128C344.038 151.44 343.382 150.064 341.27 150.064C339.766 150.064 338.534 151.184 338.534 152.496C338.534 153.584 339.254 154.4 340.454 154.656L341.766 154.944C342.406 155.088 342.758 155.456 342.758 155.936C342.758 156.48 342.294 156.96 341.446 156.96C340.358 156.96 339.75 156.32 339.654 155.52L338.294 156ZM352.265 147.872H350.889V149.12C350.889 149.792 350.537 150.304 349.705 150.304H349.289V151.664H350.761V155.888C350.761 157.28 351.593 158.08 352.905 158.08C353.417 158.08 353.801 157.984 353.929 157.936V156.656C353.801 156.688 353.529 156.72 353.337 156.72C352.553 156.72 352.265 156.368 352.265 155.664V151.664H353.929V150.304H352.265V147.872ZM359.154 156.896C357.874 156.896 356.754 155.936 356.754 154.144C356.754 152.368 357.874 151.408 359.154 151.408C360.434 151.408 361.554 152.368 361.554 154.144C361.554 155.936 360.434 156.896 359.154 156.896ZM359.154 150.064C356.85 150.064 355.218 151.808 355.218 154.144C355.218 156.496 356.85 158.24 359.154 158.24C361.458 158.24 363.09 156.496 363.09 154.144C363.09 151.808 361.458 150.064 359.154 150.064ZM372.886 151.664V150.304H371.03V149.088C371.03 148.032 371.718 147.776 372.246 147.776C372.63 147.776 372.822 147.84 372.902 147.872V146.528C372.838 146.48 372.518 146.368 372.006 146.368C370.614 146.368 369.478 147.296 369.478 149.008V150.304H368.054V151.664H369.478V158H371.03V151.664H372.886ZM377.482 156.896C376.202 156.896 375.082 155.936 375.082 154.144C375.082 152.368 376.202 151.408 377.482 151.408C378.762 151.408 379.882 152.368 379.882 154.144C379.882 155.936 378.762 156.896 377.482 156.896ZM377.482 150.064C375.178 150.064 373.546 151.808 373.546 154.144C373.546 156.496 375.178 158.24 377.482 158.24C379.786 158.24 381.418 156.496 381.418 154.144C381.418 151.808 379.786 150.064 377.482 150.064ZM387.615 150.224C387.535 150.208 387.327 150.176 387.119 150.176C386.335 150.176 385.375 150.464 384.815 151.648V150.304H383.343V158H384.847V154.144C384.847 152.448 385.695 151.776 386.959 151.776C387.167 151.776 387.391 151.792 387.615 151.824V150.224ZM388.579 158.416C388.771 160.064 390.211 161.28 392.131 161.28C395.027 161.28 395.987 159.376 395.987 157.424V150.304H394.499V151.376C394.115 150.608 393.315 150.16 392.131 150.16C390.019 150.16 388.595 151.824 388.595 153.904C388.595 156.08 390.083 157.632 392.131 157.632C393.283 157.632 394.115 157.072 394.483 156.368V157.472C394.483 159.136 393.747 159.968 392.131 159.968C390.963 159.968 390.147 159.152 390.035 158.08L388.579 158.416ZM392.355 156.368C390.995 156.368 390.131 155.408 390.131 153.904C390.131 152.416 391.027 151.44 392.355 151.44C393.651 151.44 394.547 152.416 394.547 153.904C394.547 155.392 393.651 156.368 392.355 156.368ZM399.365 153.36C399.429 152.368 400.197 151.392 401.461 151.392C402.821 151.392 403.541 152.256 403.573 153.36H399.365ZM403.797 155.36C403.509 156.224 402.885 156.912 401.637 156.912C400.341 156.912 399.349 155.952 399.317 154.576H405.109C405.125 154.48 405.141 154.288 405.141 154.096C405.141 151.696 403.813 150.064 401.445 150.064C399.509 150.064 397.765 151.712 397.765 154.128C397.765 156.736 399.573 158.24 401.637 158.24C403.429 158.24 404.661 157.168 405.093 155.808L403.797 155.36ZM412.565 158V146.416H411.061V158H412.565ZM418.42 156.896C417.14 156.896 416.02 155.936 416.02 154.144C416.02 152.368 417.14 151.408 418.42 151.408C419.7 151.408 420.82 152.368 420.82 154.144C420.82 155.936 419.7 156.896 418.42 156.896ZM418.42 150.064C416.116 150.064 414.484 151.808 414.484 154.144C414.484 156.496 416.116 158.24 418.42 158.24C420.724 158.24 422.356 156.496 422.356 154.144C422.356 151.808 420.724 150.064 418.42 150.064ZM425.784 153.552C425.784 152.384 426.392 151.44 427.576 151.44C428.92 151.44 429.368 152.304 429.368 153.376V158H430.872V153.12C430.872 151.408 429.96 150.08 428.12 150.08C427.224 150.08 426.312 150.448 425.752 151.408V150.304H424.28V158H425.784V153.552ZM432.704 158.416C432.896 160.064 434.336 161.28 436.256 161.28C439.152 161.28 440.112 159.376 440.112 157.424V150.304H438.624V151.376C438.24 150.608 437.44 150.16 436.256 150.16C434.144 150.16 432.72 151.824 432.72 153.904C432.72 156.08 434.208 157.632 436.256 157.632C437.408 157.632 438.24 157.072 438.608 156.368V157.472C438.608 159.136 437.872 159.968 436.256 159.968C435.088 159.968 434.272 159.152 434.16 158.08L432.704 158.416ZM436.48 156.368C435.12 156.368 434.256 155.408 434.256 153.904C434.256 152.416 435.152 151.44 436.48 151.44C437.776 151.44 438.672 152.416 438.672 153.904C438.672 155.392 437.776 156.368 436.48 156.368ZM446.29 154.064V152.752H441.954V154.064H446.29ZM449.8 158V146.416H448.296V158H449.8ZM451.878 155.936C451.878 157.152 452.886 158.24 454.454 158.24C455.83 158.24 456.598 157.504 456.934 156.96C456.934 157.52 456.982 157.808 457.014 158H458.486C458.454 157.808 458.39 157.408 458.39 156.736V152.88C458.39 151.376 457.494 150.064 455.19 150.064C453.526 150.064 452.198 151.088 452.038 152.56L453.478 152.896C453.574 152 454.166 151.344 455.222 151.344C456.39 151.344 456.886 151.968 456.886 152.72C456.886 152.992 456.758 153.232 456.294 153.296L454.214 153.6C452.886 153.792 451.878 154.56 451.878 155.936ZM454.662 156.976C453.894 156.976 453.414 156.432 453.414 155.856C453.414 155.168 453.894 154.8 454.534 154.704L456.886 154.352V154.704C456.886 156.384 455.894 156.976 454.662 156.976ZM460.013 156C460.141 156.88 461.037 158.24 463.149 158.24C465.053 158.24 465.965 156.944 465.965 155.856C465.965 154.72 465.229 153.872 463.837 153.568L462.589 153.296C461.997 153.168 461.709 152.832 461.709 152.368C461.709 151.84 462.221 151.344 462.989 151.344C464.205 151.344 464.525 152.224 464.589 152.624L465.917 152.128C465.757 151.44 465.101 150.064 462.989 150.064C461.485 150.064 460.253 151.184 460.253 152.496C460.253 153.584 460.973 154.4 462.173 154.656L463.485 154.944C464.125 155.088 464.477 155.456 464.477 155.936C464.477 156.48 464.013 156.96 463.165 156.96C462.077 156.96 461.469 156.32 461.373 155.52L460.013 156ZM469.984 147.872H468.608V149.12C468.608 149.792 468.256 150.304 467.424 150.304H467.008V151.664H468.48V155.888C468.48 157.28 469.312 158.08 470.624 158.08C471.136 158.08 471.52 157.984 471.648 157.936V156.656C471.52 156.688 471.248 156.72 471.056 156.72C470.272 156.72 469.984 156.368 469.984 155.664V151.664H471.648V150.304H469.984V147.872ZM475.143 158V150.304H473.655V158H475.143ZM473.319 147.392C473.319 147.984 473.799 148.464 474.391 148.464C474.999 148.464 475.479 147.984 475.479 147.392C475.479 146.784 474.999 146.304 474.391 146.304C473.799 146.304 473.319 146.784 473.319 147.392ZM479.206 153.552C479.206 152.384 479.814 151.44 480.998 151.44C482.342 151.44 482.79 152.304 482.79 153.376V158H484.294V153.12C484.294 151.408 483.382 150.08 481.542 150.08C480.646 150.08 479.734 150.448 479.174 151.408V150.304H477.702V158H479.206V153.552ZM486.126 158.416C486.318 160.064 487.758 161.28 489.678 161.28C492.574 161.28 493.534 159.376 493.534 157.424V150.304H492.046V151.376C491.662 150.608 490.862 150.16 489.678 150.16C487.566 150.16 486.142 151.824 486.142 153.904C486.142 156.08 487.63 157.632 489.678 157.632C490.83 157.632 491.662 157.072 492.03 156.368V157.472C492.03 159.136 491.294 159.968 489.678 159.968C488.51 159.968 487.694 159.152 487.582 158.08L486.126 158.416ZM489.902 156.368C488.542 156.368 487.678 155.408 487.678 153.904C487.678 152.416 488.574 151.44 489.902 151.44C491.198 151.44 492.094 152.416 492.094 153.904C492.094 155.392 491.198 156.368 489.902 156.368ZM504.208 150.224C504.128 150.208 503.92 150.176 503.712 150.176C502.928 150.176 501.968 150.464 501.408 151.648V150.304H499.936V158H501.44V154.144C501.44 152.448 502.288 151.776 503.552 151.776C503.76 151.776 503.984 151.792 504.208 151.824V150.224ZM506.709 153.36C506.773 152.368 507.541 151.392 508.805 151.392C510.165 151.392 510.885 152.256 510.917 153.36H506.709ZM511.141 155.36C510.853 156.224 510.229 156.912 508.981 156.912C507.685 156.912 506.693 155.952 506.661 154.576H512.453C512.469 154.48 512.485 154.288 512.485 154.096C512.485 151.696 511.157 150.064 508.789 150.064C506.853 150.064 505.109 151.712 505.109 154.128C505.109 156.736 506.917 158.24 508.981 158.24C510.773 158.24 512.005 157.168 512.437 155.808L511.141 155.36ZM515.909 158V146.416H514.405V158H515.909ZM517.988 155.936C517.988 157.152 518.996 158.24 520.564 158.24C521.94 158.24 522.708 157.504 523.044 156.96C523.044 157.52 523.092 157.808 523.124 158H524.596C524.564 157.808 524.5 157.408 524.5 156.736V152.88C524.5 151.376 523.604 150.064 521.299 150.064C519.636 150.064 518.308 151.088 518.148 152.56L519.588 152.896C519.684 152 520.276 151.344 521.332 151.344C522.5 151.344 522.996 151.968 522.996 152.72C522.996 152.992 522.868 153.232 522.404 153.296L520.324 153.6C518.996 153.792 517.988 154.56 517.988 155.936ZM520.772 156.976C520.004 156.976 519.524 156.432 519.524 155.856C519.524 155.168 520.004 154.8 520.644 154.704L522.996 154.352V154.704C522.996 156.384 522.004 156.976 520.772 156.976ZM528.859 147.872H527.483V149.12C527.483 149.792 527.131 150.304 526.299 150.304H525.883V151.664H527.355V155.888C527.355 157.28 528.187 158.08 529.499 158.08C530.011 158.08 530.395 157.984 530.523 157.936V156.656C530.395 156.688 530.123 156.72 529.931 156.72C529.147 156.72 528.859 156.368 528.859 155.664V151.664H530.523V150.304H528.859V147.872ZM534.018 158V150.304H532.53V158H534.018ZM532.194 147.392C532.194 147.984 532.674 148.464 533.266 148.464C533.874 148.464 534.354 147.984 534.354 147.392C534.354 146.784 533.874 146.304 533.266 146.304C532.674 146.304 532.194 146.784 532.194 147.392ZM539.873 156.896C538.593 156.896 537.473 155.936 537.473 154.144C537.473 152.368 538.593 151.408 539.873 151.408C541.153 151.408 542.273 152.368 542.273 154.144C542.273 155.936 541.153 156.896 539.873 156.896ZM539.873 150.064C537.569 150.064 535.937 151.808 535.937 154.144C535.937 156.496 537.569 158.24 539.873 158.24C542.177 158.24 543.809 156.496 543.809 154.144C543.809 151.808 542.177 150.064 539.873 150.064ZM547.237 153.552C547.237 152.384 547.845 151.44 549.029 151.44C550.373 151.44 550.821 152.304 550.821 153.376V158H552.325V153.12C552.325 151.408 551.413 150.08 549.573 150.08C548.677 150.08 547.765 150.448 547.205 151.408V150.304H545.733V158H547.237V153.552ZM553.998 156C554.126 156.88 555.022 158.24 557.134 158.24C559.038 158.24 559.95 156.944 559.95 155.856C559.95 154.72 559.214 153.872 557.822 153.568L556.574 153.296C555.982 153.168 555.694 152.832 555.694 152.368C555.694 151.84 556.206 151.344 556.974 151.344C558.19 151.344 558.51 152.224 558.574 152.624L559.902 152.128C559.742 151.44 559.086 150.064 556.974 150.064C555.47 150.064 554.238 151.184 554.238 152.496C554.238 153.584 554.958 154.4 556.158 154.656L557.47 154.944C558.11 155.088 558.462 155.456 558.462 155.936C558.462 156.48 557.998 156.96 557.15 156.96C556.062 156.96 555.454 156.32 555.358 155.52L553.998 156ZM563.456 153.472C563.488 152.336 564.096 151.44 565.248 151.44C566.592 151.44 567.04 152.304 567.04 153.376V158H568.544V153.12C568.544 151.408 567.632 150.08 565.792 150.08C564.912 150.08 564.016 150.384 563.456 151.2V146.416H561.952V158H563.456V153.472ZM572.424 158V150.304H570.936V158H572.424ZM570.6 147.392C570.6 147.984 571.08 148.464 571.672 148.464C572.28 148.464 572.76 147.984 572.76 147.392C572.76 146.784 572.28 146.304 571.672 146.304C571.08 146.304 570.6 146.784 570.6 147.392ZM576.471 161.04V156.96C576.887 157.648 577.783 158.208 578.967 158.208C581.223 158.208 582.551 156.432 582.551 154.144C582.551 151.904 581.319 150.128 579.015 150.128C577.767 150.128 576.855 150.736 576.439 151.504V150.304H574.983V161.04H576.471ZM581.015 154.144C581.015 155.728 580.135 156.864 578.743 156.864C577.367 156.864 576.455 155.728 576.455 154.144C576.455 152.608 577.367 151.456 578.743 151.456C580.151 151.456 581.015 152.608 581.015 154.144ZM583.748 156C583.876 156.88 584.772 158.24 586.884 158.24C588.788 158.24 589.7 156.944 589.7 155.856C589.7 154.72 588.964 153.872 587.572 153.568L586.324 153.296C585.732 153.168 585.444 152.832 585.444 152.368C585.444 151.84 585.956 151.344 586.724 151.344C587.94 151.344 588.26 152.224 588.324 152.624L589.652 152.128C589.492 151.44 588.836 150.064 586.724 150.064C585.22 150.064 583.988 151.184 583.988 152.496C583.988 153.584 584.708 154.4 585.908 154.656L587.22 154.944C587.86 155.088 588.212 155.456 588.212 155.936C588.212 156.48 587.748 156.96 586.9 156.96C585.812 156.96 585.204 156.32 585.108 155.52L583.748 156ZM600.038 150.304L598.038 156.096L596.31 150.304H594.662L597.19 158H598.774L600.774 152.144L602.822 158H604.374L606.87 150.304H605.286L603.59 156.096L601.59 150.304H600.038ZM609.877 158V150.304H608.389V158H609.877ZM608.053 147.392C608.053 147.984 608.533 148.464 609.125 148.464C609.733 148.464 610.213 147.984 610.213 147.392C610.213 146.784 609.733 146.304 609.125 146.304C608.533 146.304 608.053 146.784 608.053 147.392ZM614.452 147.872H613.076V149.12C613.076 149.792 612.724 150.304 611.892 150.304H611.476V151.664H612.948V155.888C612.948 157.28 613.78 158.08 615.092 158.08C615.604 158.08 615.988 157.984 616.116 157.936V156.656C615.988 156.688 615.716 156.72 615.524 156.72C614.74 156.72 614.452 156.368 614.452 155.664V151.664H616.116V150.304H614.452V147.872ZM619.628 153.472C619.66 152.336 620.268 151.44 621.42 151.44C622.764 151.44 623.212 152.304 623.212 153.376V158H624.716V153.12C624.716 151.408 623.804 150.08 621.964 150.08C621.084 150.08 620.188 150.384 619.628 151.2V146.416H618.124V158H619.628V153.472ZM632.596 161.04V156.96C633.012 157.648 633.908 158.208 635.092 158.208C637.348 158.208 638.676 156.432 638.676 154.144C638.676 151.904 637.444 150.128 635.14 150.128C633.892 150.128 632.98 150.736 632.564 151.504V150.304H631.108V161.04H632.596ZM637.14 154.144C637.14 155.728 636.26 156.864 634.868 156.864C633.492 156.864 632.58 155.728 632.58 154.144C632.58 152.608 633.492 151.456 634.868 151.456C636.276 151.456 637.14 152.608 637.14 154.144ZM640.113 155.936C640.113 157.152 641.121 158.24 642.689 158.24C644.065 158.24 644.833 157.504 645.169 156.96C645.169 157.52 645.217 157.808 645.249 158H646.721C646.689 157.808 646.625 157.408 646.625 156.736V152.88C646.625 151.376 645.729 150.064 643.424 150.064C641.761 150.064 640.433 151.088 640.273 152.56L641.713 152.896C641.809 152 642.401 151.344 643.457 151.344C644.625 151.344 645.121 151.968 645.121 152.72C645.121 152.992 644.993 153.232 644.529 153.296L642.449 153.6C641.121 153.792 640.113 154.56 640.113 155.936ZM642.897 156.976C642.129 156.976 641.649 156.432 641.649 155.856C641.649 155.168 642.129 154.8 642.769 154.704L645.121 154.352V154.704C645.121 156.384 644.129 156.976 642.897 156.976ZM653.24 150.224C653.16 150.208 652.952 150.176 652.744 150.176C651.96 150.176 651 150.464 650.44 151.648V150.304H648.968V158H650.472V154.144C650.472 152.448 651.32 151.776 652.584 151.776C652.792 151.776 653.016 151.792 653.24 151.824V150.224ZM657.265 147.872H655.889V149.12C655.889 149.792 655.537 150.304 654.705 150.304H654.289V151.664H655.761V155.888C655.761 157.28 656.593 158.08 657.905 158.08C658.417 158.08 658.801 157.984 658.929 157.936V156.656C658.801 156.688 658.529 156.72 658.337 156.72C657.553 156.72 657.265 156.368 657.265 155.664V151.664H658.929V150.304H657.265V147.872ZM662.284 153.552C662.284 152.384 662.892 151.44 664.076 151.44C665.42 151.44 665.868 152.304 665.868 153.376V158H667.372V153.12C667.372 151.408 666.46 150.08 664.62 150.08C663.724 150.08 662.812 150.448 662.252 151.408V150.304H660.78V158H662.284V153.552ZM670.74 153.36C670.804 152.368 671.572 151.392 672.836 151.392C674.196 151.392 674.916 152.256 674.948 153.36H670.74ZM675.172 155.36C674.884 156.224 674.26 156.912 673.012 156.912C671.716 156.912 670.724 155.952 670.692 154.576H676.484C676.5 154.48 676.516 154.288 676.516 154.096C676.516 151.696 675.188 150.064 672.82 150.064C670.884 150.064 669.14 151.712 669.14 154.128C669.14 156.736 670.948 158.24 673.012 158.24C674.804 158.24 676.036 157.168 676.468 155.808L675.172 155.36ZM682.708 150.224C682.628 150.208 682.42 150.176 682.212 150.176C681.428 150.176 680.468 150.464 679.908 151.648V150.304H678.436V158H679.94V154.144C679.94 152.448 680.788 151.776 682.052 151.776C682.26 151.776 682.484 151.792 682.708 151.824V150.224ZM683.591 156C683.719 156.88 684.615 158.24 686.727 158.24C688.631 158.24 689.543 156.944 689.543 155.856C689.543 154.72 688.807 153.872 687.415 153.568L686.167 153.296C685.575 153.168 685.287 152.832 685.287 152.368C685.287 151.84 685.799 151.344 686.567 151.344C687.783 151.344 688.103 152.224 688.167 152.624L689.495 152.128C689.335 151.44 688.679 150.064 686.567 150.064C685.063 150.064 683.831 151.184 683.831 152.496C683.831 153.584 684.551 154.4 685.751 154.656L687.063 154.944C687.703 155.088 688.055 155.456 688.055 155.936C688.055 156.48 687.591 156.96 686.743 156.96C685.655 156.96 685.047 156.32 684.951 155.52L683.591 156ZM210.382 177.872H209.006V179.12C209.006 179.792 208.654 180.304 207.822 180.304H207.406V181.664H208.878V185.888C208.878 187.28 209.71 188.08 211.022 188.08C211.534 188.08 211.918 187.984 212.046 187.936V186.656C211.918 186.688 211.646 186.72 211.454 186.72C210.67 186.72 210.382 186.368 210.382 185.664V181.664H212.046V180.304H210.382V177.872ZM215.557 183.472C215.589 182.336 216.197 181.44 217.349 181.44C218.693 181.44 219.141 182.304 219.141 183.376V188H220.645V183.12C220.645 181.408 219.733 180.08 217.893 180.08C217.013 180.08 216.117 180.384 215.557 181.2V176.416H214.053V188H215.557V183.472ZM222.558 185.936C222.558 187.152 223.566 188.24 225.134 188.24C226.51 188.24 227.278 187.504 227.614 186.96C227.614 187.52 227.662 187.808 227.694 188H229.166C229.134 187.808 229.07 187.408 229.07 186.736V182.88C229.07 181.376 228.174 180.064 225.87 180.064C224.206 180.064 222.878 181.088 222.718 182.56L224.158 182.896C224.254 182 224.846 181.344 225.902 181.344C227.07 181.344 227.566 181.968 227.566 182.72C227.566 182.992 227.438 183.232 226.974 183.296L224.894 183.6C223.566 183.792 222.558 184.56 222.558 185.936ZM225.342 186.976C224.574 186.976 224.094 186.432 224.094 185.856C224.094 185.168 224.574 184.8 225.214 184.704L227.566 184.352V184.704C227.566 186.384 226.574 186.976 225.342 186.976ZM233.429 177.872H232.053V179.12C232.053 179.792 231.701 180.304 230.869 180.304H230.453V181.664H231.925V185.888C231.925 187.28 232.757 188.08 234.069 188.08C234.581 188.08 234.965 187.984 235.093 187.936V186.656C234.965 186.688 234.693 186.72 234.501 186.72C233.717 186.72 233.429 186.368 233.429 185.664V181.664H235.093V180.304H233.429V177.872ZM242.604 183.472C242.636 182.336 243.244 181.44 244.396 181.44C245.74 181.44 246.188 182.304 246.188 183.376V188H247.692V183.12C247.692 181.408 246.78 180.08 244.94 180.08C244.06 180.08 243.164 180.384 242.604 181.2V176.416H241.1V188H242.604V183.472ZM251.061 183.36C251.125 182.368 251.893 181.392 253.157 181.392C254.517 181.392 255.237 182.256 255.269 183.36H251.061ZM255.493 185.36C255.205 186.224 254.581 186.912 253.333 186.912C252.037 186.912 251.045 185.952 251.013 184.576H256.805C256.821 184.48 256.837 184.288 256.837 184.096C256.837 181.696 255.509 180.064 253.141 180.064C251.205 180.064 249.461 181.712 249.461 184.128C249.461 186.736 251.269 188.24 253.333 188.24C255.125 188.24 256.357 187.168 256.789 185.808L255.493 185.36ZM260.261 188V176.416H258.757V188H260.261ZM264.307 191.04V186.96C264.723 187.648 265.619 188.208 266.803 188.208C269.059 188.208 270.387 186.432 270.387 184.144C270.387 181.904 269.155 180.128 266.851 180.128C265.603 180.128 264.691 180.736 264.275 181.504V180.304H262.819V191.04H264.307ZM268.851 184.144C268.851 185.728 267.971 186.864 266.579 186.864C265.203 186.864 264.291 185.728 264.291 184.144C264.291 182.608 265.203 181.456 266.579 181.456C267.987 181.456 268.851 182.608 268.851 184.144ZM278.223 191.216L283.231 180.304H281.615L279.311 185.616L276.911 180.304H275.183L278.495 187.152L276.575 191.216H278.223ZM287.662 186.896C286.382 186.896 285.262 185.936 285.262 184.144C285.262 182.368 286.382 181.408 287.662 181.408C288.942 181.408 290.062 182.368 290.062 184.144C290.062 185.936 288.942 186.896 287.662 186.896ZM287.662 180.064C285.358 180.064 283.726 181.808 283.726 184.144C283.726 186.496 285.358 188.24 287.662 188.24C289.966 188.24 291.598 186.496 291.598 184.144C291.598 181.808 289.966 180.064 287.662 180.064ZM298.516 187.072C298.516 187.392 298.548 187.824 298.58 188H300.02C299.988 187.728 299.94 187.184 299.94 186.576V180.304H298.436V184.944C298.436 186.112 297.828 186.912 296.612 186.912C295.348 186.912 294.868 185.984 294.868 184.928V180.304H293.364V185.152C293.364 186.896 294.452 188.24 296.244 188.24C297.14 188.24 298.1 187.872 298.516 187.072ZM309.739 181.456C311.051 181.456 311.611 182.336 311.803 183.088L313.163 182.512C312.843 181.344 311.787 180.064 309.739 180.064C307.547 180.064 305.867 181.744 305.867 184.144C305.867 186.48 307.515 188.24 309.755 188.24C311.755 188.24 312.859 186.944 313.227 185.84L311.899 185.264C311.723 185.872 311.195 186.848 309.755 186.848C308.507 186.848 307.403 185.904 307.403 184.144C307.403 182.352 308.523 181.456 309.739 181.456ZM319.263 180.224C319.183 180.208 318.975 180.176 318.767 180.176C317.983 180.176 317.023 180.464 316.463 181.648V180.304H314.991V188H316.495V184.144C316.495 182.448 317.343 181.776 318.607 181.776C318.815 181.776 319.039 181.792 319.263 181.824V180.224ZM321.764 183.36C321.828 182.368 322.596 181.392 323.86 181.392C325.22 181.392 325.94 182.256 325.972 183.36H321.764ZM326.196 185.36C325.908 186.224 325.284 186.912 324.036 186.912C322.74 186.912 321.748 185.952 321.716 184.576H327.508C327.524 184.48 327.54 184.288 327.54 184.096C327.54 181.696 326.212 180.064 323.844 180.064C321.908 180.064 320.164 181.712 320.164 184.128C320.164 186.736 321.972 188.24 324.036 188.24C325.828 188.24 327.06 187.168 327.492 185.808L326.196 185.36ZM328.98 185.936C328.98 187.152 329.988 188.24 331.556 188.24C332.932 188.24 333.7 187.504 334.036 186.96C334.036 187.52 334.084 187.808 334.116 188H335.588C335.556 187.808 335.492 187.408 335.492 186.736V182.88C335.492 181.376 334.596 180.064 332.292 180.064C330.628 180.064 329.3 181.088 329.14 182.56L330.58 182.896C330.676 182 331.268 181.344 332.324 181.344C333.492 181.344 333.988 181.968 333.988 182.72C333.988 182.992 333.86 183.232 333.396 183.296L331.316 183.6C329.988 183.792 328.98 184.56 328.98 185.936ZM331.764 186.976C330.996 186.976 330.516 186.432 330.516 185.856C330.516 185.168 330.996 184.8 331.636 184.704L333.988 184.352V184.704C333.988 186.384 332.996 186.976 331.764 186.976ZM339.851 177.872H338.475V179.12C338.475 179.792 338.123 180.304 337.291 180.304H336.875V181.664H338.347V185.888C338.347 187.28 339.179 188.08 340.491 188.08C341.003 188.08 341.387 187.984 341.515 187.936V186.656C341.387 186.688 341.115 186.72 340.923 186.72C340.139 186.72 339.851 186.368 339.851 185.664V181.664H341.515V180.304H339.851V177.872ZM344.42 183.36C344.484 182.368 345.252 181.392 346.516 181.392C347.876 181.392 348.596 182.256 348.628 183.36H344.42ZM348.852 185.36C348.564 186.224 347.94 186.912 346.692 186.912C345.396 186.912 344.404 185.952 344.372 184.576H350.164C350.18 184.48 350.196 184.288 350.196 184.096C350.196 181.696 348.868 180.064 346.5 180.064C344.564 180.064 342.82 181.712 342.82 184.128C342.82 186.736 344.628 188.24 346.692 188.24C348.484 188.24 349.716 187.168 350.148 185.808L348.852 185.36ZM357.092 183.36C357.156 182.368 357.924 181.392 359.188 181.392C360.548 181.392 361.268 182.256 361.3 183.36H357.092ZM361.524 185.36C361.236 186.224 360.612 186.912 359.364 186.912C358.068 186.912 357.076 185.952 357.044 184.576H362.836C362.852 184.48 362.868 184.288 362.868 184.096C362.868 181.696 361.54 180.064 359.172 180.064C357.236 180.064 355.492 181.712 355.492 184.128C355.492 186.736 357.3 188.24 359.364 188.24C361.156 188.24 362.388 187.168 362.82 185.808L361.524 185.36ZM363.59 188H365.382L367.334 185.168L369.318 188H371.126C370.662 187.376 368.758 184.704 368.294 184.08L371.03 180.304H369.254L367.398 183.008L365.51 180.304H363.686L366.454 184.08L363.59 188ZM375.645 181.456C376.957 181.456 377.517 182.336 377.709 183.088L379.069 182.512C378.749 181.344 377.693 180.064 375.645 180.064C373.453 180.064 371.773 181.744 371.773 184.144C371.773 186.48 373.421 188.24 375.661 188.24C377.661 188.24 378.765 186.944 379.133 185.84L377.805 185.264C377.629 185.872 377.101 186.848 375.661 186.848C374.413 186.848 373.309 185.904 373.309 184.144C373.309 182.352 374.429 181.456 375.645 181.456ZM381.795 183.36C381.859 182.368 382.627 181.392 383.891 181.392C385.251 181.392 385.971 182.256 386.003 183.36H381.795ZM386.227 185.36C385.939 186.224 385.315 186.912 384.067 186.912C382.771 186.912 381.779 185.952 381.747 184.576H387.539C387.555 184.48 387.571 184.288 387.571 184.096C387.571 181.696 386.243 180.064 383.875 180.064C381.939 180.064 380.195 181.712 380.195 184.128C380.195 186.736 382.003 188.24 384.067 188.24C385.859 188.24 387.091 187.168 387.523 185.808L386.227 185.36ZM390.995 188V176.416H389.491V188H390.995ZM395.057 188V176.416H393.553V188H395.057ZM398.592 183.36C398.656 182.368 399.424 181.392 400.688 181.392C402.048 181.392 402.768 182.256 402.8 183.36H398.592ZM403.024 185.36C402.736 186.224 402.112 186.912 400.864 186.912C399.568 186.912 398.576 185.952 398.544 184.576H404.336C404.352 184.48 404.368 184.288 404.368 184.096C404.368 181.696 403.04 180.064 400.672 180.064C398.736 180.064 396.992 181.712 396.992 184.128C396.992 186.736 398.8 188.24 400.864 188.24C402.656 188.24 403.888 187.168 404.32 185.808L403.024 185.36ZM407.792 183.552C407.792 182.384 408.4 181.44 409.584 181.44C410.928 181.44 411.376 182.304 411.376 183.376V188H412.88V183.12C412.88 181.408 411.968 180.08 410.128 180.08C409.232 180.08 408.32 180.448 407.76 181.408V180.304H406.288V188H407.792V183.552ZM417.288 177.872H415.912V179.12C415.912 179.792 415.56 180.304 414.728 180.304H414.312V181.664H415.784V185.888C415.784 187.28 416.616 188.08 417.928 188.08C418.44 188.08 418.824 187.984 418.952 187.936V186.656C418.824 186.688 418.552 186.72 418.36 186.72C417.576 186.72 417.288 186.368 417.288 185.664V181.664H418.952V180.304H417.288V177.872ZM428.192 181.456C429.504 181.456 430.064 182.336 430.256 183.088L431.616 182.512C431.296 181.344 430.24 180.064 428.192 180.064C426 180.064 424.32 181.744 424.32 184.144C424.32 186.48 425.968 188.24 428.208 188.24C430.208 188.24 431.312 186.944 431.68 185.84L430.352 185.264C430.176 185.872 429.648 186.848 428.208 186.848C426.96 186.848 425.856 185.904 425.856 184.144C425.856 182.352 426.976 181.456 428.192 181.456ZM438.438 187.072C438.438 187.392 438.47 187.824 438.502 188H439.942C439.91 187.728 439.862 187.184 439.862 186.576V180.304H438.358V184.944C438.358 186.112 437.75 186.912 436.534 186.912C435.27 186.912 434.79 185.984 434.79 184.928V180.304H433.286V185.152C433.286 186.896 434.374 188.24 436.166 188.24C437.062 188.24 438.022 187.872 438.438 187.072ZM441.708 186C441.836 186.88 442.732 188.24 444.844 188.24C446.748 188.24 447.66 186.944 447.66 185.856C447.66 184.72 446.924 183.872 445.532 183.568L444.284 183.296C443.692 183.168 443.404 182.832 443.404 182.368C443.404 181.84 443.916 181.344 444.684 181.344C445.9 181.344 446.22 182.224 446.284 182.624L447.612 182.128C447.452 181.44 446.796 180.064 444.684 180.064C443.18 180.064 441.948 181.184 441.948 182.496C441.948 183.584 442.668 184.4 443.868 184.656L445.18 184.944C445.82 185.088 446.172 185.456 446.172 185.936C446.172 186.48 445.708 186.96 444.86 186.96C443.772 186.96 443.164 186.32 443.068 185.52L441.708 186ZM451.679 177.872H450.303V179.12C450.303 179.792 449.951 180.304 449.119 180.304H448.703V181.664H450.175V185.888C450.175 187.28 451.007 188.08 452.319 188.08C452.831 188.08 453.215 187.984 453.343 187.936V186.656C453.215 186.688 452.943 186.72 452.751 186.72C451.967 186.72 451.679 186.368 451.679 185.664V181.664H453.343V180.304H451.679V177.872ZM458.568 186.896C457.288 186.896 456.168 185.936 456.168 184.144C456.168 182.368 457.288 181.408 458.568 181.408C459.848 181.408 460.968 182.368 460.968 184.144C460.968 185.936 459.848 186.896 458.568 186.896ZM458.568 180.064C456.264 180.064 454.632 181.808 454.632 184.144C454.632 186.496 456.264 188.24 458.568 188.24C460.872 188.24 462.504 186.496 462.504 184.144C462.504 181.808 460.872 180.064 458.568 180.064ZM465.916 188V183.36C465.916 182.208 466.636 181.408 467.708 181.408C468.86 181.408 469.34 182.176 469.34 183.168V188H470.844V183.344C470.844 182.24 471.564 181.408 472.62 181.408C473.756 181.408 474.252 182.16 474.252 183.168V188H475.74V183.008C475.74 180.992 474.428 180.08 473.084 180.08C472.108 180.08 471.116 180.432 470.508 181.536C470.092 180.544 469.164 180.08 468.204 180.08C467.308 180.08 466.348 180.48 465.868 181.328V180.304H464.428V188H465.916ZM479.123 183.36C479.187 182.368 479.955 181.392 481.219 181.392C482.579 181.392 483.299 182.256 483.331 183.36H479.123ZM483.555 185.36C483.267 186.224 482.643 186.912 481.395 186.912C480.099 186.912 479.107 185.952 479.075 184.576H484.867C484.883 184.48 484.899 184.288 484.899 184.096C484.899 181.696 483.571 180.064 481.203 180.064C479.267 180.064 477.523 181.712 477.523 184.128C477.523 186.736 479.331 188.24 481.395 188.24C483.187 188.24 484.419 187.168 484.851 185.808L483.555 185.36ZM491.091 180.224C491.011 180.208 490.803 180.176 490.595 180.176C489.811 180.176 488.851 180.464 488.291 181.648V180.304H486.819V188H488.323V184.144C488.323 182.448 489.171 181.776 490.435 181.776C490.643 181.776 490.867 181.792 491.091 181.824V180.224ZM497.67 183.36C497.734 182.368 498.502 181.392 499.766 181.392C501.126 181.392 501.846 182.256 501.878 183.36H497.67ZM502.102 185.36C501.814 186.224 501.19 186.912 499.942 186.912C498.646 186.912 497.654 185.952 497.622 184.576H503.414C503.43 184.48 503.446 184.288 503.446 184.096C503.446 181.696 502.118 180.064 499.75 180.064C497.814 180.064 496.07 181.712 496.07 184.128C496.07 186.736 497.878 188.24 499.942 188.24C501.734 188.24 502.966 187.168 503.398 185.808L502.102 185.36ZM504.168 188H505.96L507.912 185.168L509.896 188H511.704C511.24 187.376 509.336 184.704 508.872 184.08L511.608 180.304H509.832L507.976 183.008L506.088 180.304H504.264L507.032 184.08L504.168 188ZM514.635 191.04V186.96C515.051 187.648 515.947 188.208 517.131 188.208C519.387 188.208 520.715 186.432 520.715 184.144C520.715 181.904 519.483 180.128 517.179 180.128C515.931 180.128 515.019 180.736 514.603 181.504V180.304H513.147V191.04H514.635ZM519.179 184.144C519.179 185.728 518.299 186.864 516.907 186.864C515.531 186.864 514.619 185.728 514.619 184.144C514.619 182.608 515.531 181.456 516.907 181.456C518.315 181.456 519.179 182.608 519.179 184.144ZM523.608 183.36C523.672 182.368 524.44 181.392 525.704 181.392C527.064 181.392 527.784 182.256 527.816 183.36H523.608ZM528.04 185.36C527.752 186.224 527.128 186.912 525.88 186.912C524.584 186.912 523.592 185.952 523.56 184.576H529.352C529.368 184.48 529.384 184.288 529.384 184.096C529.384 181.696 528.056 180.064 525.688 180.064C523.752 180.064 522.008 181.712 522.008 184.128C522.008 186.736 523.816 188.24 525.88 188.24C527.672 188.24 528.904 187.168 529.336 185.808L528.04 185.36ZM535.575 180.224C535.495 180.208 535.287 180.176 535.079 180.176C534.295 180.176 533.335 180.464 532.775 181.648V180.304H531.303V188H532.807V184.144C532.807 182.448 533.655 181.776 534.919 181.776C535.127 181.776 535.351 181.792 535.575 181.824V180.224ZM538.666 188V180.304H537.178V188H538.666ZM536.842 177.392C536.842 177.984 537.322 178.464 537.914 178.464C538.522 178.464 539.002 177.984 539.002 177.392C539.002 176.784 538.522 176.304 537.914 176.304C537.322 176.304 536.842 176.784 536.842 177.392ZM542.201 183.36C542.265 182.368 543.033 181.392 544.297 181.392C545.657 181.392 546.377 182.256 546.409 183.36H542.201ZM546.633 185.36C546.345 186.224 545.721 186.912 544.473 186.912C543.177 186.912 542.185 185.952 542.153 184.576H547.945C547.961 184.48 547.977 184.288 547.977 184.096C547.977 181.696 546.649 180.064 544.281 180.064C542.345 180.064 540.601 181.712 540.601 184.128C540.601 186.736 542.409 188.24 544.473 188.24C546.265 188.24 547.497 187.168 547.929 185.808L546.633 185.36ZM551.401 183.552C551.401 182.384 552.009 181.44 553.193 181.44C554.537 181.44 554.985 182.304 554.985 183.376V188H556.489V183.12C556.489 181.408 555.577 180.08 553.737 180.08C552.841 180.08 551.929 180.448 551.369 181.408V180.304H549.897V188H551.401V183.552ZM562.114 181.456C563.426 181.456 563.986 182.336 564.178 183.088L565.538 182.512C565.218 181.344 564.162 180.064 562.114 180.064C559.922 180.064 558.242 181.744 558.242 184.144C558.242 186.48 559.89 188.24 562.13 188.24C564.13 188.24 565.234 186.944 565.602 185.84L564.274 185.264C564.098 185.872 563.57 186.848 562.13 186.848C560.882 186.848 559.778 185.904 559.778 184.144C559.778 182.352 560.898 181.456 562.114 181.456ZM568.264 183.36C568.328 182.368 569.096 181.392 570.36 181.392C571.72 181.392 572.44 182.256 572.472 183.36H568.264ZM572.696 185.36C572.408 186.224 571.784 186.912 570.536 186.912C569.24 186.912 568.248 185.952 568.216 184.576H574.008C574.024 184.48 574.04 184.288 574.04 184.096C574.04 181.696 572.712 180.064 570.344 180.064C568.408 180.064 566.664 181.712 566.664 184.128C566.664 186.736 568.472 188.24 570.536 188.24C572.328 188.24 573.56 187.168 573.992 185.808L572.696 185.36ZM575.24 186C575.368 186.88 576.264 188.24 578.376 188.24C580.28 188.24 581.192 186.944 581.192 185.856C581.192 184.72 580.456 183.872 579.064 183.568L577.816 183.296C577.224 183.168 576.936 182.832 576.936 182.368C576.936 181.84 577.448 181.344 578.216 181.344C579.432 181.344 579.752 182.224 579.816 182.624L581.144 182.128C580.984 181.44 580.328 180.064 578.216 180.064C576.712 180.064 575.48 181.184 575.48 182.496C575.48 183.584 576.2 184.4 577.4 184.656L578.712 184.944C579.352 185.088 579.704 185.456 579.704 185.936C579.704 186.48 579.24 186.96 578.392 186.96C577.304 186.96 576.696 186.32 576.6 185.52L575.24 186Z" fill="white"/>
<rect width="162" height="52" transform="translate(313.5 230)" fill="black"/>
<path d="M345.636 262H348.1L345.668 257.36C347.156 256.928 348.084 255.728 348.084 254.144C348.084 252.176 346.676 250.656 344.468 250.656H340.036V262H342.26V257.632H343.412L345.636 262ZM342.26 255.728V252.576H344.052C345.172 252.576 345.828 253.2 345.828 254.16C345.828 255.088 345.172 255.728 344.052 255.728H342.26ZM351.53 257.168C351.578 256.448 352.186 255.616 353.29 255.616C354.506 255.616 355.018 256.384 355.05 257.168H351.53ZM355.258 259.216C355.002 259.92 354.458 260.416 353.466 260.416C352.41 260.416 351.53 259.664 351.482 258.624H357.114C357.114 258.592 357.146 258.272 357.146 257.968C357.146 255.44 355.69 253.888 353.258 253.888C351.242 253.888 349.386 255.52 349.386 258.032C349.386 260.688 351.29 262.24 353.45 262.24C355.386 262.24 356.634 261.104 357.034 259.744L355.258 259.216ZM358.581 262.432C358.805 263.936 360.245 265.28 362.405 265.28C365.365 265.28 366.533 263.312 366.533 261.152V254.128H364.485V255.056C364.213 254.528 363.493 253.984 362.245 253.984C360.085 253.984 358.581 255.744 358.581 257.824C358.581 260.032 360.149 261.648 362.245 261.648C363.381 261.648 364.117 261.152 364.437 260.64V261.216C364.437 262.736 363.685 263.408 362.341 263.408C361.333 263.408 360.645 262.784 360.501 261.92L358.581 262.432ZM362.613 259.824C361.509 259.824 360.725 259.056 360.725 257.824C360.725 256.608 361.557 255.84 362.613 255.84C363.637 255.84 364.469 256.608 364.469 257.824C364.469 259.04 363.701 259.824 362.613 259.824ZM371.136 262V254.128H369.008V262H371.136ZM368.752 251.552C368.752 252.256 369.344 252.848 370.064 252.848C370.8 252.848 371.376 252.256 371.376 251.552C371.376 250.816 370.8 250.224 370.064 250.224C369.344 250.224 368.752 250.816 368.752 251.552ZM373.062 259.808C373.158 260.704 373.974 262.24 376.342 262.24C378.406 262.24 379.398 260.928 379.398 259.648C379.398 258.496 378.614 257.552 377.062 257.232L375.942 256.992C375.51 256.912 375.222 256.672 375.222 256.288C375.222 255.84 375.67 255.504 376.23 255.504C377.126 255.504 377.462 256.096 377.526 256.56L379.302 256.16C379.206 255.312 378.454 253.888 376.214 253.888C374.518 253.888 373.27 255.056 373.27 256.464C373.27 257.568 373.958 258.48 375.478 258.816L376.518 259.056C377.126 259.184 377.366 259.472 377.366 259.824C377.366 260.24 377.03 260.608 376.326 260.608C375.398 260.608 374.934 260.032 374.886 259.408L373.062 259.808ZM384.053 251.776H382.133V252.88C382.133 253.584 381.749 254.128 380.917 254.128H380.517V256.016H381.941V259.68C381.941 261.2 382.901 262.112 384.437 262.112C385.061 262.112 385.445 262 385.637 261.92V260.16C385.525 260.192 385.237 260.224 384.981 260.224C384.373 260.224 384.053 260 384.053 259.312V256.016H385.637V254.128H384.053V251.776ZM389.239 257.168C389.287 256.448 389.895 255.616 390.999 255.616C392.215 255.616 392.727 256.384 392.759 257.168H389.239ZM392.967 259.216C392.711 259.92 392.167 260.416 391.175 260.416C390.119 260.416 389.239 259.664 389.191 258.624H394.823C394.823 258.592 394.855 258.272 394.855 257.968C394.855 255.44 393.399 253.888 390.967 253.888C388.951 253.888 387.095 255.52 387.095 258.032C387.095 260.688 388.999 262.24 391.159 262.24C393.095 262.24 394.343 261.104 394.743 259.744L392.967 259.216ZM401.651 254.096C401.491 254.08 401.331 254.064 401.155 254.064C400.483 254.064 399.395 254.256 398.915 255.296V254.128H396.851V262H398.979V258.4C398.979 256.704 399.923 256.176 401.011 256.176C401.203 256.176 401.411 256.192 401.651 256.24V254.096ZM410.318 251.776H408.398V252.88C408.398 253.584 408.014 254.128 407.182 254.128H406.782V256.016H408.206V259.68C408.206 261.2 409.166 262.112 410.702 262.112C411.326 262.112 411.71 262 411.902 261.92V260.16C411.79 260.192 411.502 260.224 411.246 260.224C410.638 260.224 410.318 260 410.318 259.312V256.016H411.902V254.128H410.318V251.776ZM417.487 260.304C416.447 260.304 415.487 259.536 415.487 258.064C415.487 256.576 416.447 255.824 417.487 255.824C418.527 255.824 419.487 256.576 419.487 258.064C419.487 259.552 418.527 260.304 417.487 260.304ZM417.487 253.888C415.135 253.888 413.359 255.632 413.359 258.064C413.359 260.48 415.135 262.24 417.487 262.24C419.839 262.24 421.615 260.48 421.615 258.064C421.615 255.632 419.839 253.888 417.487 253.888ZM431.119 250.416H429.023V254.912C428.799 254.496 428.159 253.936 426.799 253.936C424.575 253.936 423.023 255.744 423.023 258.048C423.023 260.432 424.623 262.192 426.863 262.192C427.919 262.192 428.719 261.712 429.071 261.088C429.071 261.456 429.119 261.84 429.151 262H431.183C431.151 261.68 431.119 261.104 431.119 260.576V250.416ZM425.167 258.048C425.167 256.64 426.031 255.84 427.119 255.84C428.207 255.84 429.055 256.624 429.055 258.032C429.055 259.456 428.207 260.288 427.119 260.288C425.999 260.288 425.167 259.456 425.167 258.048ZM433.221 259.856C433.221 261.088 434.245 262.224 435.925 262.224C437.093 262.224 437.845 261.68 438.245 261.056C438.245 261.36 438.277 261.792 438.325 262H440.277C440.229 261.728 440.181 261.168 440.181 260.752V256.88C440.181 255.296 439.253 253.888 436.757 253.888C434.645 253.888 433.509 255.248 433.381 256.48L435.269 256.88C435.333 256.192 435.845 255.6 436.773 255.6C437.669 255.6 438.101 256.064 438.101 256.624C438.101 256.896 437.957 257.12 437.509 257.184L435.573 257.472C434.261 257.664 433.221 258.448 433.221 259.856ZM436.373 260.64C435.685 260.64 435.349 260.192 435.349 259.728C435.349 259.12 435.781 258.816 436.325 258.736L438.101 258.464V258.816C438.101 260.208 437.269 260.64 436.373 260.64ZM445.163 265.104L450.107 254.128H447.835L445.899 258.736L443.803 254.128H441.419L444.763 261.008L442.907 265.104H445.163Z" fill="white"/>
</g>
<defs>
<clipPath id="clip0_1_239">
<rect width="789" height="282" fill="white"/>
</clipPath>
</defs>
</svg>
