<svg width="813" height="178" viewBox="0 0 813 178" fill="none" xmlns="http://www.w3.org/2000/svg">
<g opacity="0.1">
<circle cx="115.5" cy="50" r="50" fill="#2F70FE"/>
<circle cx="115.5" cy="50" r="50" stroke="#2F70FE"/>
</g>
<path d="M112.5 46.5C112.5 48.7 110.7 50.5 108.5 50.5H96.5C94.3 50.5 92.5 48.7 92.5 46.5V34.5C92.5 32.3 94.3 30.5 96.5 30.5H108.5C110.7 30.5 112.5 32.3 112.5 34.5V46.5Z" stroke="black" stroke-miterlimit="10" stroke-linecap="round" stroke-linejoin="round"/>
<path d="M92.5 36.5H112.5" stroke="black" stroke-miterlimit="10" stroke-linecap="round" stroke-linejoin="round"/>
<path d="M118.5 46.5C118.5 48.7 120.3 50.5 122.5 50.5H134.5C136.7 50.5 138.5 48.7 138.5 46.5V34.5C138.5 32.3 136.7 30.5 134.5 30.5H122.5C120.3 30.5 118.5 32.3 118.5 34.5V46.5Z" stroke="black" stroke-miterlimit="10" stroke-linecap="round" stroke-linejoin="round"/>
<path d="M138.5 36.5H118.5" stroke="black" stroke-miterlimit="10" stroke-linecap="round" stroke-linejoin="round"/>
<path d="M112.5 72.5C112.5 74.7 110.7 76.5 108.5 76.5H96.5C94.3 76.5 92.5 74.7 92.5 72.5V60.5C92.5 58.3 94.3 56.5 96.5 56.5H108.5C110.7 56.5 112.5 58.3 112.5 60.5V72.5Z" stroke="black" stroke-miterlimit="10" stroke-linecap="round" stroke-linejoin="round"/>
<path d="M118.5 72.5C118.5 74.7 120.3 76.5 122.5 76.5H134.5C136.7 76.5 138.5 74.7 138.5 72.5V60.5C138.5 58.3 136.7 56.5 134.5 56.5H122.5C120.3 56.5 118.5 58.3 118.5 60.5V72.5Z" stroke="black" stroke-miterlimit="10" stroke-linecap="round" stroke-linejoin="round"/>
<path d="M138.5 62.5H118.5" stroke="black" stroke-miterlimit="10" stroke-linecap="round" stroke-linejoin="round"/>
<path d="M0.331251 131.656V143H4.29925C6.37925 143 7.80325 141.704 7.80325 139.912C7.80325 138.648 7.05125 137.496 5.75525 137.176C6.74725 136.808 7.45125 135.944 7.45125 134.728C7.45125 132.936 6.18725 131.656 4.02725 131.656H0.331251ZM1.89925 136.616V133.032H3.78725C5.08325 133.032 5.86725 133.736 5.86725 134.808C5.86725 135.864 5.11525 136.616 3.85125 136.616H1.89925ZM1.89925 141.624V137.96H4.13925C5.51525 137.96 6.20325 138.728 6.20325 139.816C6.20325 140.92 5.33925 141.624 4.07525 141.624H1.89925ZM11.0104 138.36C11.0744 137.368 11.8424 136.392 13.1064 136.392C14.4664 136.392 15.1864 137.256 15.2184 138.36H11.0104ZM15.4424 140.36C15.1544 141.224 14.5304 141.912 13.2824 141.912C11.9864 141.912 10.9944 140.952 10.9624 139.576H16.7544C16.7704 139.48 16.7864 139.288 16.7864 139.096C16.7864 136.696 15.4584 135.064 13.0904 135.064C11.1544 135.064 9.41038 136.712 9.41038 139.128C9.41038 141.736 11.2184 143.24 13.2824 143.24C15.0744 143.24 16.3064 142.168 16.7384 140.808L15.4424 140.36ZM22.5463 140.936C22.5463 142.152 23.5543 143.24 25.1223 143.24C26.4983 143.24 27.2663 142.504 27.6023 141.96C27.6023 142.52 27.6503 142.808 27.6823 143H29.1543C29.1223 142.808 29.0583 142.408 29.0583 141.736V137.88C29.0583 136.376 28.1623 135.064 25.8583 135.064C24.1943 135.064 22.8663 136.088 22.7063 137.56L24.1463 137.896C24.2423 137 24.8343 136.344 25.8903 136.344C27.0583 136.344 27.5543 136.968 27.5543 137.72C27.5543 137.992 27.4263 138.232 26.9623 138.296L24.8823 138.6C23.5543 138.792 22.5463 139.56 22.5463 140.936ZM25.3303 141.976C24.5623 141.976 24.0823 141.432 24.0823 140.856C24.0823 140.168 24.5623 139.8 25.2023 139.704L27.5543 139.352V139.704C27.5543 141.384 26.5623 141.976 25.3303 141.976ZM37.2092 146.04V141.96C37.6253 142.648 38.5213 143.208 39.7053 143.208C41.9613 143.208 43.2893 141.432 43.2893 139.144C43.2893 136.904 42.0573 135.128 39.7533 135.128C38.5052 135.128 37.5933 135.736 37.1772 136.504V135.304H35.7212V146.04H37.2092ZM41.7533 139.144C41.7533 140.728 40.8733 141.864 39.4813 141.864C38.1053 141.864 37.1932 140.728 37.1932 139.144C37.1932 137.608 38.1053 136.456 39.4813 136.456C40.8893 136.456 41.7533 137.608 41.7533 139.144ZM44.8856 140.936C44.8856 142.152 45.8936 143.24 47.4616 143.24C48.8376 143.24 49.6056 142.504 49.9416 141.96C49.9416 142.52 49.9896 142.808 50.0216 143H51.4936C51.4616 142.808 51.3976 142.408 51.3976 141.736V137.88C51.3976 136.376 50.5016 135.064 48.1976 135.064C46.5336 135.064 45.2056 136.088 45.0456 137.56L46.4856 137.896C46.5816 137 47.1736 136.344 48.2296 136.344C49.3976 136.344 49.8936 136.968 49.8936 137.72C49.8936 137.992 49.7656 138.232 49.3016 138.296L47.2216 138.6C45.8936 138.792 44.8856 139.56 44.8856 140.936ZM47.6696 141.976C46.9016 141.976 46.4216 141.432 46.4216 140.856C46.4216 140.168 46.9016 139.8 47.5416 139.704L49.8936 139.352V139.704C49.8936 141.384 48.9016 141.976 47.6696 141.976ZM58.1726 135.224C58.0926 135.208 57.8846 135.176 57.6766 135.176C56.8926 135.176 55.9326 135.464 55.3726 136.648V135.304H53.9006V143H55.4046V139.144C55.4046 137.448 56.2526 136.776 57.5166 136.776C57.7246 136.776 57.9486 136.792 58.1726 136.824V135.224ZM62.3579 132.872H60.9819V134.12C60.9819 134.792 60.6299 135.304 59.7979 135.304H59.3819V136.664H60.8539V140.888C60.8539 142.28 61.6859 143.08 62.9979 143.08C63.5099 143.08 63.8939 142.984 64.0219 142.936V141.656C63.8939 141.688 63.6219 141.72 63.4299 141.72C62.6459 141.72 62.3579 141.368 62.3579 140.664V136.664H64.0219V135.304H62.3579V132.872ZM73.6454 141.896C72.3654 141.896 71.2454 140.936 71.2454 139.144C71.2454 137.368 72.3654 136.408 73.6454 136.408C74.9254 136.408 76.0454 137.368 76.0454 139.144C76.0454 140.936 74.9254 141.896 73.6454 141.896ZM73.6454 135.064C71.3414 135.064 69.7094 136.808 69.7094 139.144C69.7094 141.496 71.3414 143.24 73.6454 143.24C75.9494 143.24 77.5814 141.496 77.5814 139.144C77.5814 136.808 75.9494 135.064 73.6454 135.064ZM83.5376 136.664V135.304H81.6816V134.088C81.6816 133.032 82.3696 132.776 82.8976 132.776C83.2816 132.776 83.4736 132.84 83.5536 132.872V131.528C83.4896 131.48 83.1696 131.368 82.6576 131.368C81.2656 131.368 80.1296 132.296 80.1296 134.008V135.304H78.7056V136.664H80.1296V143H81.6816V136.664H83.5376ZM91.486 132.872H90.11V134.12C90.11 134.792 89.758 135.304 88.926 135.304H88.51V136.664H89.982V140.888C89.982 142.28 90.814 143.08 92.126 143.08C92.638 143.08 93.022 142.984 93.15 142.936V141.656C93.022 141.688 92.75 141.72 92.558 141.72C91.774 141.72 91.486 141.368 91.486 140.664V136.664H93.15V135.304H91.486V132.872ZM96.8215 138.472C96.8535 137.336 97.4615 136.44 98.6135 136.44C99.9575 136.44 100.405 137.304 100.405 138.376V143H101.909V138.12C101.909 136.408 100.997 135.08 99.1575 135.08C98.2775 135.08 97.3815 135.384 96.8215 136.2V131.416H95.3175V143H96.8215V138.472ZM105.438 138.36C105.502 137.368 106.27 136.392 107.534 136.392C108.894 136.392 109.614 137.256 109.646 138.36H105.438ZM109.87 140.36C109.582 141.224 108.958 141.912 107.71 141.912C106.414 141.912 105.422 140.952 105.39 139.576H111.182C111.198 139.48 111.214 139.288 111.214 139.096C111.214 136.696 109.886 135.064 107.518 135.064C105.582 135.064 103.838 136.712 103.838 139.128C103.838 141.736 105.646 143.24 107.71 143.24C109.502 143.24 110.734 142.168 111.166 140.808L109.87 140.36ZM120.75 141.896C119.47 141.896 118.35 140.936 118.35 139.144C118.35 137.368 119.47 136.408 120.75 136.408C122.03 136.408 123.15 137.368 123.15 139.144C123.15 140.936 122.03 141.896 120.75 141.896ZM120.75 135.064C118.446 135.064 116.814 136.808 116.814 139.144C116.814 141.496 118.446 143.24 120.75 143.24C123.054 143.24 124.686 141.496 124.686 139.144C124.686 136.808 123.054 135.064 120.75 135.064ZM128.274 138.552C128.274 137.384 128.882 136.44 130.066 136.44C131.41 136.44 131.858 137.304 131.858 138.376V143H133.362V138.12C133.362 136.408 132.45 135.08 130.61 135.08C129.714 135.08 128.802 135.448 128.242 136.408V135.304H126.77V143H128.274V138.552ZM137.418 143V131.416H135.914V143H137.418ZM142.057 146.216L147.065 135.304H145.449L143.145 140.616L140.745 135.304H139.017L142.329 142.152L140.409 146.216H142.057ZM165.008 143H166.704L162.192 131.656H160.384L155.872 143H157.552L158.752 139.832H163.776L165.008 143ZM161.248 133.288L163.216 138.376H159.312L161.248 133.288ZM169.812 143V131.416H168.308V143H169.812ZM174.035 143V131.416H172.531V143H174.035ZM180.529 139.064V137.752H176.193V139.064H180.529ZM184.454 143V131.656H182.854V143H184.454ZM188.843 138.552C188.843 137.384 189.451 136.44 190.635 136.44C191.979 136.44 192.427 137.304 192.427 138.376V143H193.931V138.12C193.931 136.408 193.019 135.08 191.179 135.08C190.283 135.08 189.371 135.448 188.811 136.408V135.304H187.339V143H188.843V138.552ZM200.259 139.064V137.752H195.923V139.064H200.259ZM203.464 137.32C203.464 134.36 205.448 132.856 207.56 132.856C209.672 132.856 211.656 134.36 211.656 137.32C211.656 140.28 209.672 141.8 207.56 141.8C205.448 141.8 203.464 140.28 203.464 137.32ZM201.864 137.32C201.864 141.112 204.712 143.24 207.56 143.24C210.408 143.24 213.256 141.112 213.256 137.32C213.256 133.528 210.408 131.416 207.56 131.416C204.712 131.416 201.864 133.528 201.864 137.32ZM216.917 138.552C216.917 137.384 217.525 136.44 218.709 136.44C220.053 136.44 220.501 137.304 220.501 138.376V143H222.005V138.12C222.005 136.408 221.093 135.08 219.253 135.08C218.357 135.08 217.445 135.448 216.885 136.408V135.304H215.413V143H216.917V138.552ZM225.533 138.36C225.597 137.368 226.365 136.392 227.629 136.392C228.989 136.392 229.709 137.256 229.741 138.36H225.533ZM229.965 140.36C229.677 141.224 229.053 141.912 227.805 141.912C226.509 141.912 225.517 140.952 225.485 139.576H231.277C231.293 139.48 231.309 139.288 231.309 139.096C231.309 136.696 229.981 135.064 227.613 135.064C225.677 135.064 223.933 136.712 223.933 139.128C223.933 141.736 225.741 143.24 227.805 143.24C229.597 143.24 230.829 142.168 231.261 140.808L229.965 140.36ZM33.3402 173.04V168.96C33.7562 169.648 34.6522 170.208 35.8362 170.208C38.0922 170.208 39.4202 168.432 39.4202 166.144C39.4202 163.904 38.1882 162.128 35.8842 162.128C34.6362 162.128 33.7242 162.736 33.3082 163.504V162.304H31.8522V173.04H33.3402ZM37.8842 166.144C37.8842 167.728 37.0042 168.864 35.6122 168.864C34.2362 168.864 33.3242 167.728 33.3242 166.144C33.3242 164.608 34.2362 163.456 35.6122 163.456C37.0202 163.456 37.8842 164.608 37.8842 166.144ZM43.0006 170V158.416H41.4966V170H43.0006ZM45.2391 167.936C45.2391 169.152 46.2471 170.24 47.8151 170.24C49.1911 170.24 49.9591 169.504 50.2951 168.96C50.2951 169.52 50.3431 169.808 50.3751 170H51.8471C51.8151 169.808 51.7511 169.408 51.7511 168.736V164.88C51.7511 163.376 50.8551 162.064 48.5511 162.064C46.8871 162.064 45.5591 163.088 45.3991 164.56L46.8391 164.896C46.9351 164 47.5271 163.344 48.5831 163.344C49.7511 163.344 50.2471 163.968 50.2471 164.72C50.2471 164.992 50.1191 165.232 49.6551 165.296L47.5751 165.6C46.2471 165.792 45.2391 166.56 45.2391 167.936ZM48.0231 168.976C47.2551 168.976 46.7751 168.432 46.7751 167.856C46.7751 167.168 47.2551 166.8 47.8951 166.704L50.2471 166.352V166.704C50.2471 168.384 49.2551 168.976 48.0231 168.976ZM56.2701 159.872H54.8941V161.12C54.8941 161.792 54.5421 162.304 53.7101 162.304H53.2941V163.664H54.7661V167.888C54.7661 169.28 55.5981 170.08 56.9101 170.08C57.4221 170.08 57.8061 169.984 57.9341 169.936V168.656C57.8061 168.688 57.5341 168.72 57.3421 168.72C56.5581 168.72 56.2701 168.368 56.2701 167.664V163.664H57.9341V162.304H56.2701V159.872ZM63.9736 163.664V162.304H62.1176V161.088C62.1176 160.032 62.8056 159.776 63.3336 159.776C63.7176 159.776 63.9096 159.84 63.9896 159.872V158.528C63.9256 158.48 63.6056 158.368 63.0936 158.368C61.7016 158.368 60.5656 159.296 60.5656 161.008V162.304H59.1416V163.664H60.5656V170H62.1176V163.664H63.9736ZM68.7294 168.896C67.4494 168.896 66.3294 167.936 66.3294 166.144C66.3294 164.368 67.4494 163.408 68.7294 163.408C70.0094 163.408 71.1294 164.368 71.1294 166.144C71.1294 167.936 70.0094 168.896 68.7294 168.896ZM68.7294 162.064C66.4254 162.064 64.7934 163.808 64.7934 166.144C64.7934 168.496 66.4254 170.24 68.7294 170.24C71.0334 170.24 72.6654 168.496 72.6654 166.144C72.6654 163.808 71.0334 162.064 68.7294 162.064ZM79.0217 162.224C78.9417 162.208 78.7337 162.176 78.5257 162.176C77.7417 162.176 76.7817 162.464 76.2217 163.648V162.304H74.7497V170H76.2537V166.144C76.2537 164.448 77.1017 163.776 78.3657 163.776C78.5737 163.776 78.7977 163.792 79.0217 163.824V162.224ZM82.2727 170V165.36C82.2727 164.208 82.9927 163.408 84.0647 163.408C85.2167 163.408 85.6967 164.176 85.6967 165.168V170H87.2007V165.344C87.2007 164.24 87.9207 163.408 88.9767 163.408C90.1127 163.408 90.6087 164.16 90.6087 165.168V170H92.0967V165.008C92.0967 162.992 90.7847 162.08 89.4407 162.08C88.4647 162.08 87.4727 162.432 86.8647 163.536C86.4487 162.544 85.5207 162.08 84.5607 162.08C83.6647 162.08 82.7047 162.48 82.2247 163.328V162.304H80.7847V170H82.2727ZM102.695 163.664V162.304H100.839V161.088C100.839 160.032 101.527 159.776 102.055 159.776C102.439 159.776 102.631 159.84 102.711 159.872V158.528C102.647 158.48 102.327 158.368 101.815 158.368C100.423 158.368 99.2874 159.296 99.2874 161.008V162.304H97.8634V163.664H99.2874V170H100.839V163.664H102.695ZM107.451 168.896C106.171 168.896 105.051 167.936 105.051 166.144C105.051 164.368 106.171 163.408 107.451 163.408C108.731 163.408 109.851 164.368 109.851 166.144C109.851 167.936 108.731 168.896 107.451 168.896ZM107.451 162.064C105.147 162.064 103.515 163.808 103.515 166.144C103.515 168.496 105.147 170.24 107.451 170.24C109.755 170.24 111.387 168.496 111.387 166.144C111.387 163.808 109.755 162.064 107.451 162.064ZM117.744 162.224C117.664 162.208 117.456 162.176 117.248 162.176C116.464 162.176 115.504 162.464 114.944 163.648V162.304H113.472V170H114.976V166.144C114.976 164.448 115.824 163.776 117.088 163.776C117.296 163.776 117.52 163.792 117.744 163.824V162.224ZM125.427 170V158.656H123.827V170H125.427ZM136.343 160.112V158.656H127.191V160.112H130.983V170H132.551V160.112H136.343ZM141.38 168C141.508 168.88 142.404 170.24 144.516 170.24C146.42 170.24 147.332 168.944 147.332 167.856C147.332 166.72 146.596 165.872 145.204 165.568L143.956 165.296C143.364 165.168 143.076 164.832 143.076 164.368C143.076 163.84 143.588 163.344 144.356 163.344C145.572 163.344 145.892 164.224 145.956 164.624L147.284 164.128C147.124 163.44 146.468 162.064 144.356 162.064C142.852 162.064 141.62 163.184 141.62 164.496C141.62 165.584 142.34 166.4 143.54 166.656L144.852 166.944C145.492 167.088 145.844 167.456 145.844 167.936C145.844 168.48 145.38 168.96 144.532 168.96C143.444 168.96 142.836 168.32 142.74 167.52L141.38 168ZM150.392 165.36C150.456 164.368 151.224 163.392 152.488 163.392C153.848 163.392 154.568 164.256 154.6 165.36H150.392ZM154.824 167.36C154.536 168.224 153.912 168.912 152.664 168.912C151.368 168.912 150.376 167.952 150.344 166.576H156.136C156.152 166.48 156.168 166.288 156.168 166.096C156.168 163.696 154.84 162.064 152.472 162.064C150.536 162.064 148.792 163.712 148.792 166.128C148.792 168.736 150.6 170.24 152.664 170.24C154.456 170.24 155.688 169.168 156.12 167.808L154.824 167.36ZM162.52 162.224C162.44 162.208 162.232 162.176 162.024 162.176C161.24 162.176 160.28 162.464 159.72 163.648V162.304H158.248V170H159.752V166.144C159.752 164.448 160.6 163.776 161.864 163.776C162.072 163.776 162.296 163.792 162.52 163.824V162.224ZM171.109 162.304H169.493L167.285 168.24L165.093 162.304H163.397L166.517 170H168.037L171.109 162.304ZM174.196 170V162.304H172.708V170H174.196ZM172.372 159.392C172.372 159.984 172.852 160.464 173.444 160.464C174.052 160.464 174.532 159.984 174.532 159.392C174.532 158.784 174.052 158.304 173.444 158.304C172.852 158.304 172.372 158.784 172.372 159.392ZM180.147 163.456C181.459 163.456 182.019 164.336 182.211 165.088L183.571 164.512C183.251 163.344 182.195 162.064 180.147 162.064C177.955 162.064 176.275 163.744 176.275 166.144C176.275 168.48 177.923 170.24 180.163 170.24C182.163 170.24 183.267 168.944 183.635 167.84L182.307 167.264C182.131 167.872 181.603 168.848 180.163 168.848C178.915 168.848 177.811 167.904 177.811 166.144C177.811 164.352 178.931 163.456 180.147 163.456ZM186.458 165.36C186.522 164.368 187.29 163.392 188.554 163.392C189.914 163.392 190.634 164.256 190.666 165.36H186.458ZM190.89 167.36C190.602 168.224 189.978 168.912 188.73 168.912C187.434 168.912 186.442 167.952 186.41 166.576H192.202C192.218 166.48 192.234 166.288 192.234 166.096C192.234 163.696 190.906 162.064 188.538 162.064C186.602 162.064 184.858 163.712 184.858 166.128C184.858 168.736 186.666 170.24 188.73 170.24C190.522 170.24 191.754 169.168 192.186 167.808L190.89 167.36ZM193.593 168C193.721 168.88 194.617 170.24 196.729 170.24C198.633 170.24 199.545 168.944 199.545 167.856C199.545 166.72 198.809 165.872 197.417 165.568L196.169 165.296C195.577 165.168 195.289 164.832 195.289 164.368C195.289 163.84 195.801 163.344 196.569 163.344C197.785 163.344 198.105 164.224 198.169 164.624L199.497 164.128C199.337 163.44 198.681 162.064 196.569 162.064C195.065 162.064 193.833 163.184 193.833 164.496C193.833 165.584 194.553 166.4 195.753 166.656L197.065 166.944C197.705 167.088 198.057 167.456 198.057 167.936C198.057 168.48 197.593 168.96 196.745 168.96C195.657 168.96 195.049 168.32 194.953 167.52L193.593 168Z" fill="#000C2D"/>
<g clip-path="url(#clip0_0_1)">
<g opacity="0.2">
<circle cx="416" cy="50" r="50" fill="#6DED02"/>
<circle cx="416" cy="50" r="50" stroke="#88BDDA"/>
</g>
<g clip-path="url(#clip1_0_1)">
<path d="M416 67C425.941 67 434 58.9411 434 49C434 39.0589 425.941 31 416 31C406.059 31 398 39.0589 398 49C398 58.9411 406.059 67 416 67Z" stroke="black" stroke-miterlimit="10" stroke-linecap="round" stroke-linejoin="round"/>
<path d="M428.8 61.7998L444 76.9998" stroke="black" stroke-miterlimit="10" stroke-linecap="round" stroke-linejoin="round"/>
<path d="M413 51.2002V54.6002L405 58.0002" stroke="black" stroke-miterlimit="10" stroke-linecap="round" stroke-linejoin="round"/>
<path d="M419 51.2002V54.6002L427 58.0002" stroke="black" stroke-miterlimit="10" stroke-linecap="round" stroke-linejoin="round"/>
<path d="M422.4 44.4004C422.4 48.6004 419.6 52.0004 416 52.0004C412.4 52.0004 409.6 48.6004 409.6 44.4004C409.6 40.2004 412.4 36.8004 416 36.8004C419.6 36.6004 422.4 40.0004 422.4 44.4004Z" stroke="black" stroke-miterlimit="10" stroke-linecap="round" stroke-linejoin="round"/>
<path d="M422.4 43.4C422.2 43.4 422 43.4 421.6 43.4C419.6 43.8 418.2 43 417 41C416.4 42.4 414.2 43.4 412.4 43.4C411.6 43.4 410.4 43.2 409.8 42.8" stroke="black" stroke-miterlimit="10" stroke-linecap="round" stroke-linejoin="round"/>
</g>
<path d="M320.366 143.24C322.974 143.24 324.766 141.72 325.374 139.592L323.982 139.08C323.518 140.632 322.302 141.8 320.366 141.8C318.302 141.8 316.334 140.28 316.334 137.32C316.334 134.36 318.302 132.856 320.366 132.856C322.222 132.856 323.47 133.816 323.902 135.528L325.358 135.016C324.782 132.824 322.958 131.416 320.366 131.416C317.55 131.416 314.734 133.528 314.734 137.32C314.734 141.112 317.438 143.24 320.366 143.24ZM330.437 141.896C329.157 141.896 328.037 140.936 328.037 139.144C328.037 137.368 329.157 136.408 330.437 136.408C331.717 136.408 332.837 137.368 332.837 139.144C332.837 140.936 331.717 141.896 330.437 141.896ZM330.437 135.064C328.133 135.064 326.501 136.808 326.501 139.144C326.501 141.496 328.133 143.24 330.437 143.24C332.741 143.24 334.373 141.496 334.373 139.144C334.373 136.808 332.741 135.064 330.437 135.064ZM337.945 143V138.36C337.945 137.208 338.665 136.408 339.737 136.408C340.889 136.408 341.369 137.176 341.369 138.168V143H342.873V138.344C342.873 137.24 343.593 136.408 344.649 136.408C345.785 136.408 346.281 137.16 346.281 138.168V143H347.769V138.008C347.769 135.992 346.457 135.08 345.113 135.08C344.137 135.08 343.145 135.432 342.537 136.536C342.121 135.544 341.193 135.08 340.233 135.08C339.337 135.08 338.377 135.48 337.897 136.328V135.304H336.457V143H337.945ZM351.312 138.36C351.376 137.368 352.144 136.392 353.408 136.392C354.768 136.392 355.488 137.256 355.52 138.36H351.312ZM355.744 140.36C355.456 141.224 354.832 141.912 353.584 141.912C352.288 141.912 351.296 140.952 351.264 139.576H357.056C357.072 139.48 357.088 139.288 357.088 139.096C357.088 136.696 355.76 135.064 353.392 135.064C351.456 135.064 349.712 136.712 349.712 139.128C349.712 141.736 351.52 143.24 353.584 143.24C355.376 143.24 356.608 142.168 357.04 140.808L355.744 140.36ZM366.56 136.456C367.872 136.456 368.432 137.336 368.624 138.088L369.984 137.512C369.664 136.344 368.608 135.064 366.56 135.064C364.368 135.064 362.688 136.744 362.688 139.144C362.688 141.48 364.336 143.24 366.576 143.24C368.576 143.24 369.68 141.944 370.048 140.84L368.72 140.264C368.544 140.872 368.016 141.848 366.576 141.848C365.328 141.848 364.224 140.904 364.224 139.144C364.224 137.352 365.344 136.456 366.56 136.456ZM373.476 143V131.416H371.972V143H373.476ZM379.491 141.896C378.211 141.896 377.091 140.936 377.091 139.144C377.091 137.368 378.211 136.408 379.491 136.408C380.771 136.408 381.891 137.368 381.891 139.144C381.891 140.936 380.771 141.896 379.491 141.896ZM379.491 135.064C377.187 135.064 375.555 136.808 375.555 139.144C375.555 141.496 377.187 143.24 379.491 143.24C381.795 143.24 383.427 141.496 383.427 139.144C383.427 136.808 381.795 135.064 379.491 135.064ZM384.791 141C384.919 141.88 385.815 143.24 387.927 143.24C389.831 143.24 390.743 141.944 390.743 140.856C390.743 139.72 390.007 138.872 388.615 138.568L387.367 138.296C386.775 138.168 386.487 137.832 386.487 137.368C386.487 136.84 386.999 136.344 387.767 136.344C388.983 136.344 389.303 137.224 389.367 137.624L390.695 137.128C390.535 136.44 389.879 135.064 387.767 135.064C386.263 135.064 385.031 136.184 385.031 137.496C385.031 138.584 385.751 139.4 386.951 139.656L388.263 139.944C388.903 140.088 389.255 140.456 389.255 140.936C389.255 141.48 388.791 141.96 387.943 141.96C386.855 141.96 386.247 141.32 386.151 140.52L384.791 141ZM393.804 138.36C393.868 137.368 394.636 136.392 395.9 136.392C397.26 136.392 397.98 137.256 398.012 138.36H393.804ZM398.236 140.36C397.948 141.224 397.324 141.912 396.076 141.912C394.78 141.912 393.788 140.952 393.756 139.576H399.548C399.564 139.48 399.58 139.288 399.58 139.096C399.58 136.696 398.252 135.064 395.884 135.064C393.948 135.064 392.204 136.712 392.204 139.128C392.204 141.736 394.012 143.24 396.076 143.24C397.868 143.24 399.1 142.168 399.532 140.808L398.236 140.36ZM405.931 135.224C405.851 135.208 405.643 135.176 405.435 135.176C404.651 135.176 403.691 135.464 403.131 136.648V135.304H401.659V143H403.163V139.144C403.163 137.448 404.011 136.776 405.275 136.776C405.483 136.776 405.707 136.792 405.931 136.824V135.224ZM413.87 132.872H412.494V134.12C412.494 134.792 412.142 135.304 411.31 135.304H410.894V136.664H412.366V140.888C412.366 142.28 413.198 143.08 414.51 143.08C415.022 143.08 415.406 142.984 415.534 142.936V141.656C415.406 141.688 415.134 141.72 414.942 141.72C414.158 141.72 413.87 141.368 413.87 140.664V136.664H415.534V135.304H413.87V132.872ZM420.92 141.896C419.64 141.896 418.52 140.936 418.52 139.144C418.52 137.368 419.64 136.408 420.92 136.408C422.2 136.408 423.32 137.368 423.32 139.144C423.32 140.936 422.2 141.896 420.92 141.896ZM420.92 135.064C418.616 135.064 416.984 136.808 416.984 139.144C416.984 141.496 418.616 143.24 420.92 143.24C423.224 143.24 424.856 141.496 424.856 139.144C424.856 136.808 423.224 135.064 420.92 135.064ZM434.092 131.368C432.7 131.368 431.564 132.296 431.564 134.008V135.304H430.14V136.664H431.564V143H433.116V136.664H436.716V143H438.204V135.304H433.116V134.072C433.116 133.016 433.804 132.776 434.332 132.776C434.716 132.776 434.908 132.84 434.988 132.872V131.528C434.924 131.48 434.604 131.368 434.092 131.368ZM436.38 132.36C436.38 132.952 436.86 133.432 437.452 133.432C438.06 133.432 438.54 132.952 438.54 132.36C438.54 131.752 438.06 131.272 437.452 131.272C436.86 131.272 436.38 131.752 436.38 132.36ZM442.42 138.552C442.42 137.384 443.028 136.44 444.212 136.44C445.556 136.44 446.004 137.304 446.004 138.376V143H447.508V138.12C447.508 136.408 446.596 135.08 444.756 135.08C443.86 135.08 442.948 135.448 442.388 136.408V135.304H440.916V143H442.42V138.552ZM450.957 139.128C450.957 137.544 451.853 136.424 453.229 136.424C454.605 136.424 455.437 137.512 455.437 139.096C455.437 140.68 454.589 141.88 453.213 141.88C451.773 141.88 450.957 140.712 450.957 139.128ZM455.453 141.96C455.453 142.424 455.501 142.824 455.533 143H456.989C456.973 142.872 456.909 142.312 456.909 141.576V131.416H455.421V136.392C455.165 135.768 454.429 135.096 453.069 135.096C450.893 135.096 449.421 136.952 449.421 139.128C449.421 141.416 450.813 143.208 453.069 143.208C454.269 143.208 455.085 142.568 455.453 141.832V141.96ZM461.115 143V135.304H459.627V143H461.115ZM459.291 132.392C459.291 132.984 459.771 133.464 460.363 133.464C460.971 133.464 461.451 132.984 461.451 132.392C461.451 131.784 460.971 131.304 460.363 131.304C459.771 131.304 459.291 131.784 459.291 132.392ZM465.338 138.552C465.338 137.384 465.946 136.44 467.13 136.44C468.474 136.44 468.922 137.304 468.922 138.376V143H470.426V138.12C470.426 136.408 469.514 135.08 467.674 135.08C466.778 135.08 465.866 135.448 465.306 136.408V135.304H463.834V143H465.338V138.552ZM472.418 143.416C472.61 145.064 474.05 146.28 475.97 146.28C478.866 146.28 479.826 144.376 479.826 142.424V135.304H478.338V136.376C477.954 135.608 477.154 135.16 475.97 135.16C473.858 135.16 472.434 136.824 472.434 138.904C472.434 141.08 473.922 142.632 475.97 142.632C477.122 142.632 477.954 142.072 478.322 141.368V142.472C478.322 144.136 477.586 144.968 475.97 144.968C474.802 144.968 473.986 144.152 473.874 143.08L472.418 143.416ZM476.194 141.368C474.834 141.368 473.97 140.408 473.97 138.904C473.97 137.416 474.866 136.44 476.194 136.44C477.49 136.44 478.386 137.416 478.386 138.904C478.386 140.392 477.49 141.368 476.194 141.368ZM488.468 146.216L493.476 135.304H491.86L489.556 140.616L487.156 135.304H485.428L488.74 142.152L486.82 146.216H488.468ZM498.067 141.896C496.787 141.896 495.667 140.936 495.667 139.144C495.667 137.368 496.787 136.408 498.067 136.408C499.347 136.408 500.467 137.368 500.467 139.144C500.467 140.936 499.347 141.896 498.067 141.896ZM498.067 135.064C495.763 135.064 494.131 136.808 494.131 139.144C494.131 141.496 495.763 143.24 498.067 143.24C500.371 143.24 502.003 141.496 502.003 139.144C502.003 136.808 500.371 135.064 498.067 135.064ZM509.081 142.072C509.081 142.392 509.113 142.824 509.145 143H510.585C510.553 142.728 510.505 142.184 510.505 141.576V135.304H509.001V139.944C509.001 141.112 508.393 141.912 507.177 141.912C505.913 141.912 505.433 140.984 505.433 139.928V135.304H503.929V140.152C503.929 141.896 505.017 143.24 506.809 143.24C507.705 143.24 508.665 142.872 509.081 142.072ZM517.503 135.224C517.423 135.208 517.215 135.176 517.007 135.176C516.223 135.176 515.263 135.464 514.703 136.648V135.304H513.231V143H514.735V139.144C514.735 137.448 515.583 136.776 516.847 136.776C517.055 136.776 517.279 136.792 517.503 136.824V135.224ZM366.355 165.552C366.355 164.384 366.963 163.44 368.147 163.44C369.491 163.44 369.939 164.304 369.939 165.376V170H371.443V165.12C371.443 163.408 370.531 162.08 368.691 162.08C367.795 162.08 366.883 162.448 366.323 163.408V162.304H364.851V170H366.355V165.552ZM374.972 165.36C375.036 164.368 375.804 163.392 377.068 163.392C378.428 163.392 379.148 164.256 379.18 165.36H374.972ZM379.404 167.36C379.116 168.224 378.492 168.912 377.244 168.912C375.948 168.912 374.956 167.952 374.924 166.576H380.716C380.732 166.48 380.748 166.288 380.748 166.096C380.748 163.696 379.42 162.064 377.052 162.064C375.116 162.064 373.372 163.712 373.372 166.128C373.372 168.736 375.18 170.24 377.244 170.24C379.036 170.24 380.268 169.168 380.7 167.808L379.404 167.36ZM381.629 170H383.421L385.373 167.168L387.357 170H389.165C388.701 169.376 386.797 166.704 386.333 166.08L389.069 162.304H387.293L385.437 165.008L383.549 162.304H381.725L384.493 166.08L381.629 170ZM392.863 159.872H391.487V161.12C391.487 161.792 391.135 162.304 390.303 162.304H389.887V163.664H391.359V167.888C391.359 169.28 392.191 170.08 393.503 170.08C394.015 170.08 394.399 169.984 394.527 169.936V168.656C394.399 168.688 394.127 168.72 393.935 168.72C393.151 168.72 392.863 168.368 392.863 167.664V163.664H394.527V162.304H392.863V159.872ZM404.086 163.456C405.398 163.456 405.958 164.336 406.15 165.088L407.51 164.512C407.19 163.344 406.134 162.064 404.086 162.064C401.894 162.064 400.214 163.744 400.214 166.144C400.214 168.48 401.862 170.24 404.102 170.24C406.102 170.24 407.206 168.944 407.574 167.84L406.246 167.264C406.07 167.872 405.542 168.848 404.102 168.848C402.854 168.848 401.75 167.904 401.75 166.144C401.75 164.352 402.87 163.456 404.086 163.456ZM414.493 169.072C414.493 169.392 414.525 169.824 414.557 170H415.997C415.965 169.728 415.917 169.184 415.917 168.576V162.304H414.413V166.944C414.413 168.112 413.805 168.912 412.589 168.912C411.325 168.912 410.845 167.984 410.845 166.928V162.304H409.341V167.152C409.341 168.896 410.429 170.24 412.221 170.24C413.117 170.24 414.077 169.872 414.493 169.072ZM417.923 168C418.051 168.88 418.947 170.24 421.059 170.24C422.963 170.24 423.875 168.944 423.875 167.856C423.875 166.72 423.139 165.872 421.747 165.568L420.499 165.296C419.907 165.168 419.619 164.832 419.619 164.368C419.619 163.84 420.131 163.344 420.899 163.344C422.115 163.344 422.435 164.224 422.499 164.624L423.827 164.128C423.667 163.44 423.011 162.064 420.899 162.064C419.395 162.064 418.163 163.184 418.163 164.496C418.163 165.584 418.883 166.4 420.083 166.656L421.395 166.944C422.035 167.088 422.387 167.456 422.387 167.936C422.387 168.48 421.923 168.96 421.075 168.96C419.987 168.96 419.379 168.32 419.283 167.52L417.923 168ZM428.053 159.872H426.677V161.12C426.677 161.792 426.325 162.304 425.493 162.304H425.077V163.664H426.549V167.888C426.549 169.28 427.381 170.08 428.693 170.08C429.206 170.08 429.589 169.984 429.717 169.936V168.656C429.589 168.688 429.318 168.72 429.125 168.72C428.341 168.72 428.053 168.368 428.053 167.664V163.664H429.717V162.304H428.053V159.872ZM435.103 168.896C433.823 168.896 432.703 167.936 432.703 166.144C432.703 164.368 433.823 163.408 435.103 163.408C436.383 163.408 437.503 164.368 437.503 166.144C437.503 167.936 436.383 168.896 435.103 168.896ZM435.103 162.064C432.799 162.064 431.167 163.808 431.167 166.144C431.167 168.496 432.799 170.24 435.103 170.24C437.407 170.24 439.039 168.496 439.039 166.144C439.039 163.808 437.407 162.064 435.103 162.064ZM442.611 170V165.36C442.611 164.208 443.331 163.408 444.403 163.408C445.555 163.408 446.035 164.176 446.035 165.168V170H447.539V165.344C447.539 164.24 448.259 163.408 449.315 163.408C450.451 163.408 450.947 164.16 450.947 165.168V170H452.435V165.008C452.435 162.992 451.123 162.08 449.779 162.08C448.803 162.08 447.811 162.432 447.203 163.536C446.787 162.544 445.859 162.08 444.899 162.08C444.003 162.08 443.043 162.48 442.563 163.328V162.304H441.123V170H442.611ZM455.978 165.36C456.042 164.368 456.81 163.392 458.074 163.392C459.434 163.392 460.154 164.256 460.186 165.36H455.978ZM460.41 167.36C460.122 168.224 459.498 168.912 458.25 168.912C456.954 168.912 455.962 167.952 455.93 166.576H461.722C461.738 166.48 461.754 166.288 461.754 166.096C461.754 163.696 460.426 162.064 458.058 162.064C456.122 162.064 454.378 163.712 454.378 166.128C454.378 168.736 456.186 170.24 458.25 170.24C460.042 170.24 461.274 169.168 461.706 167.808L460.41 167.36ZM468.106 162.224C468.026 162.208 467.818 162.176 467.61 162.176C466.826 162.176 465.866 162.464 465.306 163.648V162.304H463.834V170H465.338V166.144C465.338 164.448 466.186 163.776 467.45 163.776C467.658 163.776 467.882 163.792 468.106 163.824V162.224Z" fill="#000C2D"/>
</g>
<g clip-path="url(#clip2_0_1)">
<g opacity="0.1">
<circle cx="701.5" cy="50" r="50" fill="#2F70FE"/>
<circle cx="701.5" cy="50" r="50" stroke="#2F70FE"/>
</g>
<g clip-path="url(#clip3_0_1)">
<path d="M682.833 69.167H721.167" stroke="black" stroke-miterlimit="10" stroke-linecap="round" stroke-linejoin="round"/>
<path d="M689.5 60.8335H684.5V69.1668H689.5V60.8335Z" stroke="black" stroke-miterlimit="10" stroke-linecap="round" stroke-linejoin="round"/>
<path d="M699.5 52.5H694.5V69.1667H699.5V52.5Z" stroke="black" stroke-miterlimit="10" stroke-linecap="round" stroke-linejoin="round"/>
<path d="M709.5 55.8335H704.5V69.1668H709.5V55.8335Z" stroke="black" stroke-miterlimit="10" stroke-linecap="round" stroke-linejoin="round"/>
<path d="M719.5 44.167H714.5V69.167H719.5V44.167Z" stroke="black" stroke-miterlimit="10" stroke-linecap="round" stroke-linejoin="round"/>
<path d="M687 50.8333C687.92 50.8333 688.667 50.0871 688.667 49.1667C688.667 48.2462 687.92 47.5 687 47.5C686.08 47.5 685.333 48.2462 685.333 49.1667C685.333 50.0871 686.08 50.8333 687 50.8333Z" stroke="black" stroke-miterlimit="10" stroke-linecap="round" stroke-linejoin="round"/>
<path d="M697 42.5003C697.92 42.5003 698.667 41.7541 698.667 40.8337C698.667 39.9132 697.92 39.167 697 39.167C696.08 39.167 695.333 39.9132 695.333 40.8337C695.333 41.7541 696.08 42.5003 697 42.5003Z" stroke="black" stroke-miterlimit="10" stroke-linecap="round" stroke-linejoin="round"/>
<path d="M707 45.8333C707.92 45.8333 708.667 45.0871 708.667 44.1667C708.667 43.2462 707.92 42.5 707 42.5C706.08 42.5 705.333 43.2462 705.333 44.1667C705.333 45.0871 706.08 45.8333 707 45.8333Z" stroke="black" stroke-miterlimit="10" stroke-linecap="round" stroke-linejoin="round"/>
<path d="M717 34.1668C717.92 34.1668 718.667 33.4206 718.667 32.5002C718.667 31.5797 717.92 30.8335 717 30.8335C716.08 30.8335 715.333 31.5797 715.333 32.5002C715.333 33.4206 716.08 34.1668 717 34.1668Z" stroke="black" stroke-miterlimit="10" stroke-linecap="round" stroke-linejoin="round"/>
<path d="M688.333 48.1668L695.667 41.8335" stroke="black" stroke-miterlimit="10" stroke-linecap="round" stroke-linejoin="round"/>
<path d="M698.5 41.3335L705.5 43.6668" stroke="black" stroke-miterlimit="10" stroke-linejoin="round"/>
<path d="M715.833 33.8335L708.167 42.8335" stroke="black" stroke-miterlimit="10" stroke-linecap="round" stroke-linejoin="round"/>
</g>
<path d="M616.037 143V137.448H610.613V138.856H614.549C614.485 140.024 613.573 141.816 611.045 141.816C609.013 141.816 607.093 140.328 607.093 137.32C607.093 134.312 609.077 132.856 611.109 132.856C612.869 132.856 614.197 133.816 614.709 135.448L616.133 134.84C615.477 132.792 613.573 131.416 611.109 131.416C608.309 131.416 605.493 133.48 605.493 137.32C605.493 141.16 608.149 143.24 610.997 143.24C612.901 143.24 614.133 142.296 614.629 141.4L614.773 143H616.037ZM622.72 135.224C622.64 135.208 622.432 135.176 622.224 135.176C621.44 135.176 620.48 135.464 619.92 136.648V135.304H618.448V143H619.952V139.144C619.952 137.448 620.8 136.776 622.064 136.776C622.272 136.776 622.496 136.792 622.72 136.824V135.224ZM627.701 141.896C626.421 141.896 625.301 140.936 625.301 139.144C625.301 137.368 626.421 136.408 627.701 136.408C628.981 136.408 630.101 137.368 630.101 139.144C630.101 140.936 628.981 141.896 627.701 141.896ZM627.701 135.064C625.397 135.064 623.765 136.808 623.765 139.144C623.765 141.496 625.397 143.24 627.701 143.24C630.005 143.24 631.637 141.496 631.637 139.144C631.637 136.808 630.005 135.064 627.701 135.064ZM637.901 135.304L635.901 141.096L634.173 135.304H632.525L635.053 143H636.637L638.637 137.144L640.685 143H642.237L644.733 135.304H643.149L641.453 141.096L639.453 135.304H637.901ZM652.492 146.216L657.5 135.304H655.884L653.58 140.616L651.18 135.304H649.452L652.764 142.152L650.844 146.216H652.492ZM662.091 141.896C660.811 141.896 659.691 140.936 659.691 139.144C659.691 137.368 660.811 136.408 662.091 136.408C663.371 136.408 664.491 137.368 664.491 139.144C664.491 140.936 663.371 141.896 662.091 141.896ZM662.091 135.064C659.787 135.064 658.155 136.808 658.155 139.144C658.155 141.496 659.787 143.24 662.091 143.24C664.395 143.24 666.027 141.496 666.027 139.144C666.027 136.808 664.395 135.064 662.091 135.064ZM673.105 142.072C673.105 142.392 673.137 142.824 673.169 143H674.609C674.577 142.728 674.529 142.184 674.529 141.576V135.304H673.025V139.944C673.025 141.112 672.417 141.912 671.201 141.912C669.937 141.912 669.457 140.984 669.457 139.928V135.304H667.953V140.152C667.953 141.896 669.041 143.24 670.833 143.24C671.729 143.24 672.689 142.872 673.105 142.072ZM681.527 135.224C681.447 135.208 681.239 135.176 681.031 135.176C680.247 135.176 679.287 135.464 678.727 136.648V135.304H677.255V143H678.759V139.144C678.759 137.448 679.607 136.776 680.871 136.776C681.079 136.776 681.303 136.792 681.527 136.824V135.224ZM688.938 143V141.88C689.418 142.712 690.298 143.208 691.434 143.208C693.722 143.208 695.018 141.4 695.018 139.112C695.018 136.872 693.818 135.08 691.482 135.08C690.202 135.08 689.306 135.704 688.938 136.392V131.416H687.45V143H688.938ZM693.482 139.112C693.482 140.776 692.586 141.864 691.21 141.864C689.882 141.864 688.922 140.776 688.922 139.112C688.922 137.448 689.882 136.408 691.21 136.408C692.602 136.408 693.482 137.448 693.482 139.112ZM702.089 142.072C702.089 142.392 702.121 142.824 702.153 143H703.593C703.561 142.728 703.513 142.184 703.513 141.576V135.304H702.009V139.944C702.009 141.112 701.401 141.912 700.185 141.912C698.921 141.912 698.441 140.984 698.441 139.928V135.304H696.937V140.152C696.937 141.896 698.025 143.24 699.817 143.24C700.713 143.24 701.673 142.872 702.089 142.072ZM705.519 141C705.647 141.88 706.543 143.24 708.655 143.24C710.559 143.24 711.471 141.944 711.471 140.856C711.471 139.72 710.735 138.872 709.343 138.568L708.095 138.296C707.503 138.168 707.215 137.832 707.215 137.368C707.215 136.84 707.727 136.344 708.495 136.344C709.711 136.344 710.031 137.224 710.095 137.624L711.423 137.128C711.263 136.44 710.607 135.064 708.495 135.064C706.991 135.064 705.759 136.184 705.759 137.496C705.759 138.584 706.479 139.4 707.679 139.656L708.991 139.944C709.631 140.088 709.983 140.456 709.983 140.936C709.983 141.48 709.519 141.96 708.671 141.96C707.583 141.96 706.975 141.32 706.879 140.52L705.519 141ZM715.121 143V135.304H713.633V143H715.121ZM713.297 132.392C713.297 132.984 713.777 133.464 714.369 133.464C714.977 133.464 715.457 132.984 715.457 132.392C715.457 131.784 714.977 131.304 714.369 131.304C713.777 131.304 713.297 131.784 713.297 132.392ZM719.344 138.552C719.344 137.384 719.952 136.44 721.136 136.44C722.48 136.44 722.928 137.304 722.928 138.376V143H724.432V138.12C724.432 136.408 723.52 135.08 721.68 135.08C720.784 135.08 719.872 135.448 719.312 136.408V135.304H717.84V143H719.344V138.552ZM727.961 138.36C728.025 137.368 728.793 136.392 730.057 136.392C731.417 136.392 732.137 137.256 732.169 138.36H727.961ZM732.393 140.36C732.105 141.224 731.481 141.912 730.233 141.912C728.937 141.912 727.945 140.952 727.913 139.576H733.705C733.721 139.48 733.737 139.288 733.737 139.096C733.737 136.696 732.409 135.064 730.041 135.064C728.105 135.064 726.361 136.712 726.361 139.128C726.361 141.736 728.169 143.24 730.233 143.24C732.025 143.24 733.257 142.168 733.689 140.808L732.393 140.36ZM735.097 141C735.225 141.88 736.121 143.24 738.233 143.24C740.137 143.24 741.049 141.944 741.049 140.856C741.049 139.72 740.313 138.872 738.921 138.568L737.673 138.296C737.081 138.168 736.793 137.832 736.793 137.368C736.793 136.84 737.305 136.344 738.073 136.344C739.289 136.344 739.609 137.224 739.673 137.624L741.001 137.128C740.841 136.44 740.185 135.064 738.073 135.064C736.569 135.064 735.337 136.184 735.337 137.496C735.337 138.584 736.057 139.4 737.257 139.656L738.569 139.944C739.209 140.088 739.561 140.456 739.561 140.936C739.561 141.48 739.097 141.96 738.249 141.96C737.161 141.96 736.553 141.32 736.457 140.52L735.097 141ZM742.491 141C742.619 141.88 743.515 143.24 745.627 143.24C747.531 143.24 748.443 141.944 748.443 140.856C748.443 139.72 747.707 138.872 746.315 138.568L745.067 138.296C744.475 138.168 744.187 137.832 744.187 137.368C744.187 136.84 744.699 136.344 745.467 136.344C746.683 136.344 747.003 137.224 747.067 137.624L748.395 137.128C748.235 136.44 747.579 135.064 745.467 135.064C743.963 135.064 742.731 136.184 742.731 137.496C742.731 138.584 743.451 139.4 744.651 139.656L745.963 139.944C746.603 140.088 746.955 140.456 746.955 140.936C746.955 141.48 746.491 141.96 745.643 141.96C744.555 141.96 743.947 141.32 743.851 140.52L742.491 141ZM759.101 135.304L757.101 141.096L755.373 135.304H753.725L756.253 143H757.837L759.837 137.144L761.885 143H763.437L765.933 135.304H764.349L762.653 141.096L760.653 135.304H759.101ZM769.101 143V135.304H767.613V143H769.101ZM767.277 132.392C767.277 132.984 767.757 133.464 768.349 133.464C768.957 133.464 769.437 132.984 769.437 132.392C769.437 131.784 768.957 131.304 768.349 131.304C767.757 131.304 767.277 131.784 767.277 132.392ZM773.836 132.872H772.46V134.12C772.46 134.792 772.108 135.304 771.276 135.304H770.86V136.664H772.332V140.888C772.332 142.28 773.164 143.08 774.476 143.08C774.988 143.08 775.372 142.984 775.5 142.936V141.656C775.372 141.688 775.1 141.72 774.908 141.72C774.124 141.72 773.836 141.368 773.836 140.664V136.664H775.5V135.304H773.836V132.872ZM779.171 138.472C779.203 137.336 779.811 136.44 780.963 136.44C782.307 136.44 782.755 137.304 782.755 138.376V143H784.259V138.12C784.259 136.408 783.347 135.08 781.507 135.08C780.627 135.08 779.731 135.384 779.171 136.2V131.416H777.667V143H779.171V138.472ZM790.492 140.936C790.492 142.152 791.5 143.24 793.068 143.24C794.444 143.24 795.212 142.504 795.548 141.96C795.548 142.52 795.596 142.808 795.628 143H797.1C797.068 142.808 797.004 142.408 797.004 141.736V137.88C797.004 136.376 796.108 135.064 793.804 135.064C792.14 135.064 790.812 136.088 790.652 137.56L792.092 137.896C792.188 137 792.78 136.344 793.836 136.344C795.004 136.344 795.5 136.968 795.5 137.72C795.5 137.992 795.372 138.232 794.908 138.296L792.828 138.6C791.5 138.792 790.492 139.56 790.492 140.936ZM793.276 141.976C792.508 141.976 792.028 141.432 792.028 140.856C792.028 140.168 792.508 139.8 793.148 139.704L795.5 139.352V139.704C795.5 141.384 794.508 141.976 793.276 141.976ZM661.313 168C661.441 168.88 662.337 170.24 664.449 170.24C666.353 170.24 667.265 168.944 667.265 167.856C667.265 166.72 666.529 165.872 665.137 165.568L663.889 165.296C663.297 165.168 663.009 164.832 663.009 164.368C663.009 163.84 663.521 163.344 664.289 163.344C665.505 163.344 665.825 164.224 665.889 164.624L667.217 164.128C667.057 163.44 666.401 162.064 664.289 162.064C662.785 162.064 661.553 163.184 661.553 164.496C661.553 165.584 662.273 166.4 663.473 166.656L664.785 166.944C665.425 167.088 665.777 167.456 665.777 167.936C665.777 168.48 665.313 168.96 664.465 168.96C663.377 168.96 662.769 168.32 662.673 167.52L661.313 168ZM670.915 170V162.304H669.427V170H670.915ZM669.091 159.392C669.091 159.984 669.571 160.464 670.163 160.464C670.771 160.464 671.251 159.984 671.251 159.392C671.251 158.784 670.771 158.304 670.163 158.304C669.571 158.304 669.091 158.784 669.091 159.392ZM675.138 165.552C675.138 164.384 675.746 163.44 676.93 163.44C678.274 163.44 678.722 164.304 678.722 165.376V170H680.226V165.12C680.226 163.408 679.314 162.08 677.474 162.08C676.578 162.08 675.666 162.448 675.106 163.408V162.304H673.634V170H675.138V165.552ZM682.218 170.416C682.41 172.064 683.85 173.28 685.77 173.28C688.666 173.28 689.626 171.376 689.626 169.424V162.304H688.138V163.376C687.754 162.608 686.954 162.16 685.77 162.16C683.658 162.16 682.234 163.824 682.234 165.904C682.234 168.08 683.722 169.632 685.77 169.632C686.922 169.632 687.754 169.072 688.122 168.368V169.472C688.122 171.136 687.386 171.968 685.77 171.968C684.602 171.968 683.786 171.152 683.674 170.08L682.218 170.416ZM685.994 168.368C684.634 168.368 683.77 167.408 683.77 165.904C683.77 164.416 684.666 163.44 685.994 163.44C687.29 163.44 688.186 164.416 688.186 165.904C688.186 167.392 687.29 168.368 685.994 168.368ZM693.692 170V158.416H692.188V170H693.692ZM697.387 165.36C697.451 164.368 698.219 163.392 699.483 163.392C700.843 163.392 701.563 164.256 701.595 165.36H697.387ZM701.819 167.36C701.531 168.224 700.907 168.912 699.659 168.912C698.363 168.912 697.371 167.952 697.339 166.576H703.131C703.147 166.48 703.163 166.288 703.163 166.096C703.163 163.696 701.835 162.064 699.467 162.064C697.531 162.064 695.787 163.712 695.787 166.128C695.787 168.736 697.595 170.24 699.659 170.24C701.451 170.24 702.683 169.168 703.115 167.808L701.819 167.36ZM712.635 163.456C713.947 163.456 714.507 164.336 714.699 165.088L716.059 164.512C715.739 163.344 714.683 162.064 712.635 162.064C710.443 162.064 708.763 163.744 708.763 166.144C708.763 168.48 710.411 170.24 712.651 170.24C714.651 170.24 715.755 168.944 716.123 167.84L714.795 167.264C714.619 167.872 714.091 168.848 712.651 168.848C711.403 168.848 710.299 167.904 710.299 166.144C710.299 164.352 711.419 163.456 712.635 163.456ZM719.551 170V158.416H718.047V170H719.551ZM723.758 170V162.304H722.27V170H723.758ZM721.934 159.392C721.934 159.984 722.414 160.464 723.006 160.464C723.614 160.464 724.094 159.984 724.094 159.392C724.094 158.784 723.614 158.304 723.006 158.304C722.414 158.304 721.934 158.784 721.934 159.392ZM729.709 163.456C731.021 163.456 731.581 164.336 731.773 165.088L733.133 164.512C732.813 163.344 731.757 162.064 729.709 162.064C727.517 162.064 725.837 163.744 725.837 166.144C725.837 168.48 727.485 170.24 729.725 170.24C731.725 170.24 732.829 168.944 733.197 167.84L731.869 167.264C731.693 167.872 731.165 168.848 729.725 168.848C728.477 168.848 727.373 167.904 727.373 166.144C727.373 164.352 728.493 163.456 729.709 163.456ZM742.017 162.304H739.937L736.609 165.712V158.416H735.121V170H736.609V167.68L737.681 166.608L740.193 170H742.081L738.737 165.552L742.017 162.304Z" fill="#000C2D"/>
</g>
<defs>
<clipPath id="clip0_0_1">
<rect width="236" height="178" fill="white" transform="translate(298)"/>
</clipPath>
<clipPath id="clip1_0_1">
<rect width="48" height="48" fill="white" transform="translate(397 30)"/>
</clipPath>
<clipPath id="clip2_0_1">
<rect width="223" height="178" fill="white" transform="translate(590)"/>
</clipPath>
<clipPath id="clip3_0_1">
<rect width="40" height="40" fill="white" transform="translate(682 30)"/>
</clipPath>
</defs>
</svg>
