<svg width="162" height="27" viewBox="0 0 162 27" fill="none" xmlns="http://www.w3.org/2000/svg">
<rect width="67" height="27" fill="#E8EDE8"/>
<path d="M13.9064 18.09C13.0664 18.09 12.3414 17.97 11.7314 17.73C11.1314 17.49 10.6664 17.145 10.3364 16.695C10.0164 16.235 9.85635 15.695 9.85635 15.075C9.85635 14.475 10.0114 13.965 10.3214 13.545C10.6414 13.115 11.1014 12.785 11.7014 12.555C12.3114 12.325 13.0464 12.21 13.9064 12.21C14.7564 12.21 15.4864 12.325 16.0964 12.555C16.7064 12.785 17.1714 13.115 17.4914 13.545C17.8214 13.965 17.9864 14.475 17.9864 15.075C17.9864 15.695 17.8214 16.235 17.4914 16.695C17.1614 17.145 16.6914 17.49 16.0814 17.73C15.4714 17.97 14.7464 18.09 13.9064 18.09ZM13.9064 17.175C14.8364 17.175 15.5614 16.985 16.0814 16.605C16.6114 16.225 16.8764 15.71 16.8764 15.06C16.8764 14.41 16.6114 13.9 16.0814 13.53C15.5614 13.15 14.8364 12.96 13.9064 12.96C12.9764 12.96 12.2514 13.15 11.7314 13.53C11.2114 13.9 10.9514 14.41 10.9514 15.06C10.9514 15.71 11.2114 16.225 11.7314 16.605C12.2514 16.985 12.9764 17.175 13.9064 17.175ZM13.9064 12.825C13.1264 12.825 12.4614 12.72 11.9114 12.51C11.3714 12.3 10.9564 12 10.6664 11.61C10.3764 11.21 10.2314 10.735 10.2314 10.185C10.2314 9.605 10.3814 9.11 10.6814 8.7C10.9914 8.28 11.4214 7.96 11.9714 7.74C12.5214 7.52 13.1664 7.41 13.9064 7.41C14.6464 7.41 15.2914 7.52 15.8414 7.74C16.4014 7.96 16.8364 8.28 17.1464 8.7C17.4564 9.11 17.6114 9.605 17.6114 10.185C17.6114 10.735 17.4664 11.21 17.1764 11.61C16.8864 12 16.4614 12.3 15.9014 12.51C15.3514 12.72 14.6864 12.825 13.9064 12.825ZM13.9064 12.105C14.7264 12.105 15.3664 11.935 15.8264 11.595C16.2864 11.255 16.5164 10.8 16.5164 10.23C16.5164 9.63 16.2764 9.165 15.7964 8.835C15.3264 8.495 14.6964 8.325 13.9064 8.325C13.1164 8.325 12.4864 8.495 12.0164 8.835C11.5464 9.165 11.3114 9.625 11.3114 10.215C11.3114 10.795 11.5364 11.255 11.9864 11.595C12.4464 11.935 13.0864 12.105 13.9064 12.105ZM24.1126 18V10.125H25.1776V18H24.1126ZM24.6526 8.385C24.4326 8.385 24.2476 8.31 24.0976 8.16C23.9476 8.01 23.8726 7.83 23.8726 7.62C23.8726 7.41 23.9476 7.235 24.0976 7.095C24.2476 6.945 24.4326 6.87 24.6526 6.87C24.8726 6.87 25.0576 6.94 25.2076 7.08C25.3576 7.22 25.4326 7.395 25.4326 7.605C25.4326 7.825 25.3576 8.01 25.2076 8.16C25.0676 8.31 24.8826 8.385 24.6526 8.385ZM32.1609 10.05C32.8009 10.05 33.3609 10.175 33.8409 10.425C34.3309 10.665 34.7109 11.035 34.9809 11.535C35.2609 12.035 35.4009 12.665 35.4009 13.425V18H34.3359V13.53C34.3359 12.7 34.1259 12.075 33.7059 11.655C33.2959 11.225 32.7159 11.01 31.9659 11.01C31.4059 11.01 30.9159 11.125 30.4959 11.355C30.0859 11.575 29.7659 11.9 29.5359 12.33C29.3159 12.75 29.2059 13.26 29.2059 13.86V18H28.1409V10.125H29.1609V12.285L28.9959 11.88C29.2459 11.31 29.6459 10.865 30.1959 10.545C30.7459 10.215 31.4009 10.05 32.1609 10.05ZM41.5476 18.075C40.7676 18.075 40.0676 17.905 39.4476 17.565C38.8376 17.215 38.3576 16.74 38.0076 16.14C37.6576 15.53 37.4826 14.835 37.4826 14.055C37.4826 13.265 37.6576 12.57 38.0076 11.97C38.3576 11.37 38.8376 10.9 39.4476 10.56C40.0676 10.22 40.7676 10.05 41.5476 10.05C42.2176 10.05 42.8226 10.18 43.3626 10.44C43.9026 10.7 44.3276 11.09 44.6376 11.61L43.8426 12.15C43.5726 11.75 43.2376 11.455 42.8376 11.265C42.4376 11.075 42.0026 10.98 41.5326 10.98C40.9726 10.98 40.4676 11.11 40.0176 11.37C39.5676 11.62 39.2126 11.975 38.9526 12.435C38.6926 12.895 38.5626 13.435 38.5626 14.055C38.5626 14.675 38.6926 15.215 38.9526 15.675C39.2126 16.135 39.5676 16.495 40.0176 16.755C40.4676 17.005 40.9726 17.13 41.5326 17.13C42.0026 17.13 42.4376 17.035 42.8376 16.845C43.2376 16.655 43.5726 16.365 43.8426 15.975L44.6376 16.515C44.3276 17.025 43.9026 17.415 43.3626 17.685C42.8226 17.945 42.2176 18.075 41.5476 18.075ZM50.6326 10.05C51.2726 10.05 51.8326 10.175 52.3126 10.425C52.8026 10.665 53.1826 11.035 53.4526 11.535C53.7326 12.035 53.8726 12.665 53.8726 13.425V18H52.8076V13.53C52.8076 12.7 52.5976 12.075 52.1776 11.655C51.7676 11.225 51.1876 11.01 50.4376 11.01C49.8776 11.01 49.3876 11.125 48.9676 11.355C48.5576 11.575 48.2376 11.9 48.0076 12.33C47.7876 12.75 47.6776 13.26 47.6776 13.86V18H46.6126V6.87H47.6776V12.285L47.4676 11.88C47.7176 11.31 48.1176 10.865 48.6676 10.545C49.2176 10.215 49.8726 10.05 50.6326 10.05Z" fill="#4C864A"/>
<rect x="93" width="69" height="27" fill="#E8EDE8"/>
<path d="M102.928 18V7.95L103.408 8.46H100.453V7.5H104.008V18H102.928ZM110.703 18.09C109.893 18.09 109.173 17.88 108.543 17.46C107.913 17.03 107.418 16.42 107.058 15.63C106.698 14.83 106.518 13.87 106.518 12.75C106.518 11.63 106.698 10.675 107.058 9.885C107.418 9.085 107.913 8.475 108.543 8.055C109.173 7.625 109.893 7.41 110.703 7.41C111.513 7.41 112.233 7.625 112.863 8.055C113.493 8.475 113.988 9.085 114.348 9.885C114.718 10.675 114.903 11.63 114.903 12.75C114.903 13.87 114.718 14.83 114.348 15.63C113.988 16.42 113.493 17.03 112.863 17.46C112.233 17.88 111.513 18.09 110.703 18.09ZM110.703 17.1C111.323 17.1 111.863 16.935 112.323 16.605C112.783 16.265 113.143 15.775 113.403 15.135C113.663 14.485 113.793 13.69 113.793 12.75C113.793 11.81 113.663 11.02 113.403 10.38C113.143 9.73 112.783 9.24 112.323 8.91C111.863 8.57 111.323 8.4 110.703 8.4C110.103 8.4 109.568 8.57 109.098 8.91C108.628 9.24 108.263 9.73 108.003 10.38C107.743 11.02 107.613 11.81 107.613 12.75C107.613 13.69 107.743 14.485 108.003 15.135C108.263 15.775 108.628 16.265 109.098 16.605C109.568 16.935 110.103 17.1 110.703 17.1ZM121.081 18V10.125H122.146V18H121.081ZM121.621 8.385C121.401 8.385 121.216 8.31 121.066 8.16C120.916 8.01 120.841 7.83 120.841 7.62C120.841 7.41 120.916 7.235 121.066 7.095C121.216 6.945 121.401 6.87 121.621 6.87C121.841 6.87 122.026 6.94 122.176 7.08C122.326 7.22 122.401 7.395 122.401 7.605C122.401 7.825 122.326 8.01 122.176 8.16C122.036 8.31 121.851 8.385 121.621 8.385ZM129.129 10.05C129.769 10.05 130.329 10.175 130.809 10.425C131.299 10.665 131.679 11.035 131.949 11.535C132.229 12.035 132.369 12.665 132.369 13.425V18H131.304V13.53C131.304 12.7 131.094 12.075 130.674 11.655C130.264 11.225 129.684 11.01 128.934 11.01C128.374 11.01 127.884 11.125 127.464 11.355C127.054 11.575 126.734 11.9 126.504 12.33C126.284 12.75 126.174 13.26 126.174 13.86V18H125.109V10.125H126.129V12.285L125.964 11.88C126.214 11.31 126.614 10.865 127.164 10.545C127.714 10.215 128.369 10.05 129.129 10.05ZM138.516 18.075C137.736 18.075 137.036 17.905 136.416 17.565C135.806 17.215 135.326 16.74 134.976 16.14C134.626 15.53 134.451 14.835 134.451 14.055C134.451 13.265 134.626 12.57 134.976 11.97C135.326 11.37 135.806 10.9 136.416 10.56C137.036 10.22 137.736 10.05 138.516 10.05C139.186 10.05 139.791 10.18 140.331 10.44C140.871 10.7 141.296 11.09 141.606 11.61L140.811 12.15C140.541 11.75 140.206 11.455 139.806 11.265C139.406 11.075 138.971 10.98 138.501 10.98C137.941 10.98 137.436 11.11 136.986 11.37C136.536 11.62 136.181 11.975 135.921 12.435C135.661 12.895 135.531 13.435 135.531 14.055C135.531 14.675 135.661 15.215 135.921 15.675C136.181 16.135 136.536 16.495 136.986 16.755C137.436 17.005 137.941 17.13 138.501 17.13C138.971 17.13 139.406 17.035 139.806 16.845C140.206 16.655 140.541 16.365 140.811 15.975L141.606 16.515C141.296 17.025 140.871 17.415 140.331 17.685C139.791 17.945 139.186 18.075 138.516 18.075ZM147.601 10.05C148.241 10.05 148.801 10.175 149.281 10.425C149.771 10.665 150.151 11.035 150.421 11.535C150.701 12.035 150.841 12.665 150.841 13.425V18H149.776V13.53C149.776 12.7 149.566 12.075 149.146 11.655C148.736 11.225 148.156 11.01 147.406 11.01C146.846 11.01 146.356 11.125 145.936 11.355C145.526 11.575 145.206 11.9 144.976 12.33C144.756 12.75 144.646 13.26 144.646 13.86V18H143.581V6.87H144.646V12.285L144.436 11.88C144.686 11.31 145.086 10.865 145.636 10.545C146.186 10.215 146.841 10.05 147.601 10.05Z" fill="#4C864A"/>
</svg>
