<svg width="125" height="27" viewBox="0 0 125 27" fill="none" xmlns="http://www.w3.org/2000/svg">
<path d="M4.605 18.09C3.825 18.09 3.075 17.965 2.355 17.715C1.645 17.455 1.095 17.125 0.705 16.725L1.14 15.87C1.51 16.23 2.005 16.535 2.625 16.785C3.255 17.025 3.915 17.145 4.605 17.145C5.265 17.145 5.8 17.065 6.21 16.905C6.63 16.735 6.935 16.51 7.125 16.23C7.325 15.95 7.425 15.64 7.425 15.3C7.425 14.89 7.305 14.56 7.065 14.31C6.835 14.06 6.53 13.865 6.15 13.725C5.77 13.575 5.35 13.445 4.89 13.335C4.43 13.225 3.97 13.11 3.51 12.99C3.05 12.86 2.625 12.69 2.235 12.48C1.855 12.27 1.545 11.995 1.305 11.655C1.075 11.305 0.96 10.85 0.96 10.29C0.96 9.77 1.095 9.295 1.365 8.865C1.645 8.425 2.07 8.075 2.64 7.815C3.21 7.545 3.94 7.41 4.83 7.41C5.42 7.41 6.005 7.495 6.585 7.665C7.165 7.825 7.665 8.05 8.085 8.34L7.71 9.225C7.26 8.925 6.78 8.705 6.27 8.565C5.77 8.425 5.285 8.355 4.815 8.355C4.185 8.355 3.665 8.44 3.255 8.61C2.845 8.78 2.54 9.01 2.34 9.3C2.15 9.58 2.055 9.9 2.055 10.26C2.055 10.67 2.17 11 2.4 11.25C2.64 11.5 2.95 11.695 3.33 11.835C3.72 11.975 4.145 12.1 4.605 12.21C5.065 12.32 5.52 12.44 5.97 12.57C6.43 12.7 6.85 12.87 7.23 13.08C7.62 13.28 7.93 13.55 8.16 13.89C8.4 14.23 8.52 14.675 8.52 15.225C8.52 15.735 8.38 16.21 8.1 16.65C7.82 17.08 7.39 17.43 6.81 17.7C6.24 17.96 5.505 18.09 4.605 18.09ZM10.7135 18V10.125H11.7785V18H10.7135ZM11.2535 8.385C11.0335 8.385 10.8485 8.31 10.6985 8.16C10.5485 8.01 10.4735 7.83 10.4735 7.62C10.4735 7.41 10.5485 7.235 10.6985 7.095C10.8485 6.945 11.0335 6.87 11.2535 6.87C11.4735 6.87 11.6585 6.94 11.8085 7.08C11.9585 7.22 12.0335 7.395 12.0335 7.605C12.0335 7.825 11.9585 8.01 11.8085 8.16C11.6685 8.31 11.4835 8.385 11.2535 8.385ZM13.8868 18V17.295L19.1368 10.65L19.3618 11.01H13.9768V10.125H20.2018V10.815L14.9668 17.475L14.6968 17.115H20.3068V18H13.8868ZM25.6161 18.075C24.7961 18.075 24.0761 17.905 23.4561 17.565C22.8361 17.215 22.3511 16.74 22.0011 16.14C21.6511 15.53 21.4761 14.835 21.4761 14.055C21.4761 13.275 21.6411 12.585 21.9711 11.985C22.3111 11.385 22.7711 10.915 23.3511 10.575C23.9411 10.225 24.6011 10.05 25.3311 10.05C26.0711 10.05 26.7261 10.22 27.2961 10.56C27.8761 10.89 28.3311 11.36 28.6611 11.97C28.9911 12.57 29.1561 13.265 29.1561 14.055C29.1561 14.105 29.1511 14.16 29.1411 14.22C29.1411 14.27 29.1411 14.325 29.1411 14.385H22.2861V13.59H28.5711L28.1511 13.905C28.1511 13.335 28.0261 12.83 27.7761 12.39C27.5361 11.94 27.2061 11.59 26.7861 11.34C26.3661 11.09 25.8811 10.965 25.3311 10.965C24.7911 10.965 24.3061 11.09 23.8761 11.34C23.4461 11.59 23.1111 11.94 22.8711 12.39C22.6311 12.84 22.5111 13.355 22.5111 13.935V14.1C22.5111 14.7 22.6411 15.23 22.9011 15.69C23.1711 16.14 23.5411 16.495 24.0111 16.755C24.4911 17.005 25.0361 17.13 25.6461 17.13C26.1261 17.13 26.5711 17.045 26.9811 16.875C27.4011 16.705 27.7611 16.445 28.0611 16.095L28.6611 16.785C28.3111 17.205 27.8711 17.525 27.3411 17.745C26.8211 17.965 26.2461 18.075 25.6161 18.075ZM31.4289 11.685C31.2089 11.685 31.0189 11.605 30.8589 11.445C30.7089 11.285 30.6339 11.09 30.6339 10.86C30.6339 10.62 30.7089 10.425 30.8589 10.275C31.0189 10.125 31.2089 10.05 31.4289 10.05C31.6489 10.05 31.8339 10.125 31.9839 10.275C32.1439 10.425 32.2239 10.62 32.2239 10.86C32.2239 11.09 32.1439 11.285 31.9839 11.445C31.8339 11.605 31.6489 11.685 31.4289 11.685ZM31.4289 18.075C31.2089 18.075 31.0189 17.995 30.8589 17.835C30.7089 17.675 30.6339 17.48 30.6339 17.25C30.6339 17.01 30.7089 16.815 30.8589 16.665C31.0189 16.515 31.2089 16.44 31.4289 16.44C31.6489 16.44 31.8339 16.515 31.9839 16.665C32.1439 16.815 32.2239 17.01 32.2239 17.25C32.2239 17.48 32.1439 17.675 31.9839 17.835C31.8339 17.995 31.6489 18.075 31.4289 18.075Z" fill="#4C864A"/>
<rect x="56" width="69" height="27" fill="#E8EDE8"/>
<path d="M70.4941 18.09C69.5641 18.09 68.7791 17.885 68.1391 17.475C67.4991 17.055 67.0141 16.455 66.6841 15.675C66.3541 14.885 66.1891 13.94 66.1891 12.84C66.1891 11.65 66.3891 10.655 66.7891 9.855C67.1991 9.045 67.7641 8.435 68.4841 8.025C69.2041 7.615 70.0391 7.41 70.9891 7.41C71.4591 7.41 71.9091 7.455 72.3391 7.545C72.7691 7.635 73.1491 7.78 73.4791 7.98L73.0441 8.85C72.7741 8.67 72.4641 8.545 72.1141 8.475C71.7641 8.395 71.3941 8.355 71.0041 8.355C69.8741 8.355 68.9691 8.715 68.2891 9.435C67.6191 10.155 67.2841 11.23 67.2841 12.66C67.2841 12.88 67.2941 13.155 67.3141 13.485C67.3441 13.805 67.4041 14.125 67.4941 14.445L67.1191 14.16C67.2291 13.64 67.4441 13.2 67.7641 12.84C68.0841 12.47 68.4841 12.19 68.9641 12C69.4441 11.81 69.9691 11.715 70.5391 11.715C71.2391 11.715 71.8541 11.845 72.3841 12.105C72.9141 12.365 73.3291 12.73 73.6291 13.2C73.9291 13.67 74.0791 14.225 74.0791 14.865C74.0791 15.515 73.9241 16.085 73.6141 16.575C73.3041 17.055 72.8741 17.43 72.3241 17.7C71.7841 17.96 71.1741 18.09 70.4941 18.09ZM70.4491 17.175C70.9491 17.175 71.3891 17.085 71.7691 16.905C72.1591 16.715 72.4641 16.45 72.6841 16.11C72.9041 15.76 73.0141 15.355 73.0141 14.895C73.0141 14.205 72.7741 13.655 72.2941 13.245C71.8241 12.835 71.1841 12.63 70.3741 12.63C69.8341 12.63 69.3641 12.73 68.9641 12.93C68.5641 13.13 68.2491 13.405 68.0191 13.755C67.7891 14.095 67.6741 14.485 67.6741 14.925C67.6741 15.305 67.7791 15.67 67.9891 16.02C68.1991 16.36 68.5091 16.64 68.9191 16.86C69.3391 17.07 69.8491 17.175 70.4491 17.175ZM79.9605 18V10.125H81.0255V18H79.9605ZM80.5005 8.385C80.2805 8.385 80.0955 8.31 79.9455 8.16C79.7955 8.01 79.7205 7.83 79.7205 7.62C79.7205 7.41 79.7955 7.235 79.9455 7.095C80.0955 6.945 80.2805 6.87 80.5005 6.87C80.7205 6.87 80.9055 6.94 81.0555 7.08C81.2055 7.22 81.2805 7.395 81.2805 7.605C81.2805 7.825 81.2055 8.01 81.0555 8.16C80.9155 8.31 80.7305 8.385 80.5005 8.385ZM88.0088 10.05C88.6488 10.05 89.2088 10.175 89.6888 10.425C90.1788 10.665 90.5588 11.035 90.8288 11.535C91.1088 12.035 91.2488 12.665 91.2488 13.425V18H90.1838V13.53C90.1838 12.7 89.9738 12.075 89.5538 11.655C89.1438 11.225 88.5638 11.01 87.8138 11.01C87.2538 11.01 86.7638 11.125 86.3438 11.355C85.9338 11.575 85.6138 11.9 85.3838 12.33C85.1638 12.75 85.0538 13.26 85.0538 13.86V18H83.9888V10.125H85.0088V12.285L84.8438 11.88C85.0938 11.31 85.4938 10.865 86.0438 10.545C86.5938 10.215 87.2488 10.05 88.0088 10.05ZM97.3955 18.075C96.6155 18.075 95.9155 17.905 95.2955 17.565C94.6855 17.215 94.2055 16.74 93.8555 16.14C93.5055 15.53 93.3305 14.835 93.3305 14.055C93.3305 13.265 93.5055 12.57 93.8555 11.97C94.2055 11.37 94.6855 10.9 95.2955 10.56C95.9155 10.22 96.6155 10.05 97.3955 10.05C98.0655 10.05 98.6705 10.18 99.2105 10.44C99.7505 10.7 100.176 11.09 100.486 11.61L99.6905 12.15C99.4205 11.75 99.0855 11.455 98.6855 11.265C98.2855 11.075 97.8505 10.98 97.3805 10.98C96.8205 10.98 96.3155 11.11 95.8655 11.37C95.4155 11.62 95.0605 11.975 94.8005 12.435C94.5405 12.895 94.4105 13.435 94.4105 14.055C94.4105 14.675 94.5405 15.215 94.8005 15.675C95.0605 16.135 95.4155 16.495 95.8655 16.755C96.3155 17.005 96.8205 17.13 97.3805 17.13C97.8505 17.13 98.2855 17.035 98.6855 16.845C99.0855 16.655 99.4205 16.365 99.6905 15.975L100.486 16.515C100.176 17.025 99.7505 17.415 99.2105 17.685C98.6705 17.945 98.0655 18.075 97.3955 18.075ZM106.48 10.05C107.12 10.05 107.68 10.175 108.16 10.425C108.65 10.665 109.03 11.035 109.3 11.535C109.58 12.035 109.72 12.665 109.72 13.425V18H108.655V13.53C108.655 12.7 108.445 12.075 108.025 11.655C107.615 11.225 107.035 11.01 106.285 11.01C105.725 11.01 105.235 11.125 104.815 11.355C104.405 11.575 104.085 11.9 103.855 12.33C103.635 12.75 103.525 13.26 103.525 13.86V18H102.46V6.87H103.525V12.285L103.315 11.88C103.565 11.31 103.965 10.865 104.515 10.545C105.065 10.215 105.72 10.05 106.48 10.05Z" fill="#4C864A"/>
</svg>
