<svg width="105" height="24" viewBox="0 0 105 24" fill="none" xmlns="http://www.w3.org/2000/svg">
<rect width="105" height="24" rx="10" fill="#4C864A"/>
<path d="M6.984 18L12.056 6.8H13.64L18.728 18H17.048L12.52 7.696H13.16L8.632 18H6.984ZM9.144 15.2L9.576 13.92H15.88L16.344 15.2H9.144ZM23.6006 18.096C22.7793 18.096 22.0433 17.9147 21.3926 17.552C20.7526 17.1893 20.246 16.6827 19.8726 16.032C19.4993 15.3813 19.3126 14.624 19.3126 13.76C19.3126 12.896 19.4993 12.144 19.8726 11.504C20.246 10.8533 20.7526 10.3467 21.3926 9.984C22.0433 9.62133 22.7793 9.44 23.6006 9.44C24.3153 9.44 24.9606 9.6 25.5366 9.92C26.1126 10.24 26.5713 10.72 26.9126 11.36C27.2646 12 27.4406 12.8 27.4406 13.76C27.4406 14.72 27.27 15.52 26.9286 16.16C26.598 16.8 26.1446 17.2853 25.5686 17.616C24.9926 17.936 24.3366 18.096 23.6006 18.096ZM23.7286 16.752C24.262 16.752 24.742 16.6293 25.1686 16.384C25.606 16.1387 25.9473 15.792 26.1926 15.344C26.4486 14.8853 26.5766 14.3573 26.5766 13.76C26.5766 13.152 26.4486 12.6293 26.1926 12.192C25.9473 11.744 25.606 11.3973 25.1686 11.152C24.742 10.9067 24.262 10.784 23.7286 10.784C23.1846 10.784 22.6993 10.9067 22.2726 11.152C21.846 11.3973 21.5046 11.744 21.2486 12.192C20.9926 12.6293 20.8646 13.152 20.8646 13.76C20.8646 14.3573 20.9926 14.8853 21.2486 15.344C21.5046 15.792 21.846 16.1387 22.2726 16.384C22.6993 16.6293 23.1846 16.752 23.7286 16.752ZM26.6246 18V15.712L26.7206 13.744L26.5606 11.776V6.128H28.0966V18H26.6246ZM34.5069 18.096C33.6855 18.096 32.9495 17.9147 32.2989 17.552C31.6589 17.1893 31.1522 16.6827 30.7789 16.032C30.4055 15.3813 30.2189 14.624 30.2189 13.76C30.2189 12.896 30.4055 12.144 30.7789 11.504C31.1522 10.8533 31.6589 10.3467 32.2989 9.984C32.9495 9.62133 33.6855 9.44 34.5069 9.44C35.2215 9.44 35.8669 9.6 36.4429 9.92C37.0189 10.24 37.4775 10.72 37.8189 11.36C38.1709 12 38.3469 12.8 38.3469 13.76C38.3469 14.72 38.1762 15.52 37.8349 16.16C37.5042 16.8 37.0509 17.2853 36.4749 17.616C35.8989 17.936 35.2429 18.096 34.5069 18.096ZM34.6349 16.752C35.1682 16.752 35.6482 16.6293 36.0749 16.384C36.5122 16.1387 36.8535 15.792 37.0989 15.344C37.3549 14.8853 37.4829 14.3573 37.4829 13.76C37.4829 13.152 37.3549 12.6293 37.0989 12.192C36.8535 11.744 36.5122 11.3973 36.0749 11.152C35.6482 10.9067 35.1682 10.784 34.6349 10.784C34.0909 10.784 33.6055 10.9067 33.1789 11.152C32.7522 11.3973 32.4109 11.744 32.1549 12.192C31.8989 12.6293 31.7709 13.152 31.7709 13.76C31.7709 14.3573 31.8989 14.8853 32.1549 15.344C32.4109 15.792 32.7522 16.1387 33.1789 16.384C33.6055 16.6293 34.0909 16.752 34.6349 16.752ZM37.5309 18V15.712L37.6269 13.744L37.4669 11.776V6.128H39.0029V18H37.5309ZM49.118 18.096C48.2647 18.096 47.6033 17.8667 47.134 17.408C46.6647 16.9493 46.43 16.2933 46.43 15.44V7.664H47.966V15.376C47.966 15.8347 48.078 16.1867 48.302 16.432C48.5367 16.6773 48.8673 16.8 49.294 16.8C49.774 16.8 50.174 16.6667 50.494 16.4L50.974 17.504C50.7393 17.7067 50.4567 17.856 50.126 17.952C49.806 18.048 49.47 18.096 49.118 18.096ZM44.99 10.784V9.52H50.398V10.784H44.99ZM56.1818 18.096C55.3284 18.096 54.5711 17.9093 53.9098 17.536C53.2484 17.1627 52.7258 16.6507 52.3418 16C51.9578 15.3387 51.7658 14.592 51.7658 13.76C51.7658 12.9173 51.9578 12.1707 52.3418 11.52C52.7258 10.8693 53.2484 10.3627 53.9098 10C54.5711 9.62667 55.3284 9.44 56.1818 9.44C57.0244 9.44 57.7764 9.62667 58.4378 10C59.1098 10.3627 59.6324 10.8693 60.0058 11.52C60.3898 12.16 60.5818 12.9067 60.5818 13.76C60.5818 14.6027 60.3898 15.3493 60.0058 16C59.6324 16.6507 59.1098 17.1627 58.4378 17.536C57.7764 17.9093 57.0244 18.096 56.1818 18.096ZM56.1818 16.752C56.7258 16.752 57.2111 16.6293 57.6378 16.384C58.0751 16.1387 58.4164 15.792 58.6618 15.344C58.9071 14.8853 59.0298 14.3573 59.0298 13.76C59.0298 13.152 58.9071 12.6293 58.6618 12.192C58.4164 11.744 58.0751 11.3973 57.6378 11.152C57.2111 10.9067 56.7258 10.784 56.1818 10.784C55.6378 10.784 55.1524 10.9067 54.7258 11.152C54.2991 11.3973 53.9578 11.744 53.7018 12.192C53.4458 12.6293 53.3178 13.152 53.3178 13.76C53.3178 14.3573 53.4458 14.8853 53.7018 15.344C53.9578 15.792 54.2991 16.1387 54.7258 16.384C55.1524 16.6293 55.6378 16.752 56.1818 16.752ZM70.6989 18.096C69.8349 18.096 69.0615 17.9093 68.3789 17.536C67.7069 17.1627 67.1789 16.6507 66.7949 16C66.4109 15.3493 66.2189 14.6027 66.2189 13.76C66.2189 12.9173 66.4109 12.1707 66.7949 11.52C67.1789 10.8693 67.7069 10.3627 68.3789 10C69.0615 9.62667 69.8349 9.44 70.6989 9.44C71.4669 9.44 72.1495 9.59467 72.7469 9.904C73.3549 10.2027 73.8242 10.6507 74.1549 11.248L72.9869 12C72.7095 11.584 72.3682 11.28 71.9629 11.088C71.5682 10.8853 71.1415 10.784 70.6829 10.784C70.1282 10.784 69.6322 10.9067 69.1949 11.152C68.7575 11.3973 68.4109 11.744 68.1549 12.192C67.8989 12.6293 67.7709 13.152 67.7709 13.76C67.7709 14.368 67.8989 14.896 68.1549 15.344C68.4109 15.792 68.7575 16.1387 69.1949 16.384C69.6322 16.6293 70.1282 16.752 70.6829 16.752C71.1415 16.752 71.5682 16.656 71.9629 16.464C72.3682 16.2613 72.7095 15.952 72.9869 15.536L74.1549 16.272C73.8242 16.8587 73.3549 17.312 72.7469 17.632C72.1495 17.9413 71.4669 18.096 70.6989 18.096ZM81.4075 18V16.208L81.3275 15.872V12.816C81.3275 12.1653 81.1355 11.664 80.7515 11.312C80.3782 10.9493 79.8128 10.768 79.0555 10.768C78.5542 10.768 78.0635 10.8533 77.5835 11.024C77.1035 11.184 76.6982 11.4027 76.3675 11.68L75.7275 10.528C76.1648 10.176 76.6875 9.90933 77.2955 9.728C77.9142 9.536 78.5595 9.44 79.2315 9.44C80.3942 9.44 81.2902 9.72267 81.9195 10.288C82.5488 10.8533 82.8635 11.7173 82.8635 12.88V18H81.4075ZM78.6235 18.096C77.9942 18.096 77.4395 17.9893 76.9595 17.776C76.4902 17.5627 76.1275 17.2693 75.8715 16.896C75.6155 16.512 75.4875 16.08 75.4875 15.6C75.4875 15.1413 75.5942 14.7253 75.8075 14.352C76.0315 13.9787 76.3888 13.68 76.8795 13.456C77.3808 13.232 78.0528 13.12 78.8955 13.12H81.5835V14.224H78.9595C78.1915 14.224 77.6742 14.352 77.4075 14.608C77.1408 14.864 77.0075 15.1733 77.0075 15.536C77.0075 15.952 77.1728 16.288 77.5035 16.544C77.8342 16.7893 78.2928 16.912 78.8795 16.912C79.4555 16.912 79.9568 16.784 80.3835 16.528C80.8208 16.272 81.1355 15.8987 81.3275 15.408L81.6315 16.464C81.4288 16.9653 81.0715 17.3653 80.5595 17.664C80.0475 17.952 79.4022 18.096 78.6235 18.096ZM85.706 18V9.52H87.178V11.824L87.034 11.248C87.2687 10.6613 87.6633 10.2133 88.218 9.904C88.7727 9.59467 89.4553 9.44 90.266 9.44V10.928C90.202 10.9173 90.138 10.912 90.074 10.912C90.0207 10.912 89.9673 10.912 89.914 10.912C89.0927 10.912 88.442 11.1573 87.962 11.648C87.482 12.1387 87.242 12.848 87.242 13.776V18H85.706ZM95.4149 18.096C94.5615 18.096 93.9002 17.8667 93.4309 17.408C92.9615 16.9493 92.7269 16.2933 92.7269 15.44V7.664H94.2629V15.376C94.2629 15.8347 94.3749 16.1867 94.5989 16.432C94.8335 16.6773 95.1642 16.8 95.5909 16.8C96.0709 16.8 96.4709 16.6667 96.7909 16.4L97.2709 17.504C97.0362 17.7067 96.7535 17.856 96.4229 17.952C96.1029 18.048 95.7669 18.096 95.4149 18.096ZM91.2869 10.784V9.52H96.6949V10.784H91.2869Z" fill="white"/>
</svg>
