<svg width="156" height="24" viewBox="0 0 156 24" fill="none" xmlns="http://www.w3.org/2000/svg">
<path d="M6.3 17.09C5.51 17.09 4.775 16.96 4.095 16.7C3.425 16.43 2.84 16.055 2.34 15.575C1.85 15.085 1.465 14.52 1.185 13.88C0.915 13.23 0.78 12.52 0.78 11.75C0.78 10.98 0.915 10.275 1.185 9.635C1.465 8.985 1.85 8.42 2.34 7.94C2.84 7.45 3.425 7.075 4.095 6.815C4.765 6.545 5.5 6.41 6.3 6.41C7.09 6.41 7.82 6.545 8.49 6.815C9.16 7.075 9.74 7.445 10.23 7.925C10.73 8.405 11.115 8.97 11.385 9.62C11.665 10.27 11.805 10.98 11.805 11.75C11.805 12.52 11.665 13.23 11.385 13.88C11.115 14.53 10.73 15.095 10.23 15.575C9.74 16.055 9.16 16.43 8.49 16.7C7.82 16.96 7.09 17.09 6.3 17.09ZM9.735 19.085C9.415 19.085 9.105 19.045 8.805 18.965C8.505 18.885 8.2 18.755 7.89 18.575C7.59 18.405 7.28 18.18 6.96 17.9C6.64 17.62 6.29 17.28 5.91 16.88L7.125 16.58C7.435 16.95 7.735 17.255 8.025 17.495C8.325 17.735 8.615 17.91 8.895 18.02C9.185 18.14 9.47 18.2 9.75 18.2C10.53 18.2 11.195 17.88 11.745 17.24L12.285 17.885C11.625 18.685 10.775 19.085 9.735 19.085ZM6.3 16.1C6.93 16.1 7.51 15.995 8.04 15.785C8.58 15.565 9.045 15.255 9.435 14.855C9.835 14.455 10.145 13.995 10.365 13.475C10.585 12.945 10.695 12.37 10.695 11.75C10.695 11.12 10.585 10.545 10.365 10.025C10.145 9.495 9.835 9.035 9.435 8.645C9.045 8.245 8.58 7.94 8.04 7.73C7.51 7.51 6.93 7.4 6.3 7.4C5.67 7.4 5.085 7.51 4.545 7.73C4.005 7.94 3.535 8.245 3.135 8.645C2.745 9.035 2.435 9.495 2.205 10.025C1.985 10.545 1.875 11.12 1.875 11.75C1.875 12.37 1.985 12.945 2.205 13.475C2.435 13.995 2.745 14.455 3.135 14.855C3.535 15.255 4.005 15.565 4.545 15.785C5.085 15.995 5.67 16.1 6.3 16.1ZM17.323 17.075C16.653 17.075 16.068 16.95 15.568 16.7C15.068 16.45 14.678 16.075 14.398 15.575C14.128 15.075 13.993 14.45 13.993 13.7V9.125H15.058V13.58C15.058 14.42 15.263 15.055 15.673 15.485C16.093 15.905 16.678 16.115 17.428 16.115C17.978 16.115 18.453 16.005 18.853 15.785C19.263 15.555 19.573 15.225 19.783 14.795C20.003 14.365 20.113 13.85 20.113 13.25V9.125H21.178V17H20.158V14.84L20.323 15.23C20.073 15.81 19.683 16.265 19.153 16.595C18.633 16.915 18.023 17.075 17.323 17.075ZM29.0811 17V15.26L29.0361 14.975V12.065C29.0361 11.395 28.8461 10.88 28.4661 10.52C28.0961 10.16 27.5411 9.98 26.8011 9.98C26.2911 9.98 25.8061 10.065 25.3461 10.235C24.8861 10.405 24.4961 10.63 24.1761 10.91L23.6961 10.115C24.0961 9.775 24.5761 9.515 25.1361 9.335C25.6961 9.145 26.2861 9.05 26.9061 9.05C27.9261 9.05 28.7111 9.305 29.2611 9.815C29.8211 10.315 30.1011 11.08 30.1011 12.11V17H29.0811ZM26.3661 17.075C25.7761 17.075 25.2611 16.98 24.8211 16.79C24.3911 16.59 24.0611 16.32 23.8311 15.98C23.6011 15.63 23.4861 15.23 23.4861 14.78C23.4861 14.37 23.5811 14 23.7711 13.67C23.9711 13.33 24.2911 13.06 24.7311 12.86C25.1811 12.65 25.7811 12.545 26.5311 12.545H29.2461V13.34H26.5611C25.8011 13.34 25.2711 13.475 24.9711 13.745C24.6811 14.015 24.5361 14.35 24.5361 14.75C24.5361 15.2 24.7111 15.56 25.0611 15.83C25.4111 16.1 25.9011 16.235 26.5311 16.235C27.1311 16.235 27.6461 16.1 28.0761 15.83C28.5161 15.55 28.8361 15.15 29.0361 14.63L29.2761 15.365C29.0761 15.885 28.7261 16.3 28.2261 16.61C27.7361 16.92 27.1161 17.075 26.3661 17.075ZM37.0138 9.05C37.6538 9.05 38.2138 9.175 38.6938 9.425C39.1838 9.665 39.5638 10.035 39.8338 10.535C40.1138 11.035 40.2538 11.665 40.2538 12.425V17H39.1888V12.53C39.1888 11.7 38.9788 11.075 38.5588 10.655C38.1488 10.225 37.5688 10.01 36.8188 10.01C36.2588 10.01 35.7688 10.125 35.3488 10.355C34.9388 10.575 34.6188 10.9 34.3888 11.33C34.1688 11.75 34.0588 12.26 34.0588 12.86V17H32.9938V9.125H34.0138V11.285L33.8488 10.88C34.0988 10.31 34.4988 9.865 35.0488 9.545C35.5988 9.215 36.2538 9.05 37.0138 9.05ZM45.6205 17.075C44.8805 17.075 44.3105 16.875 43.9105 16.475C43.5105 16.075 43.3105 15.51 43.3105 14.78V7.385H44.3755V14.72C44.3755 15.18 44.4905 15.535 44.7205 15.785C44.9605 16.035 45.3005 16.16 45.7405 16.16C46.2105 16.16 46.6005 16.025 46.9105 15.755L47.2855 16.52C47.0755 16.71 46.8205 16.85 46.5205 16.94C46.2305 17.03 45.9305 17.075 45.6205 17.075ZM41.9005 10.01V9.125H46.7755V10.01H41.9005ZM49.2243 17V9.125H50.2893V17H49.2243ZM49.7643 7.385C49.5443 7.385 49.3593 7.31 49.2093 7.16C49.0593 7.01 48.9843 6.83 48.9843 6.62C48.9843 6.41 49.0593 6.235 49.2093 6.095C49.3593 5.945 49.5443 5.87 49.7643 5.87C49.9843 5.87 50.1693 5.94 50.3193 6.08C50.4693 6.22 50.5443 6.395 50.5443 6.605C50.5443 6.825 50.4693 7.01 50.3193 7.16C50.1793 7.31 49.9943 7.385 49.7643 7.385ZM55.7426 17.075C55.0026 17.075 54.4326 16.875 54.0326 16.475C53.6326 16.075 53.4326 15.51 53.4326 14.78V7.385H54.4976V14.72C54.4976 15.18 54.6126 15.535 54.8426 15.785C55.0826 16.035 55.4226 16.16 55.8626 16.16C56.3326 16.16 56.7226 16.025 57.0326 15.755L57.4076 16.52C57.1976 16.71 56.9426 16.85 56.6426 16.94C56.3526 17.03 56.0526 17.075 55.7426 17.075ZM52.0226 10.01V9.125H56.8976V10.01H52.0226ZM59.2598 19.985C58.8898 19.985 58.5348 19.925 58.1948 19.805C57.8648 19.685 57.5798 19.505 57.3398 19.265L57.8348 18.47C58.0348 18.66 58.2498 18.805 58.4798 18.905C58.7198 19.015 58.9848 19.07 59.2748 19.07C59.6248 19.07 59.9248 18.97 60.1748 18.77C60.4348 18.58 60.6798 18.24 60.9098 17.75L61.4198 16.595L61.5398 16.43L64.7798 9.125H65.8298L61.8848 17.945C61.6648 18.455 61.4198 18.86 61.1498 19.16C60.8898 19.46 60.6048 19.67 60.2948 19.79C59.9848 19.92 59.6398 19.985 59.2598 19.985ZM61.3598 17.225L57.7298 9.125H58.8398L62.0498 16.355L61.3598 17.225ZM67.5519 10.685C67.3319 10.685 67.1419 10.605 66.9819 10.445C66.8319 10.285 66.7569 10.09 66.7569 9.86C66.7569 9.62 66.8319 9.425 66.9819 9.275C67.1419 9.125 67.3319 9.05 67.5519 9.05C67.7719 9.05 67.9569 9.125 68.1069 9.275C68.2669 9.425 68.3469 9.62 68.3469 9.86C68.3469 10.09 68.2669 10.285 68.1069 10.445C67.9569 10.605 67.7719 10.685 67.5519 10.685ZM67.5519 17.075C67.3319 17.075 67.1419 16.995 66.9819 16.835C66.8319 16.675 66.7569 16.48 66.7569 16.25C66.7569 16.01 66.8319 15.815 66.9819 15.665C67.1419 15.515 67.3319 15.44 67.5519 15.44C67.7719 15.44 67.9569 15.515 68.1069 15.665C68.2669 15.815 68.3469 16.01 68.3469 16.25C68.3469 16.48 68.2669 16.675 68.1069 16.835C67.9569 16.995 67.7719 17.075 67.5519 17.075Z" fill="#4C864A"/>
<rect x="86" width="70" height="24" rx="10" fill="#E8EDE8"/>
<path d="M95.4166 12H103.583" stroke="#4C864A" stroke-linecap="round" stroke-linejoin="round"/>
<path d="M120.632 18V5.94L121.208 6.552H117.662V5.4H121.928V18H120.632Z" fill="#4C864A"/>
<path d="M142.5 7.91667V16.0833" stroke="#4C864A" stroke-linecap="round" stroke-linejoin="round"/>
<path d="M138.417 12H146.583" stroke="#4C864A" stroke-linecap="round" stroke-linejoin="round"/>
</svg>
